<svg width="273" height="58" viewBox="0 0 273 58" fill="none" xmlns="http://www.w3.org/2000/svg">
<rect width="272.66" height="57.6475" rx="28.8238" fill="#191919"/>
<path d="M30.4004 38.293H27.9271L35.0806 18.8111H37.5158L44.6693 38.293H42.1961L36.3743 21.8932H36.2221L30.4004 38.293ZM31.3136 30.6829H41.2828V32.7756H31.3136V30.6829ZM56.7173 29.9599V32.0527H48.6506V29.9599H56.7173ZM49.1833 23.6816V38.293H46.9383V23.6816H49.1833ZM58.4295 23.6816V38.293H56.1846V23.6816H58.4295ZM71.0863 23.6816V25.7743H64.3133V38.293H62.0683V23.6816H71.0863ZM71.379 38.293V36.2002H71.9117C72.3493 36.2002 72.7139 36.1146 73.0057 35.9433C73.2974 35.7658 73.532 35.4582 73.7096 35.0206C73.8935 34.5767 74.033 33.9615 74.1281 33.1752C74.2296 32.3825 74.3025 31.3741 74.3469 30.1502L74.6133 23.6816H84.3542V38.293H82.1092V25.7743H76.7441L76.5158 30.9873C76.4651 32.1859 76.3573 33.2418 76.1924 34.155C76.0338 35.0618 75.7897 35.8229 75.4599 36.438C75.1365 37.0532 74.7052 37.5161 74.1662 37.8268C73.6271 38.1376 72.9517 38.293 72.14 38.293H71.379ZM90.257 34.9826L97.2964 23.6816H99.8838V38.293H97.6388V26.992L90.6375 38.293H88.012V23.6816H90.257V34.9826ZM105.779 34.9826L112.819 23.6816H115.406V38.293H113.161V26.992L106.16 38.293H103.534V23.6816H105.779V34.9826ZM111.335 18.8111H113.428C113.428 19.8385 113.072 20.6787 112.362 21.3319C111.652 21.9851 110.688 22.3117 109.47 22.3117C108.272 22.3117 107.317 21.9851 106.607 21.3319C105.903 20.6787 105.551 19.8385 105.551 18.8111H107.644C107.644 19.3057 107.78 19.7402 108.053 20.1143C108.332 20.4885 108.804 20.6756 109.47 20.6756C110.136 20.6756 110.612 20.4885 110.897 20.1143C111.189 19.7402 111.335 19.3057 111.335 18.8111ZM124.993 38.5974C123.623 38.5974 122.443 38.2739 121.454 37.6271C120.465 36.9802 119.704 36.0892 119.171 34.954C118.638 33.8189 118.372 32.522 118.372 31.0634C118.372 29.5794 118.645 28.2698 119.19 27.1346C119.742 25.9931 120.509 25.1021 121.492 24.4616C122.481 23.8147 123.636 23.4913 124.955 23.4913C125.982 23.4913 126.908 23.6816 127.732 24.0621C128.557 24.4426 129.232 24.9753 129.759 25.6602C130.285 26.3451 130.612 27.1442 130.738 28.0574H128.493C128.322 27.3915 127.942 26.8017 127.352 26.288C126.768 25.768 125.982 25.508 124.993 25.508C124.118 25.508 123.35 25.7363 122.691 26.1929C122.037 26.6432 121.527 27.2805 121.159 28.1049C120.798 28.923 120.617 29.8838 120.617 30.9873C120.617 32.1161 120.795 33.0991 121.15 33.9362C121.511 34.7733 122.018 35.4233 122.672 35.8863C123.331 36.3492 124.105 36.5807 124.993 36.5807C125.576 36.5807 126.106 36.4792 126.581 36.2763C127.057 36.0734 127.46 35.7816 127.789 35.4011C128.119 35.0206 128.354 34.564 128.493 34.0313H130.738C130.612 34.8938 130.298 35.6707 129.797 36.3619C129.302 37.0468 128.646 37.5922 127.828 37.9981C127.016 38.3976 126.071 38.5974 124.993 38.5974ZM133.559 38.293V23.6816H135.804V30.036H137.288L142.539 23.6816H145.431L139.533 30.7209L145.507 38.293H142.615L137.821 32.1288H135.804V38.293H133.559ZM149.731 34.9826L156.77 23.6816H159.358V38.293H157.113V26.992L150.111 38.293H147.486V23.6816H149.731V34.9826ZM165.253 34.9826L172.293 23.6816H174.88V38.293H172.635V26.992L165.634 38.293H163.008V23.6816H165.253V34.9826ZM170.809 18.8111H172.901C172.901 19.8385 172.546 20.6787 171.836 21.3319C171.126 21.9851 170.162 22.3117 168.944 22.3117C167.745 22.3117 166.791 21.9851 166.081 21.3319C165.377 20.6787 165.025 19.8385 165.025 18.8111H167.118C167.118 19.3057 167.254 19.7402 167.527 20.1143C167.806 20.4885 168.278 20.6756 168.944 20.6756C169.61 20.6756 170.086 20.4885 170.371 20.1143C170.663 19.7402 170.809 19.3057 170.809 18.8111ZM194.393 38.293V25.7363H190.512C189.637 25.7363 188.949 25.9392 188.448 26.3451C187.947 26.751 187.696 27.309 187.696 28.0193C187.696 28.7169 187.921 29.2655 188.372 29.665C188.828 30.0645 189.453 30.2643 190.246 30.2643H194.964V32.3571H190.246C189.256 32.3571 188.403 32.1827 187.687 31.8339C186.97 31.4851 186.418 30.9873 186.032 30.3404C185.645 29.6872 185.451 28.9135 185.451 28.0193C185.451 27.1188 185.654 26.3451 186.06 25.6982C186.466 25.0514 187.046 24.5536 187.801 24.2048C188.562 23.856 189.466 23.6816 190.512 23.6816H196.524V38.293H194.393ZM184.652 38.293L188.8 31.0253H191.235L187.087 38.293H184.652ZM199.271 34.564H201.668C201.719 35.2236 202.017 35.7246 202.562 36.067C203.114 36.4095 203.831 36.5807 204.712 36.5807C205.613 36.5807 206.383 36.3968 207.024 36.029C207.664 35.6548 207.984 35.0523 207.984 34.2216C207.984 33.7332 207.864 33.3083 207.623 32.9469C207.382 32.579 207.043 32.2937 206.605 32.0907C206.168 31.8878 205.651 31.7863 205.055 31.7863H202.543V29.7696H205.055C205.949 29.7696 206.608 29.5667 207.033 29.1608C207.464 28.755 207.68 28.2476 207.68 27.6388C207.68 26.9856 207.449 26.4624 206.986 26.0692C206.523 25.6697 205.866 25.4699 205.017 25.4699C204.16 25.4699 203.447 25.6634 202.876 26.0502C202.305 26.4307 202.004 26.9222 201.972 27.5247H199.613C199.639 26.7383 199.88 26.0439 200.336 25.4414C200.793 24.8326 201.414 24.357 202.201 24.0145C202.987 23.6657 203.888 23.4913 204.902 23.4913C205.93 23.4913 206.821 23.672 207.575 24.0335C208.336 24.3887 208.923 24.8738 209.335 25.489C209.754 26.0978 209.963 26.789 209.963 27.5627C209.963 28.3871 209.732 29.053 209.269 29.5604C208.806 30.0677 208.225 30.4292 207.528 30.6448V30.797C208.08 30.8351 208.558 31.0126 208.964 31.3297C209.376 31.6405 209.697 32.0495 209.925 32.5568C210.153 33.0578 210.268 33.6128 210.268 34.2216C210.268 35.1094 210.03 35.8831 209.554 36.5426C209.078 37.1958 208.425 37.7032 207.594 38.0647C206.764 38.4198 205.816 38.5974 204.75 38.5974C203.716 38.5974 202.791 38.4293 201.972 38.0932C201.154 37.7507 200.504 37.2783 200.022 36.6758C199.547 36.067 199.296 35.3631 199.271 34.564ZM214.9 28.9706H219.086C220.798 28.9706 222.108 29.405 223.015 30.2738C223.921 31.1426 224.375 32.2429 224.375 33.5747C224.375 34.4499 224.172 35.2458 223.766 35.9624C223.36 36.6726 222.764 37.2402 221.978 37.6651C221.191 38.0837 220.227 38.293 219.086 38.293H212.96V23.6816H215.205V36.2002H219.086C219.974 36.2002 220.703 35.9655 221.274 35.4963C221.845 35.027 222.13 34.4245 222.13 33.6889C222.13 32.9152 221.845 32.2842 221.274 31.7958C220.703 31.3075 219.974 31.0634 219.086 31.0634H214.9V28.9706ZM226.696 38.293V23.6816H228.941V38.293H226.696ZM232.589 38.293V23.6816H234.834V30.036H236.318L241.569 23.6816H244.461L238.563 30.7209L244.537 38.293H241.645L236.851 32.1288H234.834V38.293H232.589Z" fill="#F5F5F5"/>
</svg>
