<svg width="236" height="58" viewBox="0 0 236 58" fill="none" xmlns="http://www.w3.org/2000/svg">
<rect width="235.24" height="57.6475" rx="28.8238" fill="#191919"/>
<path d="M33.2263 38.2988V18.8169H39.8091C41.3374 18.8169 42.5868 19.0928 43.557 19.6445C44.5337 20.1899 45.2566 20.9288 45.7259 21.861C46.1952 22.7932 46.4299 23.8333 46.4299 24.9811C46.4299 26.129 46.1952 27.1722 45.7259 28.1108C45.263 29.0494 44.5464 29.7977 43.5761 30.3558C42.6058 30.9075 41.3628 31.1834 39.8471 31.1834H35.1288V29.0906H39.771C40.8174 29.0906 41.6577 28.9099 42.2919 28.5484C42.926 28.1869 43.3858 27.6986 43.6712 27.0834C43.9629 26.4619 44.1088 25.7612 44.1088 24.9811C44.1088 24.2011 43.9629 23.5035 43.6712 22.8884C43.3858 22.2732 42.9229 21.7912 42.2824 21.4424C41.6418 21.0873 40.792 20.9097 39.733 20.9097H35.5855V38.2988H33.2263ZM50.9105 43.7781C50.53 43.7781 50.1907 43.7464 49.8926 43.683C49.5946 43.6259 49.3885 43.5688 49.2743 43.5118L49.8451 41.5331C50.3905 41.6726 50.8724 41.7234 51.291 41.6853C51.7096 41.6473 52.0806 41.4602 52.404 41.1241C52.7338 40.7943 53.035 40.2584 53.3077 39.5164L53.7262 38.3749L48.3231 23.6874H50.7583L54.7917 35.3309H54.9439L58.9772 23.6874H61.4124L55.2102 40.4297C54.9312 41.1843 54.5855 41.809 54.1733 42.3036C53.7611 42.8046 53.2823 43.1756 52.7369 43.4166C52.1979 43.6576 51.5891 43.7781 50.9105 43.7781ZM69.3271 38.6032C67.9573 38.6032 66.7778 38.2798 65.7884 37.6329C64.7991 36.9861 64.0381 36.0951 63.5054 34.9599C62.9727 33.8247 62.7063 32.5278 62.7063 31.0692C62.7063 29.5853 62.979 28.2757 63.5244 27.1405C64.0762 25.999 64.8435 25.108 65.8265 24.4675C66.8158 23.8206 67.97 23.4972 69.2891 23.4972C70.3165 23.4972 71.2424 23.6874 72.0668 24.0679C72.8912 24.4484 73.5666 24.9811 74.093 25.666C74.6193 26.351 74.9459 27.15 75.0728 28.0632H72.8278C72.6566 27.3973 72.2761 26.8076 71.6863 26.2939C71.1028 25.7739 70.3165 25.5138 69.3271 25.5138C68.452 25.5138 67.6846 25.7421 67.0251 26.1988C66.3719 26.649 65.8614 27.2864 65.4935 28.1108C65.1321 28.9289 64.9513 29.8897 64.9513 30.9931C64.9513 32.122 65.1289 33.1049 65.484 33.942C65.8455 34.7792 66.3529 35.4292 67.0061 35.8921C67.6656 36.3551 68.4393 36.5866 69.3271 36.5866C69.9106 36.5866 70.4401 36.4851 70.9158 36.2821C71.3914 36.0792 71.7941 35.7875 72.1239 35.407C72.4536 35.0265 72.6883 34.5699 72.8278 34.0372H75.0728C74.9459 34.8996 74.632 35.6765 74.131 36.3678C73.6364 37.0527 72.98 37.5981 72.1619 38.0039C71.3502 38.4035 70.4052 38.6032 69.3271 38.6032ZM83.8293 38.6032C82.4595 38.6032 81.28 38.2798 80.2906 37.6329C79.3013 36.9861 78.5403 36.0951 78.0076 34.9599C77.4749 33.8247 77.2085 32.5278 77.2085 31.0692C77.2085 29.5853 77.4812 28.2757 78.0266 27.1405C78.5784 25.999 79.3457 25.108 80.3287 24.4675C81.318 23.8206 82.4722 23.4972 83.7913 23.4972C84.8187 23.4972 85.7445 23.6874 86.569 24.0679C87.3934 24.4484 88.0688 24.9811 88.5952 25.666C89.1215 26.351 89.4481 27.15 89.575 28.0632H87.33C87.1588 27.3973 86.7783 26.8076 86.1885 26.2939C85.605 25.7739 84.8187 25.5138 83.8293 25.5138C82.9542 25.5138 82.1868 25.7421 81.5273 26.1988C80.8741 26.649 80.3636 27.2864 79.9957 28.1108C79.6343 28.9289 79.4535 29.8897 79.4535 30.9931C79.4535 32.122 79.6311 33.1049 79.9862 33.942C80.3477 34.7792 80.8551 35.4292 81.5083 35.8921C82.1678 36.3551 82.9415 36.5866 83.8293 36.5866C84.4128 36.5866 84.9423 36.4851 85.4179 36.2821C85.8936 36.0792 86.2963 35.7875 86.6261 35.407C86.9558 35.0265 87.1905 34.5699 87.33 34.0372H89.575C89.4481 34.8996 89.1342 35.6765 88.6332 36.3678C88.1386 37.0527 87.4822 37.5981 86.6641 38.0039C85.8524 38.4035 84.9074 38.6032 83.8293 38.6032ZM92.3956 38.2988V23.6874H94.6406V30.0419H96.1246L101.376 23.6874H104.267L98.3696 30.7268L104.344 38.2988H101.452L96.6573 32.1346H94.6406V38.2988H92.3956ZM108.567 34.9884L115.607 23.6874H118.194V38.2988H115.949V26.9978L108.948 38.2988H106.322V23.6874H108.567V34.9884ZM124.09 34.9884L131.129 23.6874H133.717V38.2988H131.472V26.9978L124.47 38.2988H121.845V23.6874H124.09V34.9884ZM129.645 18.8169H131.738C131.738 19.8443 131.383 20.6846 130.672 21.3378C129.962 21.991 128.998 22.3176 127.781 22.3176C126.582 22.3176 125.628 21.991 124.917 21.3378C124.213 20.6846 123.861 19.8443 123.861 18.8169H125.954C125.954 19.3116 126.091 19.746 126.363 20.1202C126.642 20.4943 127.115 20.6814 127.781 20.6814C128.447 20.6814 128.922 20.4943 129.208 20.1202C129.499 19.746 129.645 19.3116 129.645 18.8169ZM153.23 38.2988V25.7421H149.349C148.473 25.7421 147.785 25.9451 147.284 26.351C146.783 26.7568 146.533 27.3149 146.533 28.0252C146.533 28.7228 146.758 29.2713 147.208 29.6709C147.665 30.0704 148.289 30.2702 149.082 30.2702H153.8V32.3629H149.082C148.093 32.3629 147.24 32.1885 146.523 31.8397C145.807 31.491 145.255 30.9931 144.868 30.3463C144.481 29.6931 144.288 28.9194 144.288 28.0252C144.288 27.1247 144.491 26.351 144.897 25.7041C145.302 25.0572 145.883 24.5594 146.637 24.2106C147.398 23.8618 148.302 23.6874 149.349 23.6874H155.361V38.2988H153.23ZM143.489 38.2988L147.636 31.0312H150.071L145.924 38.2988H143.489ZM158.107 34.5699H160.505C160.555 35.2294 160.853 35.7304 161.399 36.0729C161.951 36.4153 162.667 36.5866 163.549 36.5866C164.449 36.5866 165.22 36.4026 165.86 36.0348C166.501 35.6607 166.821 35.0582 166.821 34.2274C166.821 33.7391 166.701 33.3142 166.46 32.9527C166.219 32.5849 165.879 32.2995 165.442 32.0966C165.004 31.8937 164.487 31.7922 163.891 31.7922H161.38V29.7755H163.891C164.785 29.7755 165.445 29.5726 165.87 29.1667C166.301 28.7608 166.517 28.2535 166.517 27.6447C166.517 26.9915 166.285 26.4683 165.822 26.0751C165.359 25.6756 164.703 25.4758 163.853 25.4758C162.997 25.4758 162.284 25.6692 161.713 26.0561C161.142 26.4366 160.841 26.9281 160.809 27.5305H158.45C158.475 26.7441 158.716 26.0497 159.173 25.4473C159.63 24.8384 160.251 24.3628 161.037 24.0204C161.824 23.6716 162.724 23.4972 163.739 23.4972C164.766 23.4972 165.657 23.6779 166.412 24.0394C167.173 24.3945 167.76 24.8797 168.172 25.4948C168.59 26.1036 168.8 26.7949 168.8 27.5686C168.8 28.393 168.568 29.0589 168.105 29.5662C167.642 30.0736 167.062 30.435 166.364 30.6507V30.8029C166.916 30.8409 167.395 31.0185 167.801 31.3356C168.213 31.6463 168.533 32.0554 168.762 32.5627C168.99 33.0637 169.104 33.6186 169.104 34.2274C169.104 35.1153 168.866 35.889 168.391 36.5485C167.915 37.2017 167.262 37.709 166.431 38.0705C165.6 38.4257 164.652 38.6032 163.587 38.6032C162.553 38.6032 161.627 38.4352 160.809 38.0991C159.991 37.7566 159.341 37.2841 158.859 36.6817C158.383 36.0729 158.133 35.3689 158.107 34.5699ZM173.737 28.9764H177.922C179.635 28.9764 180.944 29.4109 181.851 30.2797C182.758 31.1485 183.212 32.2488 183.212 33.5806C183.212 34.4557 183.009 35.2516 182.603 35.9682C182.197 36.6785 181.601 37.2461 180.814 37.671C180.028 38.0896 179.064 38.2988 177.922 38.2988H171.796V23.6874H174.041V36.206H177.922C178.81 36.206 179.54 35.9714 180.11 35.5021C180.681 35.0328 180.967 34.4304 180.967 33.6947C180.967 32.921 180.681 32.29 180.11 31.8017C179.54 31.3134 178.81 31.0692 177.922 31.0692H173.737V28.9764ZM185.533 38.2988V23.6874H187.778V38.2988H185.533ZM191.426 38.2988V23.6874H193.671V30.0419H195.155L200.406 23.6874H203.298L197.4 30.7268L203.374 38.2988H200.482L195.688 32.1346H193.671V38.2988H191.426Z" fill="#F5F5F5"/>
</svg>
