<svg width="170" height="58" viewBox="0 0 170 58" fill="none" xmlns="http://www.w3.org/2000/svg">
<rect width="169.074" height="57.6475" rx="28.8238" fill="#191919"/>
<path d="M46.5326 21.3822H49.6147C51.0606 21.3822 52.3448 21.7056 53.4673 22.3525C54.5898 22.9993 55.4713 23.8999 56.1118 25.0541C56.7523 26.2082 57.0726 27.5464 57.0726 29.0684C57.0726 30.5904 56.7523 31.9317 56.1118 33.0922C55.4713 34.2528 54.5898 35.1596 53.4673 35.8128C52.3448 36.466 51.0606 36.7926 49.6147 36.7926H46.5326C45.0867 36.7926 43.8025 36.4692 42.68 35.8224C41.5575 35.1755 40.676 34.275 40.0355 33.1208C39.3949 31.9666 39.0747 30.6285 39.0747 29.1064C39.0747 27.5844 39.3949 26.2431 40.0355 25.0826C40.676 23.922 41.5575 23.0152 42.68 22.362C43.8025 21.7088 45.0867 21.3822 46.5326 21.3822ZM46.5326 23.475C45.4291 23.475 44.4969 23.7064 43.7359 24.1694C42.9812 24.6323 42.4073 25.2855 42.0141 26.129C41.6272 26.9724 41.4338 27.9649 41.4338 29.1064C41.4338 30.2353 41.6272 31.2182 42.0141 32.0554C42.4073 32.8925 42.9812 33.5425 43.7359 34.0054C44.4969 34.4684 45.4291 34.6999 46.5326 34.6999H49.6147C50.7182 34.6999 51.6472 34.4684 52.4019 34.0054C53.1629 33.5425 53.7368 32.8893 54.1237 32.0458C54.5169 31.2024 54.7135 30.2099 54.7135 29.0684C54.7135 27.9395 54.5169 26.9566 54.1237 26.1195C53.7368 25.2824 53.1629 24.6323 52.4019 24.1694C51.6472 23.7064 50.7182 23.475 49.6147 23.475H46.5326ZM49.2722 18.7186V39.342H46.9131V18.7186H49.2722ZM62.5045 35.2326L69.5438 23.9316H72.1313V38.543H69.8863V27.242L62.885 38.543H60.2595V23.9316H62.5045V35.2326ZM74.8687 34.814H77.2659C77.3166 35.4736 77.6147 35.9746 78.1601 36.317C78.7118 36.6595 79.4284 36.8307 80.31 36.8307C81.2105 36.8307 81.981 36.6468 82.6215 36.279C83.262 35.9048 83.5823 35.3023 83.5823 34.4716C83.5823 33.9832 83.4618 33.5583 83.2208 33.1969C82.9798 32.829 82.6405 32.5437 82.203 32.3407C81.7654 32.1378 81.2485 32.0363 80.6524 32.0363H78.1411V30.0196H80.6524C81.5466 30.0196 82.2061 29.8167 82.631 29.4108C83.0623 29.005 83.2779 28.4976 83.2779 27.8888C83.2779 27.2356 83.0464 26.7124 82.5835 26.3192C82.1205 25.9197 81.4642 25.7199 80.6144 25.7199C79.7582 25.7199 79.0448 25.9134 78.474 26.3002C77.9033 26.6807 77.602 27.1722 77.5703 27.7747H75.2112C75.2365 26.9883 75.4775 26.2939 75.9341 25.6914C76.3907 25.0826 77.0122 24.607 77.7986 24.2645C78.585 23.9157 79.4855 23.7413 80.5002 23.7413C81.5276 23.7413 82.4186 23.922 83.1733 24.2835C83.9343 24.6387 84.5209 25.1238 84.9331 25.739C85.3516 26.3478 85.5609 27.039 85.5609 27.8127C85.5609 28.6371 85.3295 29.303 84.8665 29.8104C84.4036 30.3177 83.8233 30.6792 83.1257 30.8948V31.047C83.6774 31.0851 84.1562 31.2626 84.5621 31.5797C84.9743 31.8905 85.2946 32.2995 85.5229 32.8068C85.7512 33.3078 85.8653 33.8628 85.8653 34.4716C85.8653 35.3594 85.6275 36.1331 85.1519 36.7926C84.6763 37.4458 84.0231 37.9532 83.1923 38.3147C82.3615 38.6698 81.4134 38.8474 80.348 38.8474C79.3143 38.8474 78.3884 38.6793 77.5703 38.3432C76.7522 38.0007 76.1022 37.5283 75.6202 36.9258C75.1446 36.317 74.8941 35.6131 74.8687 34.814ZM90.8026 35.2326L97.8419 23.9316H100.429V38.543H98.1844V27.242L91.1831 38.543H88.5576V23.9316H90.8026V35.2326ZM104.08 38.543V23.9316H106.325V30.286H107.809L113.06 23.9316H115.952L110.054 30.9709L116.028 38.543H113.136L108.342 32.3788H106.325V38.543H104.08ZM122.306 38.8854C121.381 38.8854 120.54 38.711 119.786 38.3622C119.031 38.0071 118.432 37.4966 117.988 36.8307C117.544 36.1585 117.322 35.3467 117.322 34.3955C117.322 33.5583 117.487 32.8798 117.816 32.3598C118.146 31.8334 118.587 31.4212 119.139 31.1231C119.69 30.825 120.299 30.6031 120.965 30.4572C121.637 30.305 122.313 30.1845 122.991 30.0957C123.879 29.9816 124.599 29.896 125.151 29.8389C125.709 29.7755 126.115 29.6708 126.368 29.525C126.628 29.3791 126.758 29.1255 126.758 28.764V28.6879C126.758 27.7493 126.501 27.02 125.988 26.5C125.48 25.9799 124.71 25.7199 123.676 25.7199C122.604 25.7199 121.764 25.9546 121.155 26.4239C120.547 26.8932 120.119 27.3942 119.871 27.9269L117.74 27.1659C118.121 26.278 118.628 25.5868 119.262 25.0921C119.903 24.5911 120.6 24.2423 121.355 24.0457C122.116 23.8428 122.864 23.7413 123.6 23.7413C124.069 23.7413 124.608 23.7984 125.217 23.9125C125.832 24.0203 126.425 24.2455 126.996 24.5879C127.573 24.9304 128.052 25.4472 128.433 26.1385C128.813 26.8297 129.003 27.7556 129.003 28.9162V38.543H126.758V36.5643H126.644C126.492 36.8814 126.238 37.2207 125.883 37.5822C125.528 37.9437 125.056 38.2512 124.466 38.5049C123.876 38.7586 123.156 38.8854 122.306 38.8854ZM122.649 36.8687C123.537 36.8687 124.285 36.6943 124.894 36.3455C125.509 35.9968 125.972 35.5465 126.283 34.9948C126.6 34.443 126.758 33.8628 126.758 33.2539V31.1992C126.663 31.3134 126.454 31.418 126.13 31.5131C125.813 31.6019 125.446 31.6812 125.027 31.7509C124.615 31.8144 124.212 31.8714 123.819 31.9222C123.432 31.9666 123.118 32.0046 122.877 32.0363C122.294 32.1124 121.748 32.2361 121.241 32.4073C120.74 32.5722 120.334 32.8227 120.023 33.1588C119.719 33.4886 119.567 33.9389 119.567 34.5096C119.567 35.2896 119.855 35.8794 120.432 36.279C121.016 36.6722 121.755 36.8687 122.649 36.8687Z" fill="#F5F5F5"/>
</svg>
