<svg width="181" height="58" viewBox="0 0 181 58" fill="none" xmlns="http://www.w3.org/2000/svg">
<rect width="180.385" height="57.6475" rx="28.8238" fill="#191919"/>
<path d="M37.6794 19.3033H40.0005V34.6376H40.1908L50.8449 19.3033H53.128V38.7852H50.7688V23.4888H50.5786L39.9625 38.7852H37.6794V19.3033ZM63.0189 39.0896C61.6491 39.0896 60.4695 38.7661 59.4802 38.1193C58.4909 37.4724 57.7299 36.5814 57.1972 35.4462C56.6645 34.311 56.3981 33.0142 56.3981 31.5556C56.3981 30.0716 56.6708 28.762 57.2162 27.6268C57.7679 26.4853 58.5353 25.5943 59.5183 24.9538C60.5076 24.3069 61.6618 23.9835 62.9809 23.9835C64.0082 23.9835 64.9341 24.1737 65.7586 24.5543C66.583 24.9348 67.2584 25.4675 67.7847 26.1524C68.3111 26.8373 68.6377 27.6363 68.7645 28.5496H66.5196C66.3483 27.8837 65.9678 27.2939 65.378 26.7802C64.7946 26.2602 64.0082 26.0002 63.0189 26.0002C62.1438 26.0002 61.3764 26.2285 60.7169 26.6851C60.0637 27.1353 59.5531 27.7727 59.1853 28.5971C58.8238 29.4152 58.6431 30.376 58.6431 31.4795C58.6431 32.6083 58.8207 33.5913 59.1758 34.4284C59.5373 35.2655 60.0446 35.9155 60.6978 36.3785C61.3574 36.8414 62.1311 37.0729 63.0189 37.0729C63.6024 37.0729 64.1319 36.9714 64.6075 36.7685C65.0832 36.5655 65.4859 36.2738 65.8156 35.8933C66.1454 35.5128 66.38 35.0562 66.5196 34.5235H68.7645C68.6377 35.386 68.3238 36.1628 67.8228 36.8541C67.3281 37.539 66.6718 38.0844 65.8537 38.4903C65.0419 38.8898 64.097 39.0896 63.0189 39.0896ZM70.4342 26.2665V24.1737H82.306V26.2665H77.5116V38.7852H75.2666V26.2665H70.4342ZM90.2968 39.0896C88.9777 39.0896 87.8203 38.7756 86.8247 38.1478C85.8353 37.52 85.0616 36.6416 84.5036 35.5128C83.9518 34.384 83.676 33.0649 83.676 31.5556C83.676 30.0335 83.9518 28.7049 84.5036 27.5698C85.0616 26.4346 85.8353 25.5531 86.8247 24.9252C87.8203 24.2974 88.9777 23.9835 90.2968 23.9835C91.6158 23.9835 92.77 24.2974 93.7594 24.9252C94.755 25.5531 95.5287 26.4346 96.0804 27.5698C96.6385 28.7049 96.9176 30.0335 96.9176 31.5556C96.9176 33.0649 96.6385 34.384 96.0804 35.5128C95.5287 36.6416 94.755 37.52 93.7594 38.1478C92.77 38.7756 91.6158 39.0896 90.2968 39.0896ZM90.2968 37.0729C91.2988 37.0729 92.1232 36.816 92.77 36.3024C93.4169 35.7887 93.8957 35.1133 94.2065 34.2762C94.5172 33.4391 94.6726 32.5322 94.6726 31.5556C94.6726 30.5789 94.5172 29.6689 94.2065 28.8254C93.8957 27.982 93.4169 27.3002 92.77 26.7802C92.1232 26.2602 91.2988 26.0002 90.2968 26.0002C89.2948 26.0002 88.4703 26.2602 87.8235 26.7802C87.1766 27.3002 86.6978 27.982 86.3871 28.8254C86.0763 29.6689 85.921 30.5789 85.921 31.5556C85.921 32.5322 86.0763 33.4391 86.3871 34.2762C86.6978 35.1133 87.1766 35.7887 87.8235 36.3024C88.4703 36.816 89.2948 37.0729 90.2968 37.0729ZM99.8833 44.2644V24.1737H102.052V26.4948H102.319C102.483 26.2412 102.712 25.9177 103.003 25.5245C103.302 25.125 103.726 24.7699 104.278 24.4591C104.836 24.142 105.591 23.9835 106.542 23.9835C107.772 23.9835 108.857 24.2911 109.795 24.9062C110.734 25.5214 111.467 26.3934 111.993 27.5222C112.519 28.651 112.782 29.9828 112.782 31.5175C112.782 33.0649 112.519 34.4062 111.993 35.5413C111.467 36.6702 110.737 37.5453 109.805 38.1668C108.873 38.782 107.798 39.0896 106.58 39.0896C105.642 39.0896 104.89 38.9342 104.326 38.6234C103.761 38.3064 103.327 37.948 103.022 37.5485C102.718 37.1426 102.483 36.8065 102.319 36.5402H102.128V44.2644H99.8833ZM102.09 31.4795C102.09 32.5829 102.252 33.5564 102.575 34.3998C102.899 35.2369 103.371 35.8933 103.993 36.3689C104.614 36.8382 105.375 37.0729 106.276 37.0729C107.214 37.0729 107.998 36.8256 108.625 36.3309C109.26 35.8299 109.735 35.1577 110.052 34.3142C110.376 33.4644 110.537 32.5195 110.537 31.4795C110.537 30.4521 110.379 29.5262 110.062 28.7018C109.751 27.871 109.279 27.2146 108.644 26.7326C108.017 26.2443 107.227 26.0002 106.276 26.0002C105.363 26.0002 104.595 26.2316 103.974 26.6946C103.352 27.1512 102.883 27.7917 102.566 28.6161C102.249 29.4342 102.09 30.3887 102.09 31.4795ZM117.991 35.4748L125.03 24.1737H127.618V38.7852H125.373V27.4841L118.371 38.7852H115.746V24.1737H117.991V35.4748ZM140.058 38.7852V26.2285H136.177C135.302 26.2285 134.614 26.4314 134.113 26.8373C133.612 27.2432 133.361 27.8012 133.361 28.5115C133.361 29.2091 133.586 29.7577 134.036 30.1572C134.493 30.5567 135.118 30.7565 135.91 30.7565H140.629V32.8493H135.91C134.921 32.8493 134.068 32.6749 133.352 32.3261C132.635 31.9773 132.083 31.4795 131.696 30.8326C131.309 30.1794 131.116 29.4057 131.116 28.5115C131.116 27.611 131.319 26.8373 131.725 26.1904C132.131 25.5436 132.711 25.0457 133.466 24.6969C134.227 24.3481 135.13 24.1737 136.177 24.1737H142.189V38.7852H140.058ZM130.317 38.7852L134.464 31.5175H136.9L132.752 38.7852H130.317Z" fill="#F5F5F5"/>
</svg>
