<svg width="712" height="80" viewBox="0 0 712 80" fill="none" xmlns="http://www.w3.org/2000/svg">
<rect width="711.446" height="79.7544" rx="16.9896" fill="#F9F9F9"/>
<path d="M29.2419 48.98L24.2608 42.3338H22.6825V48.98H20.4454V34.1527H22.6825V40.4152H23.4137L29.0174 34.1527H31.7469L25.8174 40.7917L31.9713 48.98H29.2419ZM35.2962 48.98H32.9215L38.2573 34.1527H40.842L46.1778 48.98H43.8031L39.6112 36.8459H39.4954L35.2962 48.98ZM35.6944 43.1736H43.3977V45.056H35.6944V43.1736ZM57.1154 48.98L52.1344 42.3338H50.5561V48.98H48.319V34.1527H50.5561V40.4152H51.2873L56.891 34.1527H59.6204L53.691 40.7917L59.8449 48.98H57.1154ZM78.9039 34.1527V48.98H76.674V36.064H69.6948V48.98H67.4649V34.1527H78.9039ZM82.3248 48.98V34.1527H87.6099C88.7634 34.1527 89.7191 34.3626 90.4769 34.7825C91.2347 35.2025 91.8018 35.7768 92.1782 36.5056C92.5547 37.2296 92.743 38.0453 92.743 38.9527C92.743 39.865 92.5523 40.6855 92.171 41.4143C91.7945 42.1383 91.225 42.7126 90.4624 43.1374C89.7046 43.5573 88.7514 43.7673 87.6026 43.7673H83.9682V41.8704H87.3999C88.1287 41.8704 88.72 41.7449 89.1737 41.4939C89.6274 41.2381 89.9604 40.8906 90.1728 40.4514C90.3852 40.0122 90.4914 39.5126 90.4914 38.9527C90.4914 38.3928 90.3852 37.8957 90.1728 37.4613C89.9604 37.0269 89.625 36.6866 89.1665 36.4405C88.7128 36.1943 88.1143 36.0712 87.371 36.0712H84.5619V48.98H82.3248ZM108.245 41.5663C108.245 43.1495 107.956 44.5106 107.377 45.6496C106.797 46.7839 106.003 47.6575 104.995 48.2705C103.991 48.8786 102.849 49.1827 101.57 49.1827C100.286 49.1827 99.14 48.8786 98.1312 48.2705C97.1273 47.6575 96.3358 46.7815 95.7566 45.6424C95.1774 44.5033 94.8878 43.1446 94.8878 41.5663C94.8878 39.9832 95.1774 38.6245 95.7566 37.4903C96.3358 36.3512 97.1273 35.4776 98.1312 34.8694C99.14 34.2564 100.286 33.95 101.57 33.95C102.849 33.95 103.991 34.2564 104.995 34.8694C106.003 35.4776 106.797 36.3512 107.377 37.4903C107.956 38.6245 108.245 39.9832 108.245 41.5663ZM106.03 41.5663C106.03 40.3597 105.834 39.3437 105.444 38.5183C105.057 37.6882 104.526 37.0607 103.851 36.636C103.18 36.2064 102.42 35.9916 101.57 35.9916C100.716 35.9916 99.9533 36.2064 99.2824 36.636C98.6115 37.0607 98.0806 37.6882 97.6896 38.5183C97.3035 39.3437 97.1104 40.3597 97.1104 41.5663C97.1104 42.773 97.3035 43.7914 97.6896 44.6216C98.0806 45.4469 98.6115 46.0744 99.2824 46.5039C99.9533 46.9287 100.716 47.141 101.57 47.141C102.42 47.141 103.18 46.9287 103.851 46.5039C104.526 46.0744 105.057 45.4469 105.444 44.6216C105.834 43.7914 106.03 42.773 106.03 41.5663ZM112.193 34.1527L115.74 39.9518H115.856L119.404 34.1527H121.996L117.377 41.5663L122.025 48.98H119.418L115.856 43.2605H115.74L112.178 48.98H109.572L114.3 41.5663L109.601 34.1527H112.193ZM136.696 41.5663C136.696 43.1495 136.407 44.5106 135.828 45.6496C135.248 46.7839 134.454 47.6575 133.446 48.2705C132.442 48.8786 131.3 49.1827 130.021 49.1827C128.737 49.1827 127.591 48.8786 126.582 48.2705C125.578 47.6575 124.787 46.7815 124.208 45.6424C123.628 44.5033 123.339 43.1446 123.339 41.5663C123.339 39.9832 123.628 38.6245 124.208 37.4903C124.787 36.3512 125.578 35.4776 126.582 34.8694C127.591 34.2564 128.737 33.95 130.021 33.95C131.3 33.95 132.442 34.2564 133.446 34.8694C134.454 35.4776 135.248 36.3512 135.828 37.4903C136.407 38.6245 136.696 39.9832 136.696 41.5663ZM134.481 41.5663C134.481 40.3597 134.285 39.3437 133.895 38.5183C133.508 37.6882 132.977 37.0607 132.302 36.636C131.631 36.2064 130.871 35.9916 130.021 35.9916C129.167 35.9916 128.404 36.2064 127.733 36.636C127.062 37.0607 126.532 37.6882 126.141 38.5183C125.754 39.3437 125.561 40.3597 125.561 41.5663C125.561 42.773 125.754 43.7914 126.141 44.6216C126.532 45.4469 127.062 46.0744 127.733 46.5039C128.404 46.9287 129.167 47.141 130.021 47.141C130.871 47.141 131.631 46.9287 132.302 46.5039C132.977 46.0744 133.508 45.4469 133.895 44.6216C134.285 43.7914 134.481 42.773 134.481 41.5663ZM138.363 52.5637V47.0831H139.341C139.674 46.8032 139.985 46.405 140.275 45.8885C140.564 45.3721 140.81 44.6747 141.013 43.7962C141.216 42.9178 141.356 41.7908 141.433 40.4152L141.781 34.1527H150.925V47.0831H152.604V52.542H150.461V48.98H140.506V52.5637H138.363ZM141.976 47.0831H148.782V36.0785H143.808L143.576 40.4152C143.513 41.4626 143.41 42.4037 143.265 43.2387C143.125 44.0737 142.944 44.8122 142.722 45.4542C142.505 46.0913 142.256 46.6343 141.976 47.0831ZM165.567 48.98H163.323V36.0712H160.514C159.78 36.0712 159.184 36.1823 158.726 36.4043C158.267 36.6215 157.932 36.9352 157.719 37.3455C157.507 37.7557 157.401 38.2408 157.401 38.8007C157.401 39.3557 157.507 39.8312 157.719 40.2269C157.932 40.6227 158.265 40.9244 158.718 41.1319C159.172 41.3395 159.763 41.4433 160.492 41.4433H164.293V43.3691H160.282C159.138 43.3691 158.185 43.1784 157.422 42.7971C156.665 42.4158 156.095 41.8825 155.714 41.1971C155.337 40.5069 155.149 39.7081 155.149 38.8007C155.149 37.8885 155.337 37.0848 155.714 36.3898C156.09 35.6899 156.657 35.1421 157.415 34.7463C158.178 34.3506 159.131 34.1527 160.275 34.1527H165.567V48.98ZM158.248 42.2903H160.724L157.126 48.98H154.584L158.248 42.2903ZM168.101 36.0785V34.1527H179.576V36.0785H174.95V48.98H172.72V36.0785H168.101ZM192.467 49.1827C191.473 49.1827 190.585 49.0114 189.803 48.6687C189.026 48.326 188.41 47.8506 187.957 47.2424C187.508 46.6294 187.266 45.9199 187.233 45.1139H189.506C189.535 45.5531 189.682 45.9344 189.948 46.2578C190.218 46.5763 190.57 46.8225 191.005 46.9962C191.439 47.17 191.922 47.2569 192.453 47.2569C193.037 47.2569 193.553 47.1555 194.002 46.9528C194.456 46.7501 194.81 46.4677 195.066 46.1057C195.322 45.7389 195.45 45.3166 195.45 44.8388C195.45 44.3416 195.322 43.9048 195.066 43.5283C194.815 43.147 194.446 42.8478 193.958 42.6306C193.476 42.4134 192.892 42.3048 192.206 42.3048H190.954V40.4803H192.206C192.757 40.4803 193.239 40.3814 193.654 40.1835C194.074 39.9856 194.403 39.7105 194.639 39.3582C194.876 39.001 194.994 38.5835 194.994 38.1057C194.994 37.6471 194.89 37.2489 194.682 36.9111C194.48 36.5684 194.19 36.3005 193.814 36.1074C193.442 35.9144 193.003 35.8179 192.496 35.8179C192.013 35.8179 191.562 35.9071 191.142 36.0857C190.727 36.2595 190.389 36.5105 190.129 36.8387C189.868 37.1621 189.728 37.5506 189.709 38.0043H187.544C187.568 37.2031 187.805 36.4984 188.253 35.8903C188.707 35.2821 189.306 34.8067 190.049 34.464C190.792 34.1213 191.618 33.95 192.525 33.95C193.476 33.95 194.296 34.1358 194.987 34.5074C195.682 34.8743 196.217 35.3642 196.594 35.9771C196.975 36.5901 197.163 37.261 197.159 37.9898C197.163 38.82 196.932 39.5247 196.463 40.1039C196 40.6831 195.382 41.0716 194.61 41.2695V41.3853C195.595 41.535 196.357 41.9259 196.898 42.5582C197.443 43.1905 197.714 43.9748 197.709 44.9112C197.714 45.7269 197.487 46.4581 197.028 47.1048C196.575 47.7516 195.954 48.2608 195.168 48.6325C194.381 48.9993 193.481 49.1827 192.467 49.1827ZM201.901 48.98H199.526L204.862 34.1527H207.446L212.782 48.98H210.408L206.216 36.8459H206.1L201.901 48.98ZM202.299 43.1736H210.002V45.056H202.299V43.1736ZM214.923 48.98V34.1527H217.161V40.5962H224.552V34.1527H226.797V48.98H224.552V42.5148H217.161V48.98H214.923ZM240.567 48.98H238.323V36.0712H235.514C234.78 36.0712 234.184 36.1823 233.725 36.4043C233.267 36.6215 232.931 36.9352 232.719 37.3455C232.507 37.7557 232.401 38.2408 232.401 38.8007C232.401 39.3557 232.507 39.8312 232.719 40.2269C232.931 40.6227 233.264 40.9244 233.718 41.1319C234.172 41.3395 234.763 41.4433 235.492 41.4433H239.293V43.3691H235.282C234.138 43.3691 233.185 43.1784 232.422 42.7971C231.664 42.4158 231.095 41.8825 230.714 41.1971C230.337 40.5069 230.149 39.7081 230.149 38.8007C230.149 37.8885 230.337 37.0848 230.714 36.3898C231.09 35.6899 231.657 35.1421 232.415 34.7463C233.178 34.3506 234.131 34.1527 235.275 34.1527H240.567V48.98ZM233.248 42.2903H235.724L232.125 48.98H229.584L233.248 42.2903ZM243.101 36.0785V34.1527H254.576V36.0785H249.95V48.98H247.72V36.0785H243.101ZM257.112 34.1527H259.327V45.0415H259.465L267.009 34.1527H269.08V48.98H266.843V38.1057H266.705L259.175 48.98H257.112V34.1527ZM282.855 48.98H280.611V36.0712H277.802C277.068 36.0712 276.472 36.1823 276.014 36.4043C275.555 36.6215 275.22 36.9352 275.007 37.3455C274.795 37.7557 274.689 38.2408 274.689 38.8007C274.689 39.3557 274.795 39.8312 275.007 40.2269C275.22 40.6227 275.553 40.9244 276.006 41.1319C276.46 41.3395 277.051 41.4433 277.78 41.4433H281.581V43.3691H277.57C276.426 43.3691 275.473 43.1784 274.71 42.7971C273.953 42.4158 273.383 41.8825 273.002 41.1971C272.625 40.5069 272.437 39.7081 272.437 38.8007C272.437 37.8885 272.625 37.0848 273.002 36.3898C273.378 35.6899 273.945 35.1421 274.703 34.7463C275.466 34.3506 276.419 34.1527 277.563 34.1527H282.855V48.98ZM275.536 42.2903H278.012L274.414 48.98H271.872L275.536 42.2903ZM288.314 44.7157V44.5781C288.324 43.6804 288.413 42.966 288.582 42.4351C288.756 41.9042 289.002 41.4746 289.321 41.1464C289.639 40.8182 290.023 40.519 290.472 40.2487C290.761 40.0653 291.022 39.8601 291.254 39.6333C291.485 39.4064 291.669 39.1458 291.804 38.8514C291.939 38.5569 292.007 38.2312 292.007 37.874C292.007 37.4444 291.905 37.0728 291.702 36.759C291.5 36.4453 291.229 36.204 290.892 36.0351C290.559 35.8613 290.187 35.7744 289.777 35.7744C289.405 35.7744 289.05 35.8516 288.712 36.0061C288.375 36.1605 288.095 36.4019 287.873 36.7301C287.651 37.0535 287.523 37.471 287.489 37.9826H285.288C285.322 37.1138 285.541 36.3802 285.947 35.7817C286.352 35.1783 286.888 34.7222 287.554 34.4133C288.225 34.1044 288.966 33.95 289.777 33.95C290.665 33.95 291.442 34.1165 292.108 34.4495C292.774 34.7777 293.29 35.2387 293.657 35.8323C294.029 36.4212 294.215 37.109 294.215 37.8957C294.215 38.4363 294.13 38.9238 293.961 39.3582C293.792 39.7877 293.551 40.1714 293.237 40.5093C292.928 40.8472 292.557 41.1464 292.122 41.4071C291.712 41.6629 291.379 41.9283 291.123 42.2034C290.872 42.4786 290.689 42.8044 290.573 43.1808C290.457 43.5573 290.394 44.0231 290.385 44.5781V44.7157H288.314ZM289.407 49.1175C289.012 49.1175 288.671 48.9776 288.387 48.6976C288.102 48.4129 287.959 48.0702 287.959 47.6696C287.959 47.2738 288.102 46.9359 288.387 46.656C288.671 46.3712 289.012 46.2288 289.407 46.2288C289.798 46.2288 290.136 46.3712 290.421 46.656C290.711 46.9359 290.855 47.2738 290.855 47.6696C290.855 47.935 290.788 48.1788 290.653 48.4008C290.522 48.618 290.349 48.7917 290.131 48.9221C289.914 49.0524 289.673 49.1175 289.407 49.1175Z" fill="black" fill-opacity="0.87"/>
<path d="M679.77 35.3174L672.484 42.6026L665.199 35.3174" stroke="#191919" stroke-width="4.4308" stroke-linecap="round" stroke-linejoin="round"/>
</svg>
