<svg width="768" height="118" viewBox="0 0 768 118" fill="none" xmlns="http://www.w3.org/2000/svg">
<g filter="url(#filter0_d_75_4638)">
<rect x="1.60547" width="764" height="114.03" fill="white"/>
</g>
<rect x="39.6172" y="20.9058" width="69.6539" height="70.3871" rx="34.8269" fill="#0904FB"/>
<rect x="39.6172" y="20.9058" width="69.6539" height="70.3871" rx="34.8269" fill="url(#paint0_linear_75_4638)" fill-opacity="0.6"/>
<path d="M57.5612 58.1657H65.7909L61.7185 44.4212H61.6336L57.5612 58.1657ZM56.2461 62.7048L53.9978 70.1709H47.8467L58.5793 39.2034H64.9425L75.7175 70.1709H69.3543L67.1484 62.7048H56.2461ZM84.1102 43.997V51.5904H96.5396V56.1295H84.1102V65.3773H97.388V70.1709H78.1713V39.2034H97.388V43.997H84.1102Z" fill="white"/>
<path d="M478.888 54.8574V37.0367H489.644V38.9511H481.046V44.9725H489.087V46.8868H481.046V52.9431H489.783V54.8574H478.888ZM502.818 37.0367V38.9511H494.221V54.8574H492.063V37.0367H502.818ZM514.839 45.2161V47.1305H507.495V45.2161H514.839ZM503.249 49.2885H505.477C505.668 50.5415 506.092 51.5044 506.747 52.1774C507.403 52.8503 508.453 53.1867 509.897 53.1867C510.918 53.1867 511.771 52.8996 512.455 52.3253C513.146 51.751 513.662 50.991 514.004 50.0455C514.352 49.0999 514.526 48.0702 514.526 46.9564V44.9725C514.526 43.7427 514.332 42.6608 513.943 41.7268C513.56 40.7871 513.006 40.0561 512.281 39.5341C511.562 39.0062 510.698 38.7422 509.688 38.7422C508.806 38.7422 508.075 38.8988 507.495 39.2121C506.915 39.5254 506.463 39.9749 506.138 40.5608C505.813 41.1467 505.593 41.8516 505.477 42.6753H503.249C503.365 41.5383 503.675 40.5289 504.18 39.6472C504.691 38.7596 505.401 38.0635 506.312 37.5588C507.229 37.0483 508.354 36.7931 509.688 36.7931C511.138 36.7931 512.391 37.1324 513.447 37.8112C514.503 38.4841 515.318 39.4325 515.892 40.6566C516.467 41.8748 516.754 43.3018 516.754 44.9377V46.9913C516.754 48.6271 516.47 50.0542 515.901 51.2724C515.333 52.4848 514.535 53.4275 513.508 54.1004C512.481 54.7675 511.278 55.1011 509.897 55.1011C508.482 55.1011 507.304 54.8458 506.364 54.3353C505.43 53.819 504.708 53.1229 504.197 52.247C503.693 51.3652 503.377 50.379 503.249 49.2885ZM523.955 36.2014L518.212 57.5375H516.332L522.075 36.2014H523.955ZM540.233 45.9471C540.233 47.8266 539.894 49.4509 539.215 50.8199C538.537 52.189 537.605 53.2447 536.422 53.9873C535.239 54.7298 533.887 55.1011 532.367 55.1011C530.847 55.1011 529.496 54.7298 528.312 53.9873C527.129 53.2447 526.198 52.189 525.519 50.8199C524.84 49.4509 524.501 47.8266 524.501 45.9471C524.501 44.0675 524.84 42.4433 525.519 41.0742C526.198 39.7052 527.129 38.6494 528.312 37.9069C529.496 37.1643 530.847 36.7931 532.367 36.7931C533.887 36.7931 535.239 37.1643 536.422 37.9069C537.605 38.6494 538.537 39.7052 539.215 41.0742C539.894 42.4433 540.233 44.0675 540.233 45.9471ZM538.145 45.9471C538.145 44.404 537.887 43.1017 537.371 42.0401C536.86 40.9785 536.167 40.1751 535.291 39.6298C534.421 39.0845 533.446 38.8118 532.367 38.8118C531.288 38.8118 530.311 39.0845 529.435 39.6298C528.565 40.1751 527.871 40.9785 527.355 42.0401C526.845 43.1017 526.589 44.404 526.589 45.9471C526.589 47.4901 526.845 48.7925 527.355 49.8541C527.871 50.9156 528.565 51.7191 529.435 52.2644C530.311 52.8097 531.288 53.0823 532.367 53.0823C533.446 53.0823 534.421 52.8097 535.291 52.2644C536.167 51.7191 536.86 50.9156 537.371 49.8541C537.887 48.7925 538.145 47.4901 538.145 45.9471ZM553.147 37.0367V38.9511H544.55V54.8574H542.392V37.0367H553.147ZM565.168 45.2161V47.1305H557.824V45.2161H565.168ZM553.578 49.2885H555.805C555.997 50.5415 556.42 51.5044 557.076 52.1774C557.731 52.8503 558.781 53.1867 560.226 53.1867C561.247 53.1867 562.099 52.8996 562.784 52.3253C563.474 51.751 563.991 50.991 564.333 50.0455C564.681 49.0999 564.855 48.0702 564.855 46.9564V44.9725C564.855 43.7427 564.661 42.6608 564.272 41.7268C563.889 40.7871 563.335 40.0561 562.61 39.5341C561.891 39.0062 561.026 38.7422 560.017 38.7422C559.135 38.7422 558.404 38.8988 557.824 39.2121C557.244 39.5254 556.792 39.9749 556.467 40.5608C556.142 41.1467 555.921 41.8516 555.805 42.6753H553.578C553.694 41.5383 554.004 40.5289 554.509 39.6472C555.019 38.7596 555.73 38.0635 556.641 37.5588C557.557 37.0483 558.683 36.7931 560.017 36.7931C561.467 36.7931 562.72 37.1324 563.776 37.8112C564.832 38.4841 565.647 39.4325 566.221 40.6566C566.795 41.8748 567.083 43.3018 567.083 44.9377V46.9913C567.083 48.6271 566.798 50.0542 566.23 51.2724C565.661 52.4848 564.864 53.4275 563.837 54.1004C562.81 54.7675 561.606 55.1011 560.226 55.1011C558.81 55.1011 557.633 54.8458 556.693 54.3353C555.759 53.819 555.037 53.1229 554.526 52.247C554.022 51.3652 553.705 50.379 553.578 49.2885Z" fill="black" fill-opacity="0.87"/>
<path d="M613.959 41.6719L606.93 48.6855L599.901 41.6719L597.742 43.8311L606.93 53.0192L616.118 43.8311L613.959 41.6719Z" fill="black" fill-opacity="0.87"/>
<rect x="687.402" y="28.9604" width="26.5064" height="26.5064" fill="white" fill-opacity="0.01"/>
<path fill-rule="evenodd" clip-rule="evenodd" d="M719.944 54.4272H701.693C701.436 54.4272 701.186 54.5119 700.981 54.6674L696.236 58.2824V55.6023C696.236 54.9531 695.71 54.4272 695.061 54.4272H691.275V35.8619H719.944V54.4272ZM721.117 33.5112H690.097C689.448 33.5112 688.922 34.0371 688.922 34.686V55.6015C688.922 56.2507 689.448 56.7765 690.097 56.7765H693.883V60.6536C693.883 61.1003 694.136 61.5087 694.537 61.7067C694.702 61.7886 694.88 61.8286 695.058 61.8286C695.311 61.8286 695.562 61.7475 695.77 61.5885L702.086 56.7765H721.117C721.766 56.7765 722.292 56.2507 722.292 55.6015V34.686C722.292 34.0371 721.766 33.5112 721.117 33.5112Z" fill="#212121"/>
<path fill-rule="evenodd" clip-rule="evenodd" d="M697.12 43.4688H714.093C714.742 43.4688 715.268 42.9429 715.268 42.2937C715.268 41.6449 714.742 41.1187 714.093 41.1187H697.12C696.472 41.1187 695.945 41.6449 695.945 42.2937C695.945 42.9429 696.472 43.4688 697.12 43.4688Z" fill="#212121"/>
<path fill-rule="evenodd" clip-rule="evenodd" d="M697.12 49.1675H714.093C714.742 49.1675 715.268 48.6416 715.268 47.9925C715.268 47.3436 714.742 46.8174 714.093 46.8174H697.12C696.472 46.8174 695.945 47.3436 695.945 47.9925C695.945 48.6416 696.472 49.1675 697.12 49.1675Z" fill="#212121"/>
<path d="M138.821 69.395V58.2294H145.107V58.8618H139.502V63.3542H143.008C143.695 63.3542 144.286 63.476 144.78 63.7195C145.278 63.9594 145.659 64.2974 145.925 64.7336C146.19 65.1697 146.323 65.684 146.323 66.2765C146.323 66.9053 146.19 67.4541 145.925 67.923C145.663 68.3882 145.285 68.7499 144.791 69.0079C144.296 69.266 143.702 69.395 143.008 69.395H138.821ZM139.502 68.768H143.008C143.564 68.768 144.038 68.6626 144.431 68.4518C144.827 68.241 145.129 67.9466 145.336 67.5686C145.543 67.1906 145.647 66.7526 145.647 66.2547C145.647 65.5895 145.41 65.0462 144.938 64.6245C144.465 64.1993 143.822 63.9866 143.008 63.9866H139.502V68.768ZM157.897 63.8122C157.897 64.9644 157.697 65.9712 157.298 66.8326C156.898 67.6904 156.342 68.3573 155.629 68.8335C154.921 69.3096 154.103 69.5477 153.176 69.5477C152.245 69.5477 151.424 69.3096 150.712 68.8335C150.003 68.3537 149.449 67.6849 149.049 66.8271C148.649 65.9657 148.449 64.9607 148.449 63.8122C148.449 62.66 148.649 61.655 149.049 60.7972C149.452 59.9395 150.008 59.2725 150.717 58.7964C151.426 58.3166 152.245 58.0767 153.176 58.0767C154.103 58.0767 154.921 58.3148 155.629 58.7909C156.342 59.267 156.898 59.9358 157.298 60.7972C157.697 61.655 157.897 62.66 157.897 63.8122ZM157.232 63.8122C157.232 62.7763 157.058 61.8785 156.709 61.1189C156.363 60.3593 155.886 59.7723 155.275 59.3579C154.664 58.9399 153.965 58.7309 153.176 58.7309C152.387 58.7309 151.688 58.9381 151.077 59.3525C150.466 59.7632 149.986 60.3502 149.638 61.1135C149.292 61.8731 149.12 62.7727 149.12 63.8122C149.12 64.8408 149.29 65.7367 149.632 66.5C149.977 67.2597 150.455 67.8485 151.066 68.2665C151.677 68.6844 152.38 68.8934 153.176 68.8934C153.965 68.8934 154.664 68.6863 155.275 68.2719C155.886 67.8539 156.363 67.2651 156.709 66.5055C157.058 65.7458 157.232 64.8481 157.232 63.8122ZM159.41 69.395V68.7462H159.683C160.141 68.7462 160.508 68.5881 160.784 68.2719C161.064 67.9557 161.273 67.4523 161.411 66.7617C161.553 66.0711 161.642 65.1625 161.678 64.0357L161.885 58.2294H168.177V69.395H167.496V58.8618H162.54L162.349 64.2265C162.309 65.4151 162.198 66.391 162.016 67.1543C161.838 67.9175 161.558 68.4827 161.177 68.8498C160.795 69.2133 160.277 69.395 159.623 69.395H159.41ZM171.864 63.3542H175.588C176.275 63.3542 176.865 63.4742 177.36 63.714C177.857 63.9539 178.239 64.2938 178.504 64.7336C178.77 65.1697 178.902 65.684 178.902 66.2765C178.902 66.9053 178.77 67.4541 178.504 67.923C178.243 68.3919 177.865 68.7553 177.37 69.0134C176.876 69.2678 176.282 69.395 175.588 69.395H171.401V58.2294H172.082V68.768H175.588C176.144 68.768 176.618 68.6626 177.011 68.4518C177.407 68.241 177.708 67.9466 177.916 67.5686C178.123 67.1906 178.226 66.7526 178.226 66.2547C178.23 65.5895 177.994 65.0462 177.518 64.6245C177.045 64.1993 176.402 63.9866 175.588 63.9866H171.864V63.3542ZM181.431 58.2294H182.112V68.7462H186.572V58.2294H187.254V68.7462H191.708V58.2294H192.395V69.395H181.431V58.2294ZM195.629 69.395V58.2294H201.844V58.8618H196.311V63.4905H201.512V64.1229H196.311V68.7626H201.975V69.395H195.629ZM205.744 67.8685L205.646 68.4409C205.58 68.8153 205.497 69.2369 205.395 69.7058C205.297 70.1783 205.195 70.6326 205.09 71.0688C204.984 71.5049 204.888 71.8557 204.801 72.121H204.283C204.334 71.8593 204.395 71.5377 204.468 71.156C204.545 70.778 204.623 70.36 204.703 69.9021C204.786 69.4441 204.864 68.9698 204.937 68.4791L205.035 67.8685H205.744ZM212.926 58.2294H213.613V61.8985C213.613 62.5055 213.718 63.0035 213.929 63.3924C214.14 63.7777 214.449 64.063 214.856 64.2483C215.266 64.4337 215.77 64.5264 216.366 64.5264C216.657 64.5264 216.951 64.5119 217.249 64.4828C217.547 64.4537 217.845 64.4119 218.143 64.3574C218.445 64.3029 218.745 64.2374 219.043 64.1611C219.341 64.0812 219.633 63.9921 219.92 63.894V64.5482C219.601 64.65 219.29 64.7408 218.988 64.8208C218.69 64.8971 218.396 64.9607 218.105 65.0116C217.818 65.0625 217.531 65.1007 217.244 65.1261C216.96 65.1516 216.673 65.1643 216.382 65.1643C215.637 65.1606 215.006 65.0425 214.49 64.8099C213.978 64.5736 213.589 64.2156 213.324 63.7359C213.058 63.2524 212.926 62.64 212.926 61.8985V58.2294ZM219.833 58.2294H220.482V69.395H219.833V58.2294ZM223.711 69.395V58.2294H229.926V58.8618H224.392V63.4905H229.594V64.1229H224.392V68.7626H230.057V69.395H223.711ZM232.752 58.2294H233.493L237.795 68.4137H237.871L242.173 58.2294H242.914V69.395H242.26V59.8486H242.195L238.155 69.395H237.511L233.471 59.8486H233.406V69.395H232.752V58.2294ZM258.042 58.2294V69.395H257.355V58.8618H250.96V69.395H250.278V58.2294H258.042ZM261.088 69.395V58.2294H264.529C265.237 58.2294 265.844 58.3747 266.35 58.6655C266.858 58.9563 267.249 59.3543 267.522 59.8595C267.794 60.3647 267.931 60.9408 267.931 61.5878C267.931 62.2275 267.794 62.7999 267.522 63.3052C267.249 63.8104 266.858 64.2102 266.35 64.5046C265.844 64.7954 265.239 64.9407 264.534 64.9407H261.568V64.3083H264.518C265.092 64.3083 265.583 64.192 265.99 63.9594C266.397 63.7231 266.709 63.4015 266.928 62.9944C267.146 62.5837 267.255 62.1148 267.255 61.5878C267.255 61.0571 267.146 60.5864 266.928 60.1757C266.709 59.765 266.395 59.4433 265.984 59.2107C265.577 58.9781 265.087 58.8618 264.512 58.8618H261.77V69.395H261.088ZM279.43 63.8122C279.43 64.9644 279.23 65.9712 278.831 66.8326C278.431 67.6904 277.875 68.3573 277.162 68.8335C276.453 69.3096 275.636 69.5477 274.709 69.5477C273.778 69.5477 272.957 69.3096 272.245 68.8335C271.536 68.3537 270.982 67.6849 270.582 66.8271C270.182 65.9657 269.982 64.9607 269.982 63.8122C269.982 62.66 270.182 61.655 270.582 60.7972C270.985 59.9395 271.541 59.2725 272.25 58.7964C272.959 58.3166 273.778 58.0767 274.709 58.0767C275.636 58.0767 276.453 58.3148 277.162 58.7909C277.875 59.267 278.431 59.9358 278.831 60.7972C279.23 61.655 279.43 62.66 279.43 63.8122ZM278.765 63.8122C278.765 62.7763 278.591 61.8785 278.242 61.1189C277.896 60.3593 277.418 59.7723 276.808 59.3579C276.197 58.9399 275.498 58.7309 274.709 58.7309C273.92 58.7309 273.22 58.9381 272.61 59.3525C271.999 59.7632 271.519 60.3502 271.171 61.1135C270.825 61.8731 270.653 62.7727 270.653 63.8122C270.653 64.8408 270.823 65.7367 271.165 66.5C271.51 67.2597 271.988 67.8485 272.599 68.2665C273.21 68.6844 273.913 68.8934 274.709 68.8934C275.498 68.8934 276.197 68.6863 276.808 68.2719C277.418 67.8539 277.896 67.2651 278.242 66.5055C278.591 65.7458 278.765 64.8481 278.765 63.8122ZM290.599 61.7186H289.901C289.828 61.3406 289.692 60.9753 289.492 60.6228C289.292 60.2666 289.034 59.9467 288.718 59.6632C288.405 59.3761 288.042 59.1489 287.627 58.9817C287.213 58.8145 286.755 58.7309 286.253 58.7309C285.519 58.7309 284.843 58.9272 284.225 59.3197C283.611 59.7087 283.119 60.2811 282.748 61.0371C282.381 61.7931 282.197 62.7182 282.197 63.8122C282.197 64.9135 282.381 65.8421 282.748 66.5982C283.119 67.3542 283.611 67.9266 284.225 68.3155C284.843 68.7008 285.519 68.8934 286.253 68.8934C286.755 68.8934 287.213 68.8117 287.627 68.6481C288.042 68.4809 288.405 68.2556 288.718 67.9721C289.034 67.6849 289.292 67.3632 289.492 67.007C289.692 66.6509 289.828 66.2838 289.901 65.9057H290.599C290.519 66.3564 290.364 66.7981 290.135 67.2306C289.91 67.6631 289.612 68.0556 289.241 68.4082C288.874 68.7571 288.44 69.0352 287.938 69.2424C287.44 69.4459 286.879 69.5477 286.253 69.5477C285.323 69.5477 284.503 69.3114 283.795 68.8389C283.086 68.3628 282.53 67.694 282.126 66.8326C281.726 65.9712 281.527 64.9644 281.527 63.8122C281.527 62.66 281.726 61.6532 282.126 60.7918C282.53 59.9304 283.086 59.2634 283.795 58.7909C284.503 58.3148 285.323 58.0767 286.253 58.0767C286.879 58.0767 287.44 58.1803 287.938 58.3875C288.44 58.591 288.874 58.8672 289.241 59.2162C289.612 59.5615 289.91 59.9504 290.135 60.3829C290.364 60.8154 290.519 61.2607 290.599 61.7186ZM292.477 58.8618V58.2294H300.3V58.8618H296.729V69.395H296.048V58.8618H292.477ZM311.2 63.8122C311.2 64.9644 311 65.9712 310.601 66.8326C310.201 67.6904 309.645 68.3573 308.932 68.8335C308.224 69.3096 307.406 69.5477 306.479 69.5477C305.548 69.5477 304.727 69.3096 304.015 68.8335C303.306 68.3537 302.752 67.6849 302.352 66.8271C301.952 65.9657 301.752 64.9607 301.752 63.8122C301.752 62.66 301.952 61.655 302.352 60.7972C302.755 59.9395 303.311 59.2725 304.02 58.7964C304.729 58.3166 305.548 58.0767 306.479 58.0767C307.406 58.0767 308.224 58.3148 308.932 58.7909C309.645 59.267 310.201 59.9358 310.601 60.7972C311 61.655 311.2 62.66 311.2 63.8122ZM310.535 63.8122C310.535 62.7763 310.361 61.8785 310.012 61.1189C309.667 60.3593 309.189 59.7723 308.578 59.3579C307.967 58.9399 307.268 58.7309 306.479 58.7309C305.69 58.7309 304.991 58.9381 304.38 59.3525C303.769 59.7632 303.29 60.3502 302.941 61.1135C302.595 61.8731 302.423 62.7727 302.423 63.8122C302.423 64.8408 302.593 65.7367 302.935 66.5C303.28 67.2597 303.758 67.8485 304.369 68.2665C304.98 68.6844 305.683 68.8934 306.479 68.8934C307.268 68.8934 307.967 68.6863 308.578 68.2719C309.189 67.8539 309.667 67.2651 310.012 66.5055C310.361 65.7458 310.535 64.8481 310.535 63.8122ZM147.702 81.8122C147.702 82.9644 147.502 83.9712 147.102 84.8326C146.703 85.6904 146.146 86.3573 145.434 86.8335C144.725 87.3096 143.908 87.5477 142.981 87.5477C142.05 87.5477 141.229 87.3096 140.516 86.8335C139.808 86.3537 139.253 85.6849 138.854 84.8271C138.454 83.9657 138.254 82.9607 138.254 81.8122C138.254 80.66 138.454 79.655 138.854 78.7972C139.257 77.9395 139.813 77.2725 140.522 76.7964C141.231 76.3166 142.05 76.0767 142.981 76.0767C143.908 76.0767 144.725 76.3148 145.434 76.7909C146.146 77.267 146.703 77.9358 147.102 78.7972C147.502 79.655 147.702 80.66 147.702 81.8122ZM147.037 81.8122C147.037 80.7763 146.862 79.8785 146.514 79.1189C146.168 78.3593 145.69 77.7723 145.08 77.3579C144.469 76.9399 143.769 76.7309 142.981 76.7309C142.192 76.7309 141.492 76.9381 140.882 77.3525C140.271 77.7632 139.791 78.3502 139.442 79.1135C139.097 79.8731 138.924 80.7727 138.924 81.8122C138.924 82.8408 139.095 83.7367 139.437 84.5C139.782 85.2597 140.26 85.8485 140.871 86.2665C141.481 86.6844 142.185 86.8934 142.981 86.8934C143.769 86.8934 144.469 86.6863 145.08 86.2719C145.69 85.8539 146.168 85.2651 146.514 84.5055C146.862 83.7458 147.037 82.8481 147.037 81.8122ZM150.365 87.395V76.2294H151.047V81.4905H157.775V76.2294H158.456V87.395H157.775V82.1229H151.047V87.395H150.365ZM160.535 87.395V86.7462H160.807C161.265 86.7462 161.632 86.5881 161.909 86.2719C162.188 85.9557 162.397 85.4523 162.536 84.7617C162.677 84.0711 162.766 83.1625 162.803 82.0357L163.01 76.2294H169.302V87.395H168.62V76.8618H163.664L163.473 82.2265C163.433 83.4151 163.323 84.391 163.141 85.1543C162.963 85.9175 162.683 86.4827 162.301 86.8498C161.92 87.2133 161.402 87.395 160.747 87.395H160.535ZM172.094 87.395H171.375L175.404 76.2294H176.189L180.218 87.395H179.498L175.823 77.1071H175.769L172.094 87.395ZM173.114 83.1915H178.479V83.824H173.114V83.1915ZM182.3 76.2294H182.976V86.1683H183.042L190.168 76.2294H190.833V87.395H190.151V77.467H190.086L182.971 87.395H182.3V76.2294ZM187.507 73.4379H188.139C188.139 73.8923 188 74.2557 187.72 74.5283C187.44 74.8009 187.056 74.9372 186.569 74.9372C186.086 74.9372 185.704 74.8009 185.424 74.5283C185.145 74.2557 185.005 73.8923 185.005 73.4379H185.637C185.637 73.7251 185.713 73.9559 185.866 74.1303C186.019 74.3048 186.253 74.392 186.569 74.392C186.886 74.392 187.12 74.3048 187.273 74.1303C187.429 73.9559 187.507 73.7251 187.507 73.4379ZM194.055 87.395V76.2294H194.736V81.4905H201.464V76.2294H202.146V87.395H201.464V82.1229H194.736V87.395H194.055ZM209.387 81.496V82.1284H204.982V81.496H209.387ZM212.226 76.2294H212.908V86.7462H217.368V76.2294H218.049V86.7462H222.503V76.2294H223.19V87.395H212.226V76.2294ZM232.809 87.395L228.954 81.9866H227.106V87.395H226.425V76.2294H227.106V81.3597H228.54L232.296 76.2294H233.114L229.347 81.3815L233.627 87.395H232.809ZM244.017 81.8122C244.017 82.9644 243.817 83.9712 243.417 84.8326C243.017 85.6904 242.461 86.3573 241.749 86.8335C241.04 87.3096 240.222 87.5477 239.295 87.5477C238.365 87.5477 237.544 87.3096 236.831 86.8335C236.122 86.3537 235.568 85.6849 235.168 84.8271C234.769 83.9657 234.569 82.9607 234.569 81.8122C234.569 80.66 234.769 79.655 235.168 78.7972C235.572 77.9395 236.128 77.2725 236.837 76.7964C237.545 76.3166 238.365 76.0767 239.295 76.0767C240.222 76.0767 241.04 76.3148 241.749 76.7909C242.461 77.267 243.017 77.9358 243.417 78.7972C243.817 79.655 244.017 80.66 244.017 81.8122ZM243.352 81.8122C243.352 80.7763 243.177 79.8785 242.828 79.1189C242.483 78.3593 242.005 77.7723 241.394 77.3579C240.784 76.9399 240.084 76.7309 239.295 76.7309C238.507 76.7309 237.807 76.9381 237.196 77.3525C236.586 77.7632 236.106 78.3502 235.757 79.1135C235.412 79.8731 235.239 80.7727 235.239 81.8122C235.239 82.8408 235.41 83.7367 235.752 84.5C236.097 85.2597 236.575 85.8485 237.186 86.2665C237.796 86.6844 238.499 86.8934 239.295 86.8934C240.084 86.8934 240.784 86.6863 241.394 86.2719C242.005 85.8539 242.483 85.2651 242.828 84.5055C243.177 83.7458 243.352 82.8481 243.352 81.8122ZM245.53 87.395V86.7462H245.802C246.26 86.7462 246.627 86.5881 246.904 86.2719C247.184 85.9557 247.393 85.4523 247.531 84.7617C247.672 84.0711 247.762 83.1625 247.798 82.0357L248.005 76.2294H254.297V87.395H253.615V76.8618H248.659L248.468 82.2265C248.428 83.4151 248.318 84.391 248.136 85.1543C247.958 85.9175 247.678 86.4827 247.296 86.8498C246.915 87.2133 246.397 87.395 245.742 87.395H245.53ZM257.089 87.395H256.37L260.399 76.2294H261.184L265.213 87.395H264.493L260.819 77.1071H260.764L257.089 87.395ZM258.109 83.1915H263.474V83.824H258.109V83.1915Z" fill="black" fill-opacity="0.87"/>
<path d="M137.854 47.6523L144.359 29.3868H147.362L153.867 47.6523H150.915L149.339 42.7982H142.283L140.706 47.6523H137.854ZM142.958 40.6464H148.663L145.836 31.8889H145.785L142.958 40.6464ZM159.174 39.9958L164.554 34.6413H167.707L161.251 40.8716L167.932 47.6523H164.779L159.174 41.7723H159.124V47.6523H156.472V34.6413H159.124V39.9958H159.174ZM178.548 41.1969H177.296C175.795 41.1969 174.636 41.4554 173.819 41.9725C173.018 42.4896 172.617 43.1735 172.617 44.0243C172.617 44.6414 172.801 45.1335 173.168 45.5005C173.552 45.8508 174.052 46.026 174.669 46.026C175.72 46.026 176.629 45.6673 177.397 44.95C178.164 44.2161 178.548 43.3237 178.548 42.2728V41.1969ZM170.165 44.1494C170.165 42.6981 170.774 41.5388 171.992 40.6714C173.226 39.7873 174.995 39.3453 177.296 39.3453H178.548V39.2202C178.548 38.1693 178.331 37.4353 177.897 37.0183C177.48 36.6013 176.738 36.3928 175.67 36.3928C174.085 36.3928 172.626 36.7681 171.291 37.5187L170.916 35.517C172.317 34.7664 173.902 34.3911 175.67 34.3911C177.555 34.3911 178.923 34.7747 179.774 35.542C180.624 36.2927 181.05 37.4937 181.05 39.1451V44.1494C181.05 45.3337 181.175 46.5014 181.425 47.6523H179.048C178.915 46.9184 178.839 46.2512 178.823 45.6506H178.773C178.306 46.3512 177.655 46.9017 176.821 47.302C176.004 47.7024 175.078 47.9026 174.044 47.9026C172.859 47.9026 171.917 47.5689 171.216 46.9017C170.516 46.2345 170.165 45.317 170.165 44.1494ZM187.97 45.6506H193.9V36.643H189.397C189.397 40.1126 189.338 42.2311 189.221 42.9984C189.105 43.749 188.688 44.6331 187.97 45.6506ZM185.018 45.6506C185.385 45.1836 185.643 44.8583 185.794 44.6748C185.96 44.4746 186.136 44.166 186.319 43.749C186.502 43.332 186.611 43.0151 186.644 42.7982C186.694 42.5814 186.744 42.1226 186.794 41.422C186.861 40.7048 186.894 40.0626 186.894 39.4954C186.894 38.9116 186.894 37.9608 186.894 36.643V34.6413H196.403V45.6506H198.154V50.6549H195.652V47.6523H186.394V50.6549H183.892V45.6506H185.018ZM202.547 40.196H209.578C209.561 38.9616 209.244 38.0108 208.627 37.3436C208.026 36.6763 207.192 36.3427 206.125 36.3427C205.057 36.3427 204.198 36.6847 203.548 37.3686C202.914 38.0358 202.58 38.9783 202.547 40.196ZM202.547 42.1477C202.597 43.3153 202.997 44.2411 203.748 44.925C204.515 45.6089 205.474 45.9509 206.625 45.9509C207.876 45.9509 209.127 45.634 210.378 45.0001L211.004 46.9017C209.553 47.5689 208.01 47.9026 206.375 47.9026C204.507 47.9026 202.972 47.2937 201.771 46.076C200.587 44.8416 199.994 43.1986 199.994 41.1468C199.994 39.045 200.545 37.3936 201.646 36.1926C202.764 34.9916 204.256 34.3911 206.125 34.3911C207.976 34.3911 209.419 34.9582 210.453 36.0925C211.488 37.2268 212.005 38.8699 212.005 41.0217C212.005 41.2719 211.988 41.6472 211.955 42.1477H202.547ZM227.157 38.1443L223.404 44.0993H221.177L217.424 38.1443H217.374V47.6523H214.847V34.6413H217.749L222.278 42.2227H222.303L226.832 34.6413H229.76V47.6523H227.182V38.1443H227.157ZM235.971 34.6413V44.0993H236.021L242.426 34.6413H245.129V47.6523H242.526V38.1943H242.476L236.096 47.6523H233.369V34.6413H235.971ZM251.591 41.6222V41.5722C250.623 41.3386 249.831 40.9383 249.213 40.3712C248.596 39.804 248.288 39.0784 248.288 38.1943C248.288 35.7089 250.281 34.4661 254.268 34.4661C255.802 34.4661 257.279 34.5579 258.697 34.7414V47.6523H256.069V42.3979H254.693C253.909 42.3979 253.367 42.498 253.067 42.6981C252.767 42.8816 252.425 43.3654 252.041 44.1494L250.465 47.6523H247.862L249.614 43.9992C249.981 43.2486 250.306 42.7065 250.59 42.3729C250.873 42.0392 251.207 41.789 251.591 41.6222ZM256.069 40.5463V36.4678C255.586 36.4011 255.018 36.3677 254.368 36.3677C251.983 36.3677 250.79 37.06 250.79 38.4445C250.79 39.8457 252.058 40.5463 254.593 40.5463H256.069ZM272.73 31.6387V36.8432H280.487V38.995H272.73V45.4004H280.987V47.6523H269.978V29.3868H280.987V31.6387H272.73ZM287.712 31.7638V47.6523H284.834V29.3868H295.593V31.7638H287.712ZM300.084 39.2452V37.0934H310.693C310.426 35.3419 309.7 33.9574 308.516 32.9398C307.348 31.9056 305.872 31.3885 304.087 31.3885C302.469 31.3885 300.926 31.8472 299.458 32.7647L298.582 30.7129C300.25 29.662 302.169 29.1366 304.337 29.1366C307.173 29.1366 309.425 29.9873 311.093 31.6888C312.761 33.3735 313.595 35.6505 313.595 38.5196C313.595 41.3887 312.744 43.674 311.043 45.3754C309.358 47.0602 307.123 47.9026 304.337 47.9026C302.169 47.9026 300.25 47.3771 298.582 46.3262L299.458 44.2745C300.926 45.1919 302.469 45.6506 304.087 45.6506C305.922 45.6506 307.456 45.0752 308.691 43.9242C309.925 42.7732 310.617 41.2135 310.768 39.2452H300.084ZM317.826 37.894V34.1409H321.079V37.894H317.826ZM317.826 47.6523V43.8992H321.079V47.6523H317.826Z" fill="#2F2F2F"/>
<defs>
<filter id="filter0_d_75_4638" x="0.000426769" y="0" width="767.21" height="117.24" filterUnits="userSpaceOnUse" color-interpolation-filters="sRGB">
<feFlood flood-opacity="0" result="BackgroundImageFix"/>
<feColorMatrix in="SourceAlpha" type="matrix" values="0 0 0 0 0 0 0 0 0 0 0 0 0 0 0 0 0 0 127 0" result="hardAlpha"/>
<feOffset dy="1.60504"/>
<feGaussianBlur stdDeviation="0.802521"/>
<feComposite in2="hardAlpha" operator="out"/>
<feColorMatrix type="matrix" values="0 0 0 0 0 0 0 0 0 0 0 0 0 0 0 0 0 0 0.25 0"/>
<feBlend mode="normal" in2="BackgroundImageFix" result="effect1_dropShadow_75_4638"/>
<feBlend mode="normal" in="SourceGraphic" in2="effect1_dropShadow_75_4638" result="shape"/>
</filter>
<linearGradient id="paint0_linear_75_4638" x1="74.4441" y1="20.9058" x2="74.4441" y2="91.2928" gradientUnits="userSpaceOnUse">
<stop stop-opacity="0"/>
<stop offset="1"/>
</linearGradient>
</defs>
</svg>
