<svg width="190" height="47" viewBox="0 0 190 47" fill="none" xmlns="http://www.w3.org/2000/svg">
<path d="M2.74694 33.2578V10.5734H16.4373V13.0102H5.49388V20.6751H15.7284V23.1119H5.49388V30.821H16.6146V33.2578H2.74694ZM33.2074 10.5734V13.0102H22.2639V33.2578H19.517V10.5734H33.2074ZM48.5099 20.9852V23.422H39.1614V20.9852H48.5099ZM33.7561 26.1689H36.5917C36.8354 27.7639 37.3744 28.9897 38.2088 29.8463C39.0432 30.7029 40.3798 31.1311 42.2185 31.1311C43.5181 31.1311 44.6036 30.7656 45.4749 30.0346C46.3537 29.3035 47.0108 28.3362 47.4465 27.1326C47.8896 25.9289 48.1111 24.6182 48.1111 23.2005V20.6751C48.1111 19.1096 47.8637 17.7324 47.369 16.5436C46.8816 15.3473 46.1764 14.4169 45.2534 13.7523C44.3378 13.0804 43.2375 12.7444 41.9526 12.7444C40.8302 12.7444 39.8998 12.9437 39.1614 13.3425C38.423 13.7412 37.847 14.3135 37.4335 15.0593C37.02 15.8051 36.7394 16.7023 36.5917 17.7509H33.7561C33.9038 16.3036 34.2989 15.0187 34.9413 13.8963C35.5911 12.7665 36.4957 11.8804 37.655 11.238C38.8217 10.5882 40.2543 10.2633 41.9526 10.2633C43.7987 10.2633 45.3937 10.6952 46.7376 11.5592C48.0816 12.4158 49.1191 13.6231 49.8501 15.1812C50.5811 16.7319 50.9467 18.5484 50.9467 20.6307V23.2448C50.9467 25.3271 50.5848 27.1437 49.8612 28.6943C49.1375 30.2377 48.1222 31.4376 46.8152 32.2942C45.5082 33.1434 43.9759 33.568 42.2185 33.568C40.4167 33.568 38.9177 33.243 37.7215 32.5932C36.5326 31.936 35.6133 31.0499 34.9634 29.9349C34.321 28.8125 33.9186 27.5572 33.7561 26.1689ZM60.1128 9.51007L52.8024 36.6693H50.4099L57.7203 9.51007H60.1128ZM80.8344 21.9156C80.8344 24.3081 80.4024 26.3757 79.5384 28.1184C78.6745 29.8611 77.4893 31.205 75.9829 32.1502C74.4765 33.0954 72.756 33.568 70.8213 33.568C68.8866 33.568 67.1661 33.0954 65.6597 32.1502C64.1533 31.205 62.9682 29.8611 62.1042 28.1184C61.2403 26.3757 60.8083 24.3081 60.8083 21.9156C60.8083 19.5231 61.2403 17.4555 62.1042 15.7128C62.9682 13.9702 64.1533 12.6262 65.6597 11.681C67.1661 10.7359 68.8866 10.2633 70.8213 10.2633C72.756 10.2633 74.4765 10.7359 75.9829 11.681C77.4893 12.6262 78.6745 13.9702 79.5384 15.7128C80.4024 17.4555 80.8344 19.5231 80.8344 21.9156ZM78.176 21.9156C78.176 19.9514 77.8474 18.2936 77.1902 16.9423C76.5404 15.591 75.658 14.5683 74.543 13.8742C73.4353 13.18 72.1948 12.833 70.8213 12.833C69.4478 12.833 68.2036 13.18 67.0886 13.8742C65.9809 14.5683 65.0985 15.591 64.4413 16.9423C63.7915 18.2936 63.4666 19.9514 63.4666 21.9156C63.4666 23.8798 63.7915 25.5376 64.4413 26.8889C65.0985 28.2402 65.9809 29.2629 67.0886 29.9571C68.2036 30.6512 69.4478 30.9982 70.8213 30.9982C72.1948 30.9982 73.4353 30.6512 74.543 29.9571C75.658 29.2629 76.5404 28.2402 77.1902 26.8889C77.8474 25.5376 78.176 23.8798 78.176 21.9156ZM97.2721 10.5734V13.0102H86.3287V33.2578H83.5817V10.5734H97.2721ZM112.575 20.9852V23.422H103.226V20.9852H112.575ZM97.8209 26.1689H100.656C100.9 27.7639 101.439 28.9897 102.274 29.8463C103.108 30.7029 104.445 31.1311 106.283 31.1311C107.583 31.1311 108.668 30.7656 109.54 30.0346C110.418 29.3035 111.076 28.3362 111.511 27.1326C111.954 25.9289 112.176 24.6182 112.176 23.2005V20.6751C112.176 19.1096 111.928 17.7324 111.434 16.5436C110.946 15.3473 110.241 14.4169 109.318 13.7523C108.402 13.0804 107.302 12.7444 106.017 12.7444C104.895 12.7444 103.965 12.9437 103.226 13.3425C102.488 13.7412 101.912 14.3135 101.498 15.0593C101.085 15.8051 100.804 16.7023 100.656 17.7509H97.8209C97.9685 16.3036 98.3636 15.0187 99.006 13.8963C99.6558 12.7665 100.56 11.8804 101.72 11.238C102.886 10.5882 104.319 10.2633 106.017 10.2633C107.863 10.2633 109.458 10.6952 110.802 11.5592C112.146 12.4158 113.184 13.6231 113.915 15.1812C114.646 16.7319 115.011 18.5484 115.011 20.6307V23.2448C115.011 25.3271 114.65 27.1437 113.926 28.6943C113.202 30.2377 112.187 31.4376 110.88 32.2942C109.573 33.1434 108.041 33.568 106.283 33.568C104.481 33.568 102.982 33.243 101.786 32.5932C100.597 31.936 99.678 31.0499 99.0282 29.9349C98.3857 28.8125 97.9833 27.5572 97.8209 26.1689Z" fill="black" fill-opacity="0.87"/>
<path d="M174.676 16.748L165.728 25.6765L156.78 16.748L154.031 19.4968L165.728 31.1934L177.425 19.4968L174.676 16.748Z" fill="black" fill-opacity="0.87"/>
</svg>
