<svg width="47" height="47" viewBox="0 0 47 47" fill="none" xmlns="http://www.w3.org/2000/svg">
<rect width="33.7431" height="33.7431" fill="white" fill-opacity="0.01"/>
<path fill-rule="evenodd" clip-rule="evenodd" d="M41.4259 32.4194H18.1914C17.8638 32.4194 17.5455 32.5271 17.2847 32.7251L11.244 37.327V33.9153C11.244 33.0888 10.575 32.4194 9.74857 32.4194H4.9286V8.78536H41.4259V32.4194ZM42.9185 5.79297H3.42947C2.60347 5.79297 1.93359 6.46241 1.93359 7.28841V33.9142C1.93359 34.7407 2.60347 35.4101 3.42947 35.4101H8.24944V40.3456C8.24944 40.9143 8.57173 41.4342 9.08155 41.6863C9.29132 41.7905 9.51897 41.8415 9.74532 41.8415C10.0667 41.8415 10.386 41.7382 10.6516 41.5358L18.6923 35.4101H42.9185C43.7441 35.4101 44.4144 34.7407 44.4144 33.9142V7.28841C44.4144 6.46241 43.7441 5.79297 42.9185 5.79297Z" fill="#212121"/>
<path fill-rule="evenodd" clip-rule="evenodd" d="M12.3709 18.4703H33.9774C34.803 18.4703 35.4733 17.8008 35.4733 16.9744C35.4733 16.1484 34.803 15.4785 33.9774 15.4785H12.3709C11.5449 15.4785 10.875 16.1484 10.875 16.9744C10.875 17.8008 11.5449 18.4703 12.3709 18.4703Z" fill="#212121"/>
<path fill-rule="evenodd" clip-rule="evenodd" d="M12.3709 25.7242H33.9774C34.803 25.7242 35.4733 25.0547 35.4733 24.2283C35.4733 23.4023 34.803 22.7324 33.9774 22.7324H12.3709C11.5449 22.7324 10.875 23.4023 10.875 24.2283C10.875 25.0547 11.5449 25.7242 12.3709 25.7242Z" fill="#212121"/>
</svg>
