<svg width="206" height="91" viewBox="0 0 206 91" fill="none" xmlns="http://www.w3.org/2000/svg">
<g filter="url(#filter0_d_74_3933)">
<rect x="3.36719" width="198.696" height="83.3512" rx="41.6756" fill="white"/>
</g>
<rect x="102.508" y="8.92383" width="89.2447" height="65.6707" rx="32.8353" fill="url(#paint0_linear_74_3933)"/>
<path d="M127.654 51.7847C125.423 51.7847 123.53 51.3139 121.974 50.3723C120.439 49.4102 119.272 48.0898 118.473 46.4113C117.675 44.7327 117.276 42.829 117.276 40.7001C117.276 38.5507 117.675 36.6368 118.473 34.9582C119.272 33.2797 120.449 31.9696 122.005 31.028C123.56 30.0659 125.454 29.5848 127.685 29.5848C129.937 29.5848 131.83 30.0556 133.365 30.9973C134.901 31.9389 136.068 33.249 136.866 34.9275C137.664 36.6061 138.063 38.52 138.063 40.6694C138.063 42.7983 137.664 44.702 136.866 46.3806C136.068 48.0591 134.89 49.3795 133.335 50.3416C131.799 51.3037 129.906 51.7847 127.654 51.7847ZM127.685 48.8063C129.323 48.8063 130.663 48.4276 131.707 47.6702C132.751 46.9128 133.519 45.92 134.01 44.6918C134.502 43.4636 134.747 42.133 134.747 40.7001C134.747 39.6152 134.604 38.5814 134.317 37.5989C134.051 36.6163 133.632 35.7463 133.058 34.9889C132.485 34.2315 131.748 33.6379 130.848 33.208C129.947 32.7782 128.893 32.5632 127.685 32.5632C126.068 32.5632 124.727 32.9419 123.663 33.6993C122.619 34.4567 121.841 35.4495 121.329 36.6777C120.817 37.9059 120.561 39.2467 120.561 40.7001C120.561 42.133 120.807 43.4636 121.298 44.6918C121.81 45.92 122.588 46.9128 123.632 47.6702C124.696 48.4276 126.047 48.8063 127.685 48.8063ZM142.411 51.5391V29.8305H156.72V32.8089H145.666V51.5391H142.411ZM167.432 51.7847C165.815 51.7847 164.382 51.5288 163.133 51.0171C161.885 50.5053 160.861 49.7786 160.063 48.837C159.264 47.8749 158.712 46.7388 158.405 45.4287H161.813C162.018 46.1042 162.376 46.6979 162.888 47.2096C163.42 47.7214 164.075 48.1205 164.853 48.4071C165.631 48.6732 166.511 48.8063 167.493 48.8063C168.926 48.8063 170.124 48.5197 171.086 47.9465C172.048 47.3529 172.785 46.5546 173.297 45.5515C173.808 44.5485 174.085 43.4124 174.126 42.1433H164.607V39.2263H174.126C174.064 38.0185 173.778 36.9131 173.266 35.9101C172.775 34.9071 172.058 34.0985 171.117 33.4844C170.175 32.8498 168.988 32.5325 167.555 32.5325C166.552 32.5325 165.661 32.6758 164.883 32.9624C164.126 33.249 163.491 33.6481 162.98 34.1599C162.468 34.6512 162.11 35.2448 161.905 35.9408H158.681C158.988 34.4669 159.582 33.2592 160.462 32.3176C161.342 31.3759 162.417 30.6902 163.686 30.2603C164.955 29.81 166.296 29.5848 167.708 29.5848C169.407 29.5848 170.871 29.8714 172.099 30.4446C173.327 30.9973 174.341 31.7854 175.139 32.8089C175.958 33.8324 176.562 35.0299 176.951 36.4014C177.34 37.7524 177.534 39.216 177.534 40.7922C177.534 42.9621 177.155 44.876 176.398 46.5341C175.661 48.1717 174.535 49.4613 173.02 50.403C171.526 51.3241 169.663 51.7847 167.432 51.7847Z" fill="white"/>
<path d="M34.8407 51.6289V29.9203H49.7942V32.8987H38.0955V39.4082H48.4432V42.3559H38.0955V48.6505H49.7942V51.6289H34.8407ZM54.1607 51.6289V29.9203H68.4693V32.8987H57.4154V51.6289H54.1607ZM79.1815 51.8745C77.5644 51.8745 76.1315 51.6187 74.8828 51.1069C73.6341 50.5952 72.6106 49.8685 71.8123 48.9268C71.0139 47.9647 70.4612 46.8287 70.1542 45.5186H73.5625C73.7672 46.1941 74.1254 46.7877 74.6371 47.2995C75.1694 47.8112 75.8244 48.2104 76.6023 48.497C77.3801 48.7631 78.2604 48.8961 79.2429 48.8961C80.6758 48.8961 81.8733 48.6096 82.8354 48.0364C83.7975 47.4428 84.5345 46.6444 85.0462 45.6414C85.558 44.6383 85.8343 43.5023 85.8753 42.2331H76.3566V39.3161H85.8753C85.8138 38.1084 85.5273 37.003 85.0155 35.9999C84.5242 34.9969 83.8078 34.1883 82.8661 33.5742C81.9245 32.9396 80.7372 32.6224 79.3043 32.6224C78.3013 32.6224 77.4108 32.7656 76.633 33.0522C75.8756 33.3388 75.241 33.738 74.7293 34.2497C74.2175 34.741 73.8593 35.3347 73.6546 36.0306H70.4305C70.7376 34.5568 71.3312 33.349 72.2114 32.4074C73.0916 31.4658 74.1663 30.78 75.4355 30.3502C76.7046 29.8998 78.0454 29.6747 79.4579 29.6747C81.1569 29.6747 82.6205 29.9612 83.8487 30.5344C85.0769 31.0871 86.0902 31.8752 86.8885 32.8987C87.7073 33.9222 88.3112 35.1197 88.7001 36.4912C89.0891 37.8423 89.2835 39.3059 89.2835 40.8821C89.2835 43.0519 88.9048 44.9659 88.1474 46.624C87.4105 48.2616 86.2847 49.5512 84.7699 50.4928C83.2755 51.414 81.4128 51.8745 79.1815 51.8745Z" fill="#191919"/>
<defs>
<filter id="filter0_d_74_3933" x="-0.000539064" y="0" width="205.431" height="90.087" filterUnits="userSpaceOnUse" color-interpolation-filters="sRGB">
<feFlood flood-opacity="0" result="BackgroundImageFix"/>
<feColorMatrix in="SourceAlpha" type="matrix" values="0 0 0 0 0 0 0 0 0 0 0 0 0 0 0 0 0 0 127 0" result="hardAlpha"/>
<feOffset dy="3.36773"/>
<feGaussianBlur stdDeviation="1.68386"/>
<feComposite in2="hardAlpha" operator="out"/>
<feColorMatrix type="matrix" values="0 0 0 0 0 0 0 0 0 0 0 0 0 0 0 0 0 0 0.25 0"/>
<feBlend mode="normal" in2="BackgroundImageFix" result="effect1_dropShadow_74_3933"/>
<feBlend mode="normal" in="SourceGraphic" in2="effect1_dropShadow_74_3933" result="shape"/>
</filter>
<linearGradient id="paint0_linear_74_3933" x1="147.13" y1="8.92383" x2="147.13" y2="74.5945" gradientUnits="userSpaceOnUse">
<stop stop-color="#1841EC"/>
<stop offset="1" stop-color="#0E2586"/>
</linearGradient>
</defs>
</svg>
