<svg width="37" height="37" viewBox="0 0 37 37" fill="none" xmlns="http://www.w3.org/2000/svg">
<g clip-path="url(#clip0_74_4102)">
<path d="M31.1997 5.3514C24.0608 -1.78531 12.4881 -1.7836 5.3514 5.35533C-1.78531 12.4943 -1.7836 24.0669 5.35533 31.2036C12.4943 38.3403 24.0669 38.3386 31.2036 31.1997C34.6311 27.7712 36.5561 23.1215 36.555 18.2736C36.554 13.4265 34.6277 8.77829 31.1997 5.3514ZM27.6806 25.4604C27.6799 25.4611 27.6791 25.462 27.6782 25.4628V25.4567L26.7521 26.3767C25.5545 27.5895 23.8102 28.0885 22.1523 27.6926C20.4819 27.2455 18.8941 26.5339 17.4489 25.5847C16.1062 24.7265 14.8619 23.7234 13.7386 22.5932C12.705 21.5672 11.7764 20.4405 10.9664 19.2302C10.0806 17.9277 9.37938 16.509 8.88281 15.0141C8.31357 13.2581 8.78529 11.3311 10.1013 10.0366L11.1858 8.95214C11.4873 8.64928 11.9772 8.6482 12.28 8.94971C12.2808 8.9505 12.2816 8.95128 12.2824 8.95214L15.7064 12.3761C16.0093 12.6776 16.0103 13.1675 15.7088 13.4703C15.708 13.4711 15.7072 13.4719 15.7064 13.4727L13.6959 15.4833C13.119 16.0539 13.0464 16.9606 13.5253 17.6157C14.2525 18.6136 15.0572 19.5527 15.9319 20.4243C16.9071 21.4037 17.9672 22.2947 19.0999 23.0868C19.7544 23.5433 20.6417 23.4663 21.2079 22.904L23.1514 20.93C23.4529 20.6272 23.9428 20.6261 24.2456 20.9276C24.2464 20.9284 24.2472 20.9292 24.248 20.93L27.6781 24.3662C27.9811 24.6676 27.9821 25.1575 27.6806 25.4604Z" fill="#1841EC"/>
</g>
<defs>
<clipPath id="clip0_74_4102">
<rect width="36.555" height="36.555" fill="white"/>
</clipPath>
</defs>
</svg>
