<svg width="37" height="37" viewBox="0 0 37 37" fill="none" xmlns="http://www.w3.org/2000/svg">
<g clip-path="url(#clip0_74_4106)">
<path fill-rule="evenodd" clip-rule="evenodd" d="M18.2775 0C28.3719 0 36.555 8.1831 36.555 18.2775C36.555 28.3719 28.3719 36.555 18.2775 36.555C8.1831 36.555 0 28.3719 0 18.2775C0 8.1831 8.1831 0 18.2775 0ZM29.8794 25.3629V11.7788L23.087 18.5709L29.8794 25.3629ZM8.12663 25.6397H28.4288L22.2239 19.4348L19.859 21.7993C19.7443 21.9136 19.589 21.9778 19.427 21.9777H17.1281C17.0479 21.9778 16.9684 21.9621 16.8943 21.9315C16.8202 21.9009 16.7528 21.8559 16.6961 21.7993L14.3313 19.4348L8.12634 25.6397H8.12663ZM6.67557 11.7784V25.3633L13.468 18.5709L6.67557 11.7784ZM29.0159 10.9153H7.53946L17.381 20.7569H19.1743L29.0159 10.9153Z" fill="#1841EC"/>
</g>
<defs>
<clipPath id="clip0_74_4106">
<rect width="36.555" height="36.555" fill="white"/>
</clipPath>
</defs>
</svg>
