<svg width="28" height="27" viewBox="0 0 28 27" fill="none" xmlns="http://www.w3.org/2000/svg">
<path d="M12.1013 1.31922C12.7591 -0.44007 15.2476 -0.440072 15.9055 1.31922L18.0707 7.10978C18.3561 7.87301 19.0701 8.39174 19.8841 8.42731L26.0604 8.69719C27.9368 8.77919 28.7058 11.1459 27.2359 12.3152L22.3979 16.1638C21.7602 16.6711 21.4875 17.5104 21.7052 18.2956L23.3571 24.253C23.859 26.0629 21.8458 27.5256 20.2795 26.489L15.1241 23.077C14.4446 22.6273 13.5621 22.6273 12.8826 23.077L7.7273 26.489C6.16101 27.5256 4.14779 26.0629 4.64967 24.253L6.30157 18.2956C6.5193 17.5104 6.24659 16.6711 5.6089 16.1638L0.770846 12.3152C-0.699056 11.1459 0.0699229 8.77919 1.94639 8.69719L8.12264 8.42731C8.93671 8.39174 9.65068 7.87301 9.93607 7.10978L12.1013 1.31922Z" fill="#0224BC"/>
<path d="M12.1013 1.31922C12.7591 -0.44007 15.2476 -0.440072 15.9055 1.31922L18.0707 7.10978C18.3561 7.87301 19.0701 8.39174 19.8841 8.42731L26.0604 8.69719C27.9368 8.77919 28.7058 11.1459 27.2359 12.3152L22.3979 16.1638C21.7602 16.6711 21.4875 17.5104 21.7052 18.2956L23.3571 24.253C23.859 26.0629 21.8458 27.5256 20.2795 26.489L15.1241 23.077C14.4446 22.6273 13.5621 22.6273 12.8826 23.077L7.7273 26.489C6.16101 27.5256 4.14779 26.0629 4.64967 24.253L6.30157 18.2956C6.5193 17.5104 6.24659 16.6711 5.6089 16.1638L0.770846 12.3152C-0.699056 11.1459 0.0699229 8.77919 1.94639 8.69719L8.12264 8.42731C8.93671 8.39174 9.65068 7.87301 9.93607 7.10978L12.1013 1.31922Z" fill="url(#paint0_linear_74_4093)"/>
<defs>
<linearGradient id="paint0_linear_74_4093" x1="32.3857" y1="1.37946" x2="-4.37891" y2="22.7029" gradientUnits="userSpaceOnUse">
<stop stop-color="#FF851A"/>
<stop offset="1" stop-color="#EECE4D"/>
</linearGradient>
</defs>
</svg>
