<svg width="30" height="33" viewBox="0 0 30 33" fill="none" xmlns="http://www.w3.org/2000/svg">
<path d="M6.28106 28.7031C7.644 29.8473 9.25804 30.6513 10.9909 31.05C11.1567 31.1042 11.2683 30.8869 11.1567 30.7782C7.44473 27.2295 9.48377 23.3895 10.9899 21.6582C12.0638 20.4223 13.5931 18.3866 13.4812 15.6567C13.4812 15.3834 13.7601 15.1645 13.9802 15.3291C16.0864 16.421 17.5264 18.8234 17.914 20.7878C18.5245 20.1884 18.746 19.2599 18.746 18.4415C18.7459 18.1682 19.0776 17.9493 19.355 18.1683C21.3497 19.9698 24.7845 26.0838 19.2447 30.8863C19.1347 30.9964 19.2448 31.2154 19.3563 31.161C21.0362 30.7199 22.616 29.96 24.0099 28.9223C33.0395 21.9354 27.1647 9.54294 23.3411 5.44919C22.8435 4.95689 21.9572 5.28447 21.9572 5.99411C21.9016 7.46933 21.4585 9.10599 20.2964 10.1975C19.4095 6.48608 16.4553 2.26977 12.2445 0.194707C11.6912 -0.0786545 11.0264 0.357631 11.0823 0.958593C11.1913 6.03647 7.88607 9.26918 5.00558 13.4725C2.45668 17.2379 0.796106 24.1713 6.28106 28.7031Z" fill="#191919"/>
</svg>
