<svg width="53" height="32" viewBox="0 0 53 32" fill="none" xmlns="http://www.w3.org/2000/svg">
<path d="M51.792 2.16858C51.1958 4.04346 50.392 5.67542 49.385 7.15721L49.4269 7.09096C48.4376 8.73985 47.2561 10.6449 45.8825 12.8061C44.7048 14.5124 44.0813 15.3958 44.0121 15.4561C43.7073 15.8382 43.4953 16.3063 43.4225 16.8209L43.4203 16.8363C43.4799 17.3045 43.6963 17.713 44.0121 18.0178L44.8954 19.0027C49.6213 23.8596 52.2794 27.2074 52.8697 29.0462C52.947 29.2494 52.9912 29.4835 52.9912 29.7286C52.9912 30.157 52.8543 30.5523 52.6224 30.8769L52.6268 30.8703C52.2381 31.27 51.6949 31.5173 51.0942 31.5173C51.028 31.5173 50.9595 31.5151 50.8955 31.5085H50.9043H45.0942C45.092 31.5085 45.0875 31.5085 45.0831 31.5085C44.3389 31.5085 43.6543 31.2479 43.1177 30.8151L43.1243 30.8195C42.3426 30.1769 41.647 29.4813 41.0242 28.726L41.0043 28.6995C39.987 27.5497 39.0846 26.5817 38.2969 25.7955C35.6734 23.3016 33.7374 22.0546 32.489 22.0546C32.4426 22.0502 32.3896 22.048 32.3344 22.048C31.97 22.048 31.63 22.1606 31.3495 22.3528L31.3561 22.3483C31.1265 22.6354 30.9873 23.0064 30.9873 23.4061C30.9873 23.4856 30.9918 23.5607 31.0028 23.638V23.6292C30.9432 24.3226 30.9078 25.1286 30.9078 25.9435C30.9078 26.2063 30.9123 26.4669 30.9189 26.7275V26.6899V29.2494C30.941 29.3532 30.9542 29.4724 30.9542 29.5939C30.9542 30.1283 30.7113 30.6053 30.3315 30.9211L30.3293 30.9233C29.4746 31.3142 28.4765 31.5438 27.4231 31.5438C27.1978 31.5438 26.977 31.5328 26.7584 31.5129L26.7871 31.5151C23.3112 31.4489 20.087 30.4308 17.3465 28.715L17.4238 28.7591C14.087 26.7319 11.3221 24.0929 9.21538 20.9748L9.15575 20.882C7.155 18.2276 5.28896 15.2287 3.69896 12.0663L3.54438 11.7263C2.61467 9.95517 1.65183 7.77775 0.8215 5.5385L0.689 5.12996C0.351125 4.12296 0.106 2.95254 0.00441667 1.74017L0 1.68496C0 0.569014 0.656611 0.0110419 1.96983 0.0110419H7.77775C7.83075 0.00662525 7.89258 0.00441635 7.95663 0.00441635C8.50429 0.00441635 9.01 0.192125 9.40971 0.507917L9.40529 0.5035C9.84696 0.987125 10.1738 1.58117 10.335 2.24367L10.3416 2.27017C11.4105 5.28896 12.5433 7.82412 13.8463 10.2533L13.6983 9.95075C14.7627 12.0928 15.9398 13.9368 17.2824 15.6394L17.2316 15.571C18.4094 17.0167 19.3281 17.7395 19.9876 17.7395C20.0075 17.7418 20.0318 17.7418 20.0583 17.7418C20.3851 17.7418 20.67 17.5651 20.8246 17.3001L20.8268 17.2957C20.9902 16.8761 21.0852 16.388 21.0852 15.8801C21.0852 15.7719 21.0808 15.6637 21.0719 15.5577V15.571V7.00483C21.0255 5.99563 20.7782 5.05267 20.3653 4.20687L20.3829 4.24883C20.1091 3.66583 19.78 3.16233 19.3892 2.71404L19.3958 2.72287C19.0336 2.36071 18.7863 1.88592 18.709 1.35592L18.7068 1.34267C18.7068 0.96725 18.879 0.629375 19.1485 0.408542L19.1507 0.406333C19.4179 0.161208 19.7756 0.0132501 20.1665 0.0132501H20.1842H29.3399C29.3885 0.00662509 29.4437 0.00441635 29.5011 0.00441635C29.9318 0.00441635 30.3182 0.19875 30.5744 0.5035L30.5766 0.505709C30.804 0.920875 30.9388 1.41775 30.9388 1.94333C30.9388 2.02725 30.9343 2.10896 30.9277 2.19067V2.17963V13.6033C30.9233 13.6563 30.9211 13.7182 30.9211 13.78C30.9211 14.1863 31.0337 14.5684 31.228 14.893L31.2236 14.8842C31.3848 15.1227 31.6543 15.2773 31.959 15.2773C32.3477 15.2508 32.7032 15.1227 33.0013 14.9195L32.9947 14.9239C33.5954 14.511 34.1121 14.0406 34.5604 13.5084L34.5693 13.4973C35.9097 11.9824 37.1464 10.3085 38.224 8.52858L38.3102 8.374C39.0698 7.11525 39.8913 5.565 40.6355 3.97279L40.7725 3.64817L41.7574 1.67833C42.0997 0.693416 43.0183 0 44.0982 0C44.1402 0 44.1821 -1.60163e-07 44.2241 0.00220817H44.2175H50.0276C51.597 0.00220817 52.1859 0.724333 51.7943 2.16858H51.792Z" fill="#1841EC"/>
</svg>
