<svg width="483" height="67" viewBox="0 0 483 67" fill="none" xmlns="http://www.w3.org/2000/svg">
<g filter="url(#filter0_d_74_4071)">
<rect x="3.86328" width="475.129" height="58.373" rx="29.1865" fill="url(#paint0_linear_74_4071)" shape-rendering="crispEdges"/>
<path d="M148.096 39.1563C146.64 39.1563 145.339 38.9053 144.194 38.4033C143.055 37.9013 142.154 37.2049 141.489 36.314C140.832 35.4161 140.478 34.3768 140.429 33.196H143.759C143.801 33.8394 144.017 34.398 144.406 34.8717C144.802 35.3383 145.318 35.6989 145.954 35.9535C146.591 36.208 147.298 36.3353 148.075 36.3353C148.931 36.3353 149.687 36.1868 150.345 35.8898C151.009 35.5929 151.529 35.1792 151.904 34.649C152.279 34.1116 152.466 33.493 152.466 32.793C152.466 32.0647 152.279 31.4249 151.904 30.8734C151.536 30.3148 150.995 29.8765 150.281 29.5583C149.574 29.2401 148.719 29.0811 147.715 29.0811H145.88V26.4084H147.715C148.521 26.4084 149.228 26.2635 149.836 25.9736C150.451 25.6837 150.932 25.2807 151.278 24.7646C151.625 24.2414 151.798 23.6298 151.798 22.9298C151.798 22.2581 151.646 21.6748 151.342 21.1799C151.045 20.6779 150.621 20.2855 150.069 20.0027C149.525 19.7199 148.881 19.5785 148.139 19.5785C147.432 19.5785 146.771 19.7093 146.156 19.9709C145.548 20.2254 145.053 20.5931 144.671 21.0739C144.289 21.5476 144.084 22.1167 144.056 22.7813H140.885C140.92 21.6077 141.267 20.5754 141.924 19.6845C142.589 18.7937 143.465 18.0972 144.554 17.5952C145.643 17.0932 146.852 16.8422 148.181 16.8422C149.574 16.8422 150.776 17.1144 151.787 17.6589C152.805 18.1962 153.59 18.9139 154.142 19.8118C154.7 20.7097 154.976 21.6925 154.969 22.7601C154.976 23.9762 154.637 25.0085 153.951 25.857C153.272 26.7054 152.367 27.2746 151.236 27.5645V27.7341C152.678 27.9533 153.795 28.526 154.587 29.4522C155.386 30.3785 155.782 31.5274 155.775 32.8991C155.782 34.0939 155.45 35.1651 154.778 36.1125C154.113 37.06 153.205 37.8059 152.052 38.3503C150.9 38.8877 149.581 39.1563 148.096 39.1563ZM161.916 38.8594H158.437L166.253 17.1392H170.039L177.856 38.8594H174.377L168.236 21.0845H168.067L161.916 38.8594ZM162.499 30.3537H173.783V33.1112H162.499V30.3537ZM197.972 17.1392V38.8594H194.705V19.9391H184.482V38.8594H181.215V17.1392H197.972ZM202.983 17.1392H206.228V33.09H206.43L217.481 17.1392H220.514V38.8594H217.237V22.9298H217.035L206.005 38.8594H202.983V17.1392ZM243.334 24.2025H240.025C239.898 23.4955 239.661 22.8733 239.315 22.3359C238.968 21.7986 238.544 21.3425 238.042 20.9678C237.54 20.5931 236.978 20.3103 236.356 20.1194C235.741 19.9285 235.087 19.833 234.394 19.833C233.142 19.833 232.022 20.1476 231.032 20.7769C230.049 21.4062 229.271 22.3288 228.699 23.5449C228.133 24.7611 227.85 26.2458 227.85 27.9993C227.85 29.7669 228.133 31.2587 228.699 32.4748C229.271 33.6909 230.053 34.6101 231.043 35.2323C232.032 35.8545 233.146 36.1656 234.383 36.1656C235.069 36.1656 235.72 36.0736 236.335 35.8898C236.957 35.6989 237.519 35.4196 238.021 35.052C238.523 34.6843 238.947 34.2354 239.294 33.7051C239.647 33.1677 239.891 32.5526 240.025 31.8597L243.334 31.8703C243.158 32.9379 242.815 33.9207 242.306 34.8187C241.804 35.7095 241.157 36.4802 240.365 37.1307C239.58 37.7741 238.682 38.2725 237.671 38.6261C236.66 38.9796 235.557 39.1563 234.362 39.1563C232.481 39.1563 230.806 38.7109 229.335 37.82C227.864 36.9221 226.705 35.6388 225.856 33.9702C225.015 32.3016 224.594 30.3113 224.594 27.9993C224.594 25.6802 225.019 23.6899 225.867 22.0284C226.715 20.3597 227.875 19.08 229.346 18.1891C230.816 17.2912 232.488 16.8422 234.362 16.8422C235.515 16.8422 236.589 17.0084 237.586 17.3407C238.59 17.6659 239.492 18.1467 240.291 18.7831C241.09 19.4123 241.751 20.183 242.274 21.0951C242.797 22.0001 243.151 23.0359 243.334 24.2025ZM248.945 38.8594H245.466L253.282 17.1392H257.069L264.885 38.8594H261.406L255.266 21.0845H255.096L248.945 38.8594ZM249.528 30.3537H260.812V33.1112H249.528V30.3537ZM264.384 19.9603V17.1392H281.194V19.9603H274.417V38.8594H271.15V19.9603H264.384ZM287.21 25.8994H293.064C294.676 25.8994 296.048 26.161 297.179 26.6842C298.31 27.2074 299.173 27.9463 299.767 28.9008C300.368 29.8553 300.665 30.9794 300.657 32.2733C300.665 33.5672 300.368 34.7091 299.767 35.6989C299.173 36.6888 298.31 37.463 297.179 38.0215C296.048 38.5801 294.676 38.8594 293.064 38.8594H284.929V17.1392H288.217V36.1019H293.064C294.004 36.1019 294.796 35.9181 295.44 35.5504C296.09 35.1828 296.581 34.7055 296.914 34.1187C297.253 33.5318 297.423 32.9026 297.423 32.2309C297.423 31.2552 297.048 30.4174 296.299 29.7174C295.549 29.0103 294.471 28.6568 293.064 28.6568H287.21V25.8994ZM322.693 24.2025H319.384C319.257 23.4955 319.02 22.8733 318.674 22.3359C318.327 21.7986 317.903 21.3425 317.401 20.9678C316.899 20.5931 316.337 20.3103 315.715 20.1194C315.1 19.9285 314.446 19.833 313.753 19.833C312.501 19.833 311.381 20.1476 310.391 20.7769C309.408 21.4062 308.63 22.3288 308.057 23.5449C307.492 24.7611 307.209 26.2458 307.209 27.9993C307.209 29.7669 307.492 31.2587 308.057 32.4748C308.63 33.6909 309.411 34.6101 310.401 35.2323C311.391 35.8545 312.505 36.1656 313.742 36.1656C314.428 36.1656 315.078 36.0736 315.693 35.8898C316.316 35.6989 316.878 35.4196 317.38 35.052C317.882 34.6843 318.306 34.2354 318.652 33.7051C319.006 33.1677 319.25 32.5526 319.384 31.8597L322.693 31.8703C322.516 32.9379 322.173 33.9207 321.664 34.8187C321.162 35.7095 320.515 36.4802 319.724 37.1307C318.939 37.7741 318.041 38.2725 317.03 38.6261C316.019 38.9796 314.916 39.1563 313.721 39.1563C311.84 39.1563 310.164 38.7109 308.694 37.82C307.223 36.9221 306.064 35.6388 305.215 33.9702C304.374 32.3016 303.953 30.3113 303.953 27.9993C303.953 25.6802 304.377 23.6899 305.226 22.0284C306.074 20.3597 307.234 19.08 308.704 18.1891C310.175 17.2912 311.847 16.8422 313.721 16.8422C314.873 16.8422 315.948 17.0084 316.945 17.3407C317.949 17.6659 318.85 18.1467 319.649 18.7831C320.448 19.4123 321.109 20.183 321.633 21.0951C322.156 22.0001 322.509 23.0359 322.693 24.2025ZM342.014 38.8594H338.726V19.9497H334.611C333.536 19.9497 332.663 20.1123 331.992 20.4375C331.32 20.7557 330.828 21.2153 330.517 21.8162C330.206 22.4172 330.051 23.1278 330.051 23.948C330.051 24.7611 330.206 25.4575 330.517 26.0373C330.828 26.617 331.316 27.0589 331.981 27.3629C332.646 27.667 333.512 27.819 334.579 27.819H340.147V30.6401H334.272C332.596 30.6401 331.2 30.3608 330.083 29.8022C328.973 29.2437 328.138 28.4624 327.58 27.4584C327.028 26.4473 326.752 25.2772 326.752 23.948C326.752 22.6117 327.028 21.4344 327.58 20.4163C328.131 19.3911 328.962 18.5886 330.072 18.0088C331.189 17.4291 332.585 17.1392 334.261 17.1392H342.014V38.8594ZM331.292 29.0598H334.919L329.648 38.8594H325.925L331.292 29.0598Z" fill="white"/>
</g>
<defs>
<filter id="filter0_d_74_4071" x="0.00112057" y="0" width="482.853" height="66.0974" filterUnits="userSpaceOnUse" color-interpolation-filters="sRGB">
<feFlood flood-opacity="0" result="BackgroundImageFix"/>
<feColorMatrix in="SourceAlpha" type="matrix" values="0 0 0 0 0 0 0 0 0 0 0 0 0 0 0 0 0 0 127 0" result="hardAlpha"/>
<feOffset dy="3.86216"/>
<feGaussianBlur stdDeviation="1.93108"/>
<feComposite in2="hardAlpha" operator="out"/>
<feColorMatrix type="matrix" values="0 0 0 0 0 0 0 0 0 0 0 0 0 0 0 0 0 0 0.25 0"/>
<feBlend mode="normal" in2="BackgroundImageFix" result="effect1_dropShadow_74_4071"/>
<feBlend mode="normal" in="SourceGraphic" in2="effect1_dropShadow_74_4071" result="shape"/>
</filter>
<linearGradient id="paint0_linear_74_4071" x1="241.428" y1="0" x2="241.428" y2="58.373" gradientUnits="userSpaceOnUse">
<stop stop-color="#0904FB"/>
<stop offset="1" stop-color="#050295"/>
</linearGradient>
</defs>
</svg>
