<svg width="359" height="107" viewBox="0 0 359 107" fill="none" xmlns="http://www.w3.org/2000/svg">
<g filter="url(#filter0_d_74_4080)">
<rect x="6.48047" width="352" height="100" rx="30" fill="white"/>
</g>
<path d="M97.0544 56.4052V43.2243H99.2912V56.4052H97.0544ZM91.5824 50.9332V48.6964H104.763V50.9332H91.5824ZM109.566 60L118.713 41.9062V41.7465H108.168V39.5497H121.269V41.8663L112.163 60H109.566ZM139.41 39.2701C140.249 39.2767 141.088 39.4365 141.927 39.7494C142.766 40.0623 143.531 40.5815 144.224 41.3071C144.916 42.0261 145.472 43.008 145.891 44.2528C146.31 45.4977 146.52 47.0588 146.52 48.936C146.52 50.7534 146.347 52.3677 146.001 53.779C145.661 55.1837 145.169 56.3686 144.523 57.3339C143.884 58.2991 143.105 59.0314 142.186 59.5307C141.274 60.03 140.243 60.2796 139.091 60.2796C137.946 60.2796 136.924 60.0533 136.025 59.6006C135.133 59.1412 134.401 58.5055 133.829 57.6933C133.263 56.8745 132.9 55.9259 132.74 54.8475H135.177C135.396 55.7861 135.832 56.5617 136.485 57.1741C137.144 57.7799 138.013 58.0828 139.091 58.0828C140.669 58.0828 141.914 57.3938 142.826 56.0158C143.744 54.6378 144.204 52.6906 144.204 50.1743H144.044C143.671 50.7334 143.228 51.2161 142.716 51.6222C142.203 52.0282 141.634 52.3411 141.008 52.5608C140.382 52.7805 139.717 52.8903 139.011 52.8903C137.839 52.8903 136.764 52.6007 135.786 52.0216C134.814 51.4358 134.035 50.6336 133.449 49.6151C132.87 48.5899 132.58 47.4183 132.58 46.1002C132.58 44.8486 132.86 43.7036 133.419 42.6651C133.985 41.62 134.777 40.7879 135.796 40.1688C136.821 39.5497 138.026 39.2501 139.41 39.2701ZM139.41 41.4669C138.572 41.4669 137.816 41.6766 137.144 42.096C136.478 42.5087 135.949 43.0679 135.556 43.7735C135.17 44.4725 134.977 45.2481 134.977 46.1002C134.977 46.9523 135.163 47.7278 135.536 48.4268C135.916 49.1191 136.431 49.6716 137.084 50.0844C137.743 50.4905 138.492 50.6935 139.331 50.6935C139.963 50.6935 140.552 50.5703 141.098 50.324C141.644 50.0711 142.12 49.7282 142.526 49.2955C142.939 48.8562 143.262 48.3602 143.495 47.8077C143.728 47.2485 143.844 46.666 143.844 46.0602C143.844 45.2614 143.651 44.5125 143.265 43.8135C142.885 43.1145 142.36 42.5486 141.687 42.1159C141.021 41.6832 140.263 41.4669 139.41 41.4669ZM156.997 60.2796C155.626 60.2796 154.415 60.0366 153.363 59.5507C152.318 59.058 151.502 58.3823 150.916 57.5236C150.33 56.6582 150.041 55.6729 150.048 54.5679C150.041 53.7025 150.211 52.9036 150.557 52.1714C150.903 51.4324 151.376 50.8167 151.975 50.324C152.581 49.8248 153.256 49.5086 154.002 49.3754V49.2556C153.023 49.0026 152.244 48.4534 151.665 47.608C151.086 46.7559 150.8 45.7873 150.806 44.7022C150.8 43.6637 151.063 42.735 151.595 41.9162C152.128 41.0974 152.86 40.4517 153.792 39.979C154.731 39.5064 155.799 39.2701 156.997 39.2701C158.182 39.2701 159.241 39.5064 160.173 39.979C161.105 40.4517 161.837 41.0974 162.37 41.9162C162.909 42.735 163.182 43.6637 163.188 44.7022C163.182 45.7873 162.886 46.7559 162.3 47.608C161.721 48.4534 160.952 49.0026 159.993 49.2556V49.3754C160.732 49.5086 161.398 49.8248 161.99 50.324C162.583 50.8167 163.055 51.4324 163.408 52.1714C163.761 52.9036 163.941 53.7025 163.947 54.5679C163.941 55.6729 163.641 56.6582 163.049 57.5236C162.463 58.3823 161.647 59.058 160.602 59.5507C159.564 60.0366 158.362 60.2796 156.997 60.2796ZM156.997 58.0828C157.923 58.0828 158.722 57.933 159.394 57.6334C160.066 57.3339 160.586 56.9111 160.952 56.3653C161.318 55.8194 161.504 55.1803 161.511 54.4481C161.504 53.6758 161.305 52.9935 160.912 52.401C160.519 51.8085 159.983 51.3426 159.304 51.0031C158.632 50.6635 157.863 50.4938 156.997 50.4938C156.125 50.4938 155.347 50.6635 154.661 51.0031C153.982 51.3426 153.446 51.8085 153.053 52.401C152.667 52.9935 152.477 53.6758 152.484 54.4481C152.477 55.1803 152.654 55.8194 153.013 56.3653C153.379 56.9111 153.902 57.3339 154.581 57.6334C155.26 57.933 156.065 58.0828 156.997 58.0828ZM156.997 48.3769C157.73 48.3769 158.379 48.2304 158.945 47.9375C159.517 47.6446 159.967 47.2352 160.293 46.7093C160.619 46.1834 160.785 45.5676 160.792 44.862C160.785 44.1696 160.622 43.5672 160.303 43.0546C159.983 42.5353 159.54 42.1359 158.975 41.8563C158.409 41.5701 157.75 41.4269 156.997 41.4269C156.232 41.4269 155.563 41.5701 154.99 41.8563C154.418 42.1359 153.975 42.5353 153.662 43.0546C153.349 43.5672 153.196 44.1696 153.203 44.862C153.196 45.5676 153.353 46.1834 153.672 46.7093C153.998 47.2352 154.448 47.6446 155.02 47.9375C155.593 48.2304 156.252 48.3769 156.997 48.3769ZM174.325 60.2796C172.954 60.2796 171.742 60.0366 170.69 59.5507C169.645 59.058 168.829 58.3823 168.244 57.5236C167.658 56.6582 167.368 55.6729 167.375 54.5679C167.368 53.7025 167.538 52.9036 167.884 52.1714C168.23 51.4324 168.703 50.8167 169.302 50.324C169.908 49.8248 170.584 49.5086 171.329 49.3754V49.2556C170.351 49.0026 169.572 48.4534 168.993 47.608C168.413 46.7559 168.127 45.7873 168.134 44.7022C168.127 43.6637 168.39 42.735 168.923 41.9162C169.455 41.0974 170.188 40.4517 171.119 39.979C172.058 39.5064 173.127 39.2701 174.325 39.2701C175.51 39.2701 176.568 39.5064 177.5 39.979C178.432 40.4517 179.164 41.0974 179.697 41.9162C180.236 42.735 180.509 43.6637 180.516 44.7022C180.509 45.7873 180.213 46.7559 179.627 47.608C179.048 48.4534 178.279 49.0026 177.32 49.2556V49.3754C178.059 49.5086 178.725 49.8248 179.318 50.324C179.91 50.8167 180.383 51.4324 180.736 52.1714C181.088 52.9036 181.268 53.7025 181.275 54.5679C181.268 55.6729 180.969 56.6582 180.376 57.5236C179.79 58.3823 178.975 59.058 177.93 59.5507C176.891 60.0366 175.69 60.2796 174.325 60.2796ZM174.325 58.0828C175.25 58.0828 176.049 57.933 176.721 57.6334C177.394 57.3339 177.913 56.9111 178.279 56.3653C178.645 55.8194 178.832 55.1803 178.838 54.4481C178.832 53.6758 178.632 52.9935 178.239 52.401C177.846 51.8085 177.311 51.3426 176.631 51.0031C175.959 50.6635 175.19 50.4938 174.325 50.4938C173.453 50.4938 172.674 50.6635 171.988 51.0031C171.309 51.3426 170.773 51.8085 170.381 52.401C169.994 52.9935 169.805 53.6758 169.811 54.4481C169.805 55.1803 169.981 55.8194 170.341 56.3653C170.707 56.9111 171.229 57.3339 171.908 57.6334C172.587 57.933 173.393 58.0828 174.325 58.0828ZM174.325 48.3769C175.057 48.3769 175.706 48.2304 176.272 47.9375C176.845 47.6446 177.294 47.2352 177.62 46.7093C177.946 46.1834 178.113 45.5676 178.119 44.862C178.113 44.1696 177.95 43.5672 177.63 43.0546C177.311 42.5353 176.868 42.1359 176.302 41.8563C175.736 41.5701 175.077 41.4269 174.325 41.4269C173.559 41.4269 172.89 41.5701 172.318 41.8563C171.745 42.1359 171.303 42.5353 170.99 43.0546C170.677 43.5672 170.524 44.1696 170.53 44.862C170.524 45.5676 170.68 46.1834 171 46.7093C171.326 47.2352 171.775 47.6446 172.348 47.9375C172.92 48.2304 173.579 48.3769 174.325 48.3769ZM193.01 60V58.2026L199.76 50.8133C200.553 49.9479 201.205 49.1957 201.718 48.5566C202.23 47.9109 202.61 47.3051 202.856 46.7392C203.109 46.1667 203.235 45.5676 203.235 44.9418C203.235 44.2229 203.062 43.6005 202.716 43.0746C202.377 42.5486 201.911 42.1426 201.318 41.8563C200.726 41.5701 200.06 41.4269 199.321 41.4269C198.536 41.4269 197.85 41.59 197.264 41.9162C196.685 42.2358 196.236 42.6851 195.916 43.2643C195.603 43.8434 195.447 44.5225 195.447 45.3013H193.09C193.09 44.1031 193.366 43.0513 193.919 42.1459C194.471 41.2405 195.224 40.5349 196.176 40.029C197.134 39.523 198.209 39.2701 199.401 39.2701C200.599 39.2701 201.661 39.523 202.586 40.029C203.512 40.5349 204.237 41.2172 204.763 42.076C205.289 42.9348 205.552 43.89 205.552 44.9418C205.552 45.6941 205.416 46.4297 205.143 47.1486C204.876 47.8609 204.41 48.6565 203.745 49.5352C203.086 50.4072 202.17 51.4724 200.999 52.7305L196.405 57.6434V57.8032H205.912V60H193.01ZM216.426 60.2796C215.255 60.2796 214.2 60.0466 213.261 59.5806C212.322 59.1146 211.57 58.4755 211.004 57.6634C210.438 56.8512 210.129 55.9259 210.075 54.8874H212.472C212.565 55.8127 212.985 56.5783 213.73 57.1841C214.482 57.7832 215.381 58.0828 216.426 58.0828C217.265 58.0828 218.011 57.8864 218.663 57.4936C219.322 57.1009 219.838 56.5617 220.211 55.876C220.59 55.1837 220.78 54.4015 220.78 53.5294C220.78 52.6373 220.584 51.8418 220.191 51.1428C219.805 50.4372 219.272 49.8813 218.593 49.4753C217.914 49.0692 217.139 48.8628 216.267 48.8562C215.641 48.8495 214.998 48.946 214.339 49.1457C213.68 49.3388 213.138 49.5884 212.712 49.8947L210.395 49.6151L211.633 39.5497H222.258V41.7465H213.71L212.991 47.7777H213.111C213.53 47.4449 214.056 47.1686 214.689 46.9489C215.321 46.7292 215.98 46.6194 216.666 46.6194C217.917 46.6194 219.032 46.919 220.011 47.5181C220.996 48.1106 221.769 48.9227 222.328 49.9546C222.894 50.9864 223.176 52.1647 223.176 53.4894C223.176 54.7942 222.884 55.9592 222.298 56.9844C221.719 58.0029 220.92 58.8084 219.901 59.4009C218.883 59.9867 217.724 60.2796 216.426 60.2796ZM233.694 60.2796C232.322 60.2796 231.111 60.0366 230.059 59.5507C229.014 59.058 228.198 58.3823 227.613 57.5236C227.027 56.6582 226.737 55.6729 226.744 54.5679C226.737 53.7025 226.907 52.9036 227.253 52.1714C227.599 51.4324 228.072 50.8167 228.671 50.324C229.277 49.8248 229.952 49.5086 230.698 49.3754V49.2556C229.719 49.0026 228.941 48.4534 228.361 47.608C227.782 46.7559 227.496 45.7873 227.503 44.7022C227.496 43.6637 227.759 42.735 228.292 41.9162C228.824 41.0974 229.556 40.4517 230.488 39.979C231.427 39.5064 232.495 39.2701 233.694 39.2701C234.879 39.2701 235.937 39.5064 236.869 39.979C237.801 40.4517 238.533 41.0974 239.066 41.9162C239.605 42.735 239.878 43.6637 239.885 44.7022C239.878 45.7873 239.582 46.7559 238.996 47.608C238.417 48.4534 237.648 49.0026 236.689 49.2556V49.3754C237.428 49.5086 238.094 49.8248 238.686 50.324C239.279 50.8167 239.752 51.4324 240.104 52.1714C240.457 52.9036 240.637 53.7025 240.644 54.5679C240.637 55.6729 240.337 56.6582 239.745 57.5236C239.159 58.3823 238.344 59.058 237.299 59.5507C236.26 60.0366 235.058 60.2796 233.694 60.2796ZM233.694 58.0828C234.619 58.0828 235.418 57.933 236.09 57.6334C236.763 57.3339 237.282 56.9111 237.648 56.3653C238.014 55.8194 238.201 55.1803 238.207 54.4481C238.201 53.6758 238.001 52.9935 237.608 52.401C237.215 51.8085 236.679 51.3426 236 51.0031C235.328 50.6635 234.559 50.4938 233.694 50.4938C232.822 50.4938 232.043 50.6635 231.357 51.0031C230.678 51.3426 230.142 51.8085 229.749 52.401C229.363 52.9935 229.174 53.6758 229.18 54.4481C229.174 55.1803 229.35 55.8194 229.71 56.3653C230.076 56.9111 230.598 57.3339 231.277 57.6334C231.956 57.933 232.762 58.0828 233.694 58.0828ZM233.694 48.3769C234.426 48.3769 235.075 48.2304 235.641 47.9375C236.213 47.6446 236.663 47.2352 236.989 46.7093C237.315 46.1834 237.482 45.5676 237.488 44.862C237.482 44.1696 237.318 43.5672 236.999 43.0546C236.679 42.5353 236.237 42.1359 235.671 41.8563C235.105 41.5701 234.446 41.4269 233.694 41.4269C232.928 41.4269 232.259 41.5701 231.687 41.8563C231.114 42.1359 230.671 42.5353 230.359 43.0546C230.046 43.5672 229.893 44.1696 229.899 44.862C229.893 45.5676 230.049 46.1834 230.369 46.7093C230.695 47.2352 231.144 47.6446 231.717 47.9375C232.289 48.2304 232.948 48.3769 233.694 48.3769ZM252.379 60V58.2026L259.129 50.8133C259.922 49.9479 260.574 49.1957 261.086 48.5566C261.599 47.9109 261.979 47.3051 262.225 46.7392C262.478 46.1667 262.604 45.5676 262.604 44.9418C262.604 44.2229 262.431 43.6005 262.085 43.0746C261.746 42.5486 261.28 42.1426 260.687 41.8563C260.095 41.5701 259.429 41.4269 258.69 41.4269C257.904 41.4269 257.219 41.59 256.633 41.9162C256.054 42.2358 255.604 42.6851 255.285 43.2643C254.972 43.8434 254.816 44.5225 254.816 45.3013H252.459C252.459 44.1031 252.735 43.0513 253.288 42.1459C253.84 41.2405 254.593 40.5349 255.545 40.029C256.503 39.523 257.578 39.2701 258.77 39.2701C259.968 39.2701 261.03 39.523 261.955 40.029C262.881 40.5349 263.606 41.2172 264.132 42.076C264.658 42.9348 264.921 43.89 264.921 44.9418C264.921 45.6941 264.784 46.4297 264.512 47.1486C264.245 47.8609 263.779 48.6565 263.114 49.5352C262.455 50.4072 261.539 51.4724 260.368 52.7305L255.774 57.6434V57.8032H265.28V60H252.379ZM275.915 39.2701C276.754 39.2767 277.593 39.4365 278.431 39.7494C279.27 40.0623 280.036 40.5815 280.728 41.3071C281.42 42.0261 281.976 43.008 282.396 44.2528C282.815 45.4977 283.025 47.0588 283.025 48.936C283.025 50.7534 282.852 52.3677 282.505 53.779C282.166 55.1837 281.673 56.3686 281.028 57.3339C280.388 58.2991 279.61 59.0314 278.691 59.5307C277.779 60.03 276.747 60.2796 275.595 60.2796C274.45 60.2796 273.429 60.0533 272.53 59.6006C271.638 59.1412 270.906 58.5055 270.333 57.6933C269.767 56.8745 269.404 55.9259 269.245 54.8475H271.681C271.901 55.7861 272.337 56.5617 272.989 57.1741C273.648 57.7799 274.517 58.0828 275.595 58.0828C277.173 58.0828 278.418 57.3938 279.33 56.0158C280.249 54.6378 280.708 52.6906 280.708 50.1743H280.548C280.175 50.7334 279.733 51.2161 279.22 51.6222C278.708 52.0282 278.138 52.3411 277.513 52.5608C276.887 52.7805 276.221 52.8903 275.516 52.8903C274.344 52.8903 273.269 52.6007 272.29 52.0216C271.318 51.4358 270.539 50.6336 269.954 49.6151C269.374 48.5899 269.085 47.4183 269.085 46.1002C269.085 44.8486 269.364 43.7036 269.924 42.6651C270.49 41.62 271.282 40.7879 272.3 40.1688C273.325 39.5497 274.53 39.2501 275.915 39.2701ZM275.915 41.4669C275.076 41.4669 274.321 41.6766 273.648 42.096C272.983 42.5087 272.453 43.0679 272.061 43.7735C271.674 44.4725 271.481 45.2481 271.481 46.1002C271.481 46.9523 271.668 47.7278 272.041 48.4268C272.42 49.1191 272.936 49.6716 273.588 50.0844C274.247 50.4905 274.996 50.6935 275.835 50.6935C276.468 50.6935 277.057 50.5703 277.603 50.324C278.148 50.0711 278.624 49.7282 279.03 49.2955C279.443 48.8562 279.766 48.3602 279.999 47.8077C280.232 47.2485 280.349 46.666 280.349 46.0602C280.349 45.2614 280.155 44.5125 279.769 43.8135C279.39 43.1145 278.864 42.5486 278.192 42.1159C277.526 41.6832 276.767 41.4669 275.915 41.4669ZM301.371 39.2701C302.209 39.2767 303.048 39.4365 303.887 39.7494C304.726 40.0623 305.491 40.5815 306.184 41.3071C306.876 42.0261 307.432 43.008 307.851 44.2528C308.271 45.4977 308.48 47.0588 308.48 48.936C308.48 50.7534 308.307 52.3677 307.961 53.779C307.621 55.1837 307.129 56.3686 306.483 57.3339C305.844 58.2991 305.065 59.0314 304.147 59.5307C303.235 60.03 302.203 60.2796 301.051 60.2796C299.906 60.2796 298.884 60.0533 297.985 59.6006C297.093 59.1412 296.361 58.5055 295.789 57.6933C295.223 56.8745 294.86 55.9259 294.7 54.8475H297.137C297.356 55.7861 297.792 56.5617 298.445 57.1741C299.104 57.7799 299.973 58.0828 301.051 58.0828C302.629 58.0828 303.874 57.3938 304.786 56.0158C305.704 54.6378 306.164 52.6906 306.164 50.1743H306.004C305.631 50.7334 305.188 51.2161 304.676 51.6222C304.163 52.0282 303.594 52.3411 302.968 52.5608C302.342 52.7805 301.677 52.8903 300.971 52.8903C299.8 52.8903 298.724 52.6007 297.746 52.0216C296.774 51.4358 295.995 50.6336 295.409 49.6151C294.83 48.5899 294.54 47.4183 294.54 46.1002C294.54 44.8486 294.82 43.7036 295.379 42.6651C295.945 41.62 296.737 40.7879 297.756 40.1688C298.781 39.5497 299.986 39.2501 301.371 39.2701ZM301.371 41.4669C300.532 41.4669 299.776 41.6766 299.104 42.096C298.438 42.5087 297.909 43.0679 297.516 43.7735C297.13 44.4725 296.937 45.2481 296.937 46.1002C296.937 46.9523 297.123 47.7278 297.496 48.4268C297.876 49.1191 298.392 49.6716 299.044 50.0844C299.703 50.4905 300.452 50.6935 301.291 50.6935C301.923 50.6935 302.512 50.5703 303.058 50.324C303.604 50.0711 304.08 49.7282 304.486 49.2955C304.899 48.8562 305.222 48.3602 305.455 47.8077C305.688 47.2485 305.804 46.666 305.804 46.0602C305.804 45.2614 305.611 44.5125 305.225 43.8135C304.846 43.1145 304.32 42.5486 303.647 42.1159C302.982 41.6832 302.223 41.4669 301.371 41.4669ZM319.197 60.2796C318.358 60.2663 317.52 60.1065 316.681 59.8003C315.842 59.4941 315.077 58.9781 314.384 58.2525C313.692 57.5203 313.136 56.5317 312.717 55.2868C312.297 54.0353 312.088 52.4643 312.088 50.5737C312.088 48.763 312.257 47.1586 312.597 45.7607C312.936 44.356 313.429 43.1744 314.075 42.2158C314.72 41.2505 315.499 40.5183 316.411 40.019C317.33 39.5197 318.365 39.2701 319.517 39.2701C320.662 39.2701 321.68 39.4997 322.572 39.9591C323.471 40.4117 324.203 41.0442 324.769 41.8563C325.335 42.6685 325.701 43.6038 325.868 44.6622H323.431C323.205 43.7436 322.765 42.9814 322.113 42.3756C321.461 41.7698 320.595 41.4669 319.517 41.4669C317.932 41.4669 316.684 42.1559 315.772 43.5339C314.867 44.9119 314.411 46.8457 314.404 49.3355H314.564C314.937 48.7696 315.379 48.287 315.892 47.8876C316.411 47.4815 316.984 47.1686 317.609 46.9489C318.235 46.7292 318.898 46.6194 319.597 46.6194C320.768 46.6194 321.84 46.9123 322.812 47.4981C323.784 48.0773 324.563 48.8795 325.149 49.9046C325.734 50.9232 326.027 52.0915 326.027 53.4096C326.027 54.6744 325.744 55.8327 325.179 56.8845C324.613 57.9297 323.817 58.7618 322.792 59.3809C321.773 59.9933 320.575 60.2929 319.197 60.2796ZM319.197 58.0828C320.036 58.0828 320.788 57.8731 321.454 57.4537C322.126 57.0343 322.656 56.4718 323.042 55.7661C323.434 55.0605 323.631 54.275 323.631 53.4096C323.631 52.5641 323.441 51.7952 323.062 51.1029C322.689 50.4039 322.173 49.8481 321.514 49.4353C320.861 49.0226 320.116 48.8162 319.277 48.8162C318.645 48.8162 318.056 48.9427 317.51 49.1957C316.964 49.442 316.484 49.7815 316.072 50.2142C315.666 50.6469 315.346 51.1428 315.113 51.702C314.88 52.2546 314.764 52.8371 314.764 53.4495C314.764 54.2617 314.953 55.0206 315.333 55.7262C315.719 56.4318 316.245 57.001 316.911 57.4337C317.583 57.8664 318.345 58.0828 319.197 58.0828Z" fill="black" fill-opacity="0.87"/>
<g clip-path="url(#clip0_74_4080)">
<path d="M66.6802 37.3514C59.5413 30.2147 47.9686 30.2164 40.8319 37.3553C33.6952 44.4943 33.6969 56.0669 40.8358 63.2036C47.9747 70.3403 59.5474 70.3386 66.6841 63.1997C70.1115 59.7712 72.0365 55.1215 72.0355 50.2736C72.0345 45.4265 70.1081 40.7783 66.6802 37.3514ZM63.1611 57.4604C63.1603 57.4611 63.1595 57.462 63.1587 57.4628V57.4567L62.2326 58.3767C61.0349 59.5895 59.2906 60.0885 57.6327 59.6926C55.9624 59.2455 54.3746 58.5339 52.9294 57.5847C51.5867 56.7265 50.3424 55.7234 49.219 54.5932C48.1854 53.5672 47.2568 52.4405 46.4469 51.2302C45.561 49.9277 44.8598 48.509 44.3633 47.0141C43.794 45.2581 44.2658 43.3311 45.5818 42.0366L46.6662 40.9521C46.9678 40.6493 47.4577 40.6482 47.7605 40.9497C47.7613 40.9505 47.7621 40.9513 47.7629 40.9521L51.1869 44.3761C51.4897 44.6776 51.4908 45.1675 51.1893 45.4703C51.1885 45.4711 51.1877 45.4719 51.1869 45.4727L49.1763 47.4833C48.5994 48.0539 48.5269 48.9606 49.0058 49.6157C49.7329 50.6136 50.5376 51.5527 51.4123 52.4243C52.3875 53.4037 53.4477 54.2947 54.5804 55.0868C55.2349 55.5433 56.1222 55.4663 56.6884 54.904L58.6319 52.93C58.9334 52.6272 59.4233 52.6261 59.7261 52.9276C59.7269 52.9284 59.7277 52.9292 59.7285 52.93L63.1586 56.3662C63.4615 56.6676 63.4626 57.1575 63.1611 57.4604Z" fill="#1841EC"/>
</g>
<defs>
<filter id="filter0_d_74_4080" x="0.0011301" y="0" width="358.479" height="106.479" filterUnits="userSpaceOnUse" color-interpolation-filters="sRGB">
<feFlood flood-opacity="0" result="BackgroundImageFix"/>
<feColorMatrix in="SourceAlpha" type="matrix" values="0 0 0 0 0 0 0 0 0 0 0 0 0 0 0 0 0 0 127 0" result="hardAlpha"/>
<feOffset dx="-3.23967" dy="3.23967"/>
<feGaussianBlur stdDeviation="1.61983"/>
<feComposite in2="hardAlpha" operator="out"/>
<feColorMatrix type="matrix" values="0 0 0 0 0 0 0 0 0 0 0 0 0 0 0 0 0 0 0.25 0"/>
<feBlend mode="normal" in2="BackgroundImageFix" result="effect1_dropShadow_74_4080"/>
<feBlend mode="normal" in="SourceGraphic" in2="effect1_dropShadow_74_4080" result="shape"/>
</filter>
<clipPath id="clip0_74_4080">
<rect width="36.555" height="36.555" fill="white" transform="translate(35.4805 32)"/>
</clipPath>
</defs>
</svg>
