<svg width="359" height="107" viewBox="0 0 359 107" fill="none" xmlns="http://www.w3.org/2000/svg">
<g filter="url(#filter0_d_74_4076)">
<rect x="6.48047" width="352" height="100" rx="30" fill="white"/>
</g>
<path d="M141.276 62V38.9125H149.348C150.956 38.9125 152.283 39.1905 153.327 39.7467C154.372 40.2953 155.15 41.0356 155.661 41.9675C156.172 42.8919 156.427 43.9178 156.427 45.0451C156.427 46.0371 156.251 46.8563 155.898 47.5027C155.552 48.149 155.093 48.66 154.522 49.0358C153.959 49.4116 153.346 49.6897 152.685 49.87V50.0955C153.391 50.1406 154.101 50.3886 154.815 50.8395C155.529 51.2905 156.127 51.9368 156.608 52.7785C157.089 53.6202 157.329 54.6499 157.329 55.8674C157.329 57.0248 157.066 58.0657 156.54 58.9901C156.014 59.9145 155.184 60.6472 154.049 61.1883C152.914 61.7294 151.437 62 149.618 62H141.276ZM144.072 59.5199H149.618C151.445 59.5199 152.741 59.1667 153.508 58.4602C154.282 57.7462 154.669 56.882 154.669 55.8674C154.669 55.0858 154.47 54.3643 154.071 53.7029C153.673 53.034 153.106 52.5004 152.369 52.1021C151.633 51.6963 150.761 51.4934 149.754 51.4934H144.072V59.5199ZM144.072 49.0584H149.258C150.099 49.0584 150.858 48.893 151.535 48.5623C152.219 48.2317 152.76 47.7657 153.158 47.1645C153.564 46.5632 153.767 45.8568 153.767 45.0451C153.767 44.0305 153.414 43.17 152.707 42.4635C152.001 41.7496 150.881 41.3926 149.348 41.3926H144.072V49.0584ZM175.496 62L167.56 51.4032H164.719V62H161.923V38.9125H164.719V48.9231H165.936L175.18 38.9125H178.517L169.183 49.0584L178.833 62H175.496ZM187.849 62.3607C186.285 62.3607 184.914 61.9887 183.734 61.2447C182.562 60.5007 181.645 59.4598 180.983 58.122C180.329 56.7843 180.003 55.221 180.003 53.4324C180.003 51.6286 180.329 50.0542 180.983 48.7089C181.645 47.3636 182.562 46.319 183.734 45.5749C184.914 44.8309 186.285 44.4589 187.849 44.4589C189.412 44.4589 190.78 44.8309 191.952 45.5749C193.132 46.319 194.049 47.3636 194.703 48.7089C195.364 50.0542 195.695 51.6286 195.695 53.4324C195.695 55.221 195.364 56.7843 194.703 58.122C194.049 59.4598 193.132 60.5007 191.952 61.2447C190.78 61.9887 189.412 62.3607 187.849 62.3607ZM187.849 59.9708C189.036 59.9708 190.013 59.6664 190.78 59.0577C191.546 58.4489 192.114 57.6485 192.482 56.6565C192.85 55.6645 193.034 54.5897 193.034 53.4324C193.034 52.275 192.85 51.1965 192.482 50.197C192.114 49.1974 191.546 48.3895 190.78 47.7732C190.013 47.1569 189.036 46.8488 187.849 46.8488C186.661 46.8488 185.684 47.1569 184.918 47.7732C184.151 48.3895 183.584 49.1974 183.215 50.197C182.847 51.1965 182.663 52.275 182.663 53.4324C182.663 54.5897 182.847 55.6645 183.215 56.6565C183.584 57.6485 184.151 58.4489 184.918 59.0577C185.684 59.6664 186.661 59.9708 187.849 59.9708ZM211.345 52.1247V54.6048H201.785V52.1247H211.345ZM202.416 44.6844V62H199.756V44.6844H202.416ZM213.374 44.6844V62H210.714V44.6844H213.374ZM215.877 47.1645V44.6844H229.946V47.1645H224.264V62H221.603V47.1645H215.877ZM238.023 62.4058C236.926 62.4058 235.93 62.1992 235.035 61.7858C234.141 61.3649 233.431 60.7599 232.905 59.9708C232.379 59.1742 232.116 58.2122 232.116 57.0849C232.116 56.0928 232.311 55.2887 232.702 54.6724C233.093 54.0486 233.615 53.5601 234.269 53.2069C234.923 52.8537 235.644 52.5906 236.433 52.4178C237.23 52.2374 238.03 52.0946 238.835 51.9894C239.887 51.8541 240.74 51.7527 241.394 51.685C242.055 51.6099 242.536 51.4859 242.837 51.313C243.145 51.1401 243.299 50.8395 243.299 50.4111V50.321C243.299 49.2087 242.994 48.3444 242.386 47.7281C241.784 47.1119 240.871 46.8037 239.646 46.8037C238.376 46.8037 237.38 47.0818 236.659 47.6379C235.937 48.1941 235.43 48.7878 235.137 49.4191L232.612 48.5172C233.063 47.4651 233.664 46.6459 234.415 46.0597C235.175 45.466 236.001 45.0526 236.896 44.8196C237.797 44.5791 238.684 44.4589 239.556 44.4589C240.112 44.4589 240.751 44.5265 241.472 44.6618C242.201 44.7896 242.904 45.0564 243.581 45.4622C244.264 45.868 244.832 46.4806 245.283 47.2997C245.734 48.1189 245.959 49.2162 245.959 50.5915V62H243.299V59.6552H243.163C242.983 60.0309 242.682 60.433 242.262 60.8614C241.841 61.2898 241.281 61.6543 240.582 61.9549C239.883 62.2555 239.03 62.4058 238.023 62.4058ZM238.429 60.0159C239.481 60.0159 240.368 59.8092 241.089 59.3959C241.818 58.9825 242.367 58.4489 242.735 57.7951C243.111 57.1412 243.299 56.4536 243.299 55.7321V53.2971C243.186 53.4324 242.938 53.5564 242.555 53.6691C242.179 53.7743 241.743 53.8683 241.247 53.9509C240.759 54.0261 240.281 54.0937 239.815 54.1538C239.357 54.2065 238.985 54.2515 238.699 54.2891C238.008 54.3793 237.362 54.5259 236.76 54.7288C236.167 54.9242 235.686 55.221 235.317 55.6194C234.957 56.0102 234.776 56.5438 234.776 57.2202C234.776 58.1446 235.118 58.8435 235.802 59.317C236.493 59.7829 237.369 60.0159 238.429 60.0159ZM250.815 62V44.6844H253.476V52.2149H255.234L261.457 44.6844H264.884L257.895 53.0265L264.974 62H261.547L255.866 54.695H253.476V62H250.815ZM266.874 47.1645V44.6844H280.943V47.1645H275.261V62H272.601V47.1645H266.874ZM291.185 62.3607C289.516 62.3607 288.077 61.9925 286.867 61.256C285.664 60.5119 284.736 59.4748 284.082 58.1446C283.436 56.8068 283.113 55.2511 283.113 53.4775C283.113 51.7038 283.436 50.1406 284.082 48.7878C284.736 47.4275 285.646 46.3678 286.811 45.6088C287.983 44.8422 289.351 44.4589 290.914 44.4589C291.816 44.4589 292.706 44.6092 293.586 44.9098C294.465 45.2104 295.265 45.6989 295.987 46.3753C296.708 47.0442 297.283 47.931 297.712 49.0358C298.14 50.1406 298.354 51.5009 298.354 53.1167V54.244H285.007V51.9443H295.649C295.649 50.9673 295.453 50.0955 295.062 49.3289C294.679 48.5623 294.131 47.9573 293.417 47.5139C292.71 47.0705 291.876 46.8488 290.914 46.8488C289.854 46.8488 288.937 47.1119 288.163 47.6379C287.397 48.1565 286.807 48.8329 286.393 49.6671C285.98 50.5013 285.773 51.3957 285.773 52.3501V53.8833C285.773 55.191 285.999 56.2995 286.45 57.2089C286.908 58.1107 287.543 58.7984 288.355 59.2719C289.167 59.7378 290.11 59.9708 291.185 59.9708C291.883 59.9708 292.515 59.8731 293.078 59.6777C293.65 59.4748 294.142 59.1742 294.555 58.7759C294.969 58.37 295.288 57.8665 295.513 57.2653L298.084 57.9867C297.813 58.8585 297.358 59.6251 296.72 60.2865C296.081 60.9403 295.292 61.4514 294.352 61.8196C293.413 62.1804 292.357 62.3607 291.185 62.3607Z" fill="#212121"/>
<path d="M116.273 36.1686C115.676 38.0435 114.872 39.6754 113.865 41.1572L113.907 41.091C112.918 42.7398 111.737 44.6449 110.363 46.8061C109.185 48.5124 108.562 49.3958 108.493 49.4561C108.188 49.8382 107.976 50.3063 107.903 50.8209L107.901 50.8363C107.96 51.3045 108.177 51.713 108.493 52.0178L109.376 53.0027C114.102 57.8596 116.76 61.2074 117.35 63.0462C117.427 63.2494 117.472 63.4835 117.472 63.7286C117.472 64.157 117.335 64.5523 117.103 64.8769L117.107 64.8703C116.719 65.27 116.175 65.5173 115.575 65.5173C115.508 65.5173 115.44 65.5151 115.376 65.5085H115.385H109.575C109.572 65.5085 109.568 65.5085 109.564 65.5085C108.819 65.5085 108.135 65.2479 107.598 64.8151L107.605 64.8195C106.823 64.1769 106.127 63.4813 105.505 62.726L105.485 62.6995C104.467 61.5497 103.565 60.5817 102.777 59.7955C100.154 57.3016 98.2179 56.0546 96.9695 56.0546C96.9231 56.0502 96.8701 56.048 96.8149 56.048C96.4505 56.048 96.1104 56.1606 95.83 56.3528L95.8366 56.3483C95.6069 56.6354 95.4678 57.0064 95.4678 57.4061C95.4678 57.4856 95.4722 57.5607 95.4833 57.638V57.6292C95.4236 58.3226 95.3883 59.1286 95.3883 59.9435C95.3883 60.2063 95.3927 60.4669 95.3993 60.7275V60.6899V63.2494C95.4214 63.3532 95.4347 63.4724 95.4347 63.5939C95.4347 64.1283 95.1918 64.6053 94.8119 64.9211L94.8097 64.9233C93.9551 65.3142 92.9569 65.5438 91.9036 65.5438C91.6783 65.5438 91.4575 65.5328 91.2388 65.5129L91.2676 65.5151C87.7916 65.4489 84.5675 64.4308 81.8269 62.715L81.9042 62.7591C78.5674 60.7319 75.8026 58.0929 73.6958 54.9748L73.6362 54.882C71.6355 52.2276 69.7694 49.2287 68.1794 46.0663L68.0248 45.7263C67.0951 43.9552 66.1323 41.7778 65.302 39.5385L65.1695 39.13C64.8316 38.123 64.5865 36.9525 64.4849 35.7402L64.4805 35.685C64.4805 34.569 65.1371 34.011 66.4503 34.011H72.2582C72.3112 34.0066 72.3731 34.0044 72.4371 34.0044C72.9848 34.0044 73.4905 34.1921 73.8902 34.5079L73.8858 34.5035C74.3274 34.9871 74.6543 35.5812 74.8155 36.2437L74.8221 36.2702C75.8909 39.289 77.0238 41.8241 78.3267 44.2533L78.1788 43.9507C79.2432 46.0928 80.4202 47.9368 81.7629 49.6394L81.7121 49.571C82.8899 51.0167 83.8085 51.7395 84.4681 51.7395C84.488 51.7418 84.5123 51.7418 84.5388 51.7418C84.8656 51.7418 85.1505 51.5651 85.3051 51.3001L85.3073 51.2957C85.4707 50.8761 85.5656 50.388 85.5656 49.8801C85.5656 49.7719 85.5612 49.6637 85.5524 49.5577V49.571V41.0048C85.506 39.9956 85.2587 39.0527 84.8457 38.2069L84.8634 38.2488C84.5896 37.6658 84.2605 37.1623 83.8696 36.714L83.8763 36.7229C83.5141 36.3607 83.2668 35.8859 83.1895 35.3559L83.1873 35.3427C83.1873 34.9672 83.3595 34.6294 83.6289 34.4085L83.6311 34.4063C83.8983 34.1612 84.2561 34.0133 84.647 34.0133H84.6646H93.8204C93.869 34.0066 93.9242 34.0044 93.9816 34.0044C94.4122 34.0044 94.7987 34.1988 95.0548 34.5035L95.0571 34.5057C95.2845 34.9209 95.4192 35.4178 95.4192 35.9433C95.4192 36.0273 95.4148 36.109 95.4082 36.1907V36.1796V47.6033C95.4038 47.6563 95.4016 47.7182 95.4016 47.78C95.4016 48.1863 95.5142 48.5684 95.7085 48.893L95.7041 48.8842C95.8653 49.1227 96.1347 49.2773 96.4395 49.2773C96.8281 49.2508 97.1837 49.1227 97.4818 48.9195L97.4752 48.9239C98.0758 48.511 98.5926 48.0406 99.0409 47.5084L99.0497 47.4973C100.39 45.9824 101.627 44.3085 102.705 42.5286L102.791 42.374C103.55 41.1153 104.372 39.565 105.116 37.9728L105.253 37.6482L106.238 35.6783C106.58 34.6934 107.499 34 108.579 34C108.621 34 108.663 34 108.705 34.0022H108.698H114.508C116.077 34.0022 116.666 34.7243 116.275 36.1686H116.273Z" fill="#1841EC"/>
<defs>
<filter id="filter0_d_74_4076" x="0.0011301" y="0" width="358.479" height="106.479" filterUnits="userSpaceOnUse" color-interpolation-filters="sRGB">
<feFlood flood-opacity="0" result="BackgroundImageFix"/>
<feColorMatrix in="SourceAlpha" type="matrix" values="0 0 0 0 0 0 0 0 0 0 0 0 0 0 0 0 0 0 127 0" result="hardAlpha"/>
<feOffset dx="-3.23967" dy="3.23967"/>
<feGaussianBlur stdDeviation="1.61983"/>
<feComposite in2="hardAlpha" operator="out"/>
<feColorMatrix type="matrix" values="0 0 0 0 0 0 0 0 0 0 0 0 0 0 0 0 0 0 0.25 0"/>
<feBlend mode="normal" in2="BackgroundImageFix" result="effect1_dropShadow_74_4076"/>
<feBlend mode="normal" in="SourceGraphic" in2="effect1_dropShadow_74_4076" result="shape"/>
</filter>
</defs>
</svg>
