<svg width="458" height="26" viewBox="0 0 458 26" fill="none" xmlns="http://www.w3.org/2000/svg">
<path d="M8.69636 25.3095C7.04438 25.3095 5.56883 25.0248 4.2697 24.4554C2.97859 23.886 1.95613 23.0961 1.20231 22.0857C0.456517 21.0673 0.0555512 19.8884 -0.000584036 18.5492H3.77651C3.82463 19.2789 4.06922 19.9125 4.51028 20.4498C4.95936 20.979 5.54477 21.388 6.26651 21.6767C6.98824 21.9654 7.79017 22.1098 8.6723 22.1098C9.64263 22.1098 10.5007 21.9414 11.2465 21.6045C12.0003 21.2677 12.5897 20.7986 13.0148 20.1972C13.4398 19.5877 13.6523 18.886 13.6523 18.0921C13.6523 17.2661 13.4398 16.5404 13.0148 15.9148C12.5977 15.2813 11.9843 14.7841 11.1743 14.4233C10.3724 14.0624 9.40206 13.882 8.26331 13.882H6.1823V10.8507H8.26331C9.17751 10.8507 9.97945 10.6863 10.6691 10.3575C11.3668 10.0287 11.9121 9.57157 12.305 8.98616C12.698 8.39274 12.8945 7.69907 12.8945 6.90515C12.8945 6.14332 12.722 5.48173 12.3772 4.92038C12.0404 4.35101 11.5592 3.90593 10.9337 3.58516C10.3163 3.26439 9.5865 3.104 8.74447 3.104C7.94254 3.104 7.19274 3.25236 6.49506 3.54907C5.8054 3.83777 5.24404 4.25477 4.811 4.80009C4.37796 5.33738 4.1454 5.98293 4.11332 6.73675H0.516661C0.556758 5.40554 0.949704 4.23472 1.6955 3.22429C2.44931 2.21386 3.44371 1.42396 4.67868 0.854586C5.91366 0.285215 7.28496 0.000529444 8.79259 0.000529444C10.3724 0.000529444 11.7357 0.309273 12.8824 0.92676C14.0372 1.53623 14.9274 2.35019 15.5529 3.36864C16.1864 4.38709 16.4991 5.50178 16.4911 6.71269C16.4991 8.09201 16.1142 9.26283 15.3363 10.2251C14.5665 11.1875 13.54 11.833 12.2569 12.1618V12.3543C13.8929 12.6029 15.1599 13.2524 16.0581 14.303C16.9643 15.3535 17.4133 16.6566 17.4053 18.2124C17.4133 19.5676 17.0364 20.7826 16.2746 21.8572C15.5208 22.9317 14.4903 23.7778 13.1832 24.3953C11.876 25.0047 10.3804 25.3095 8.69636 25.3095ZM24.3701 24.9727H20.4246L29.2899 0.337341H33.5843L42.4496 24.9727H38.5041L31.5394 4.81211H31.3469L24.3701 24.9727ZM25.0317 15.3254H37.8305V18.453H25.0317V15.3254ZM65.2656 0.337341V24.9727H61.5606V3.51299H49.9647V24.9727H46.2598V0.337341H65.2656ZM70.9492 0.337341H74.6301V18.4289H74.8587L87.3928 0.337341H90.8331V24.9727H87.1162V6.90515H86.8876L74.3775 24.9727H70.9492V0.337341ZM116.716 8.34863H112.963C112.819 7.5467 112.55 6.841 112.157 6.23153C111.765 5.62207 111.283 5.10482 110.714 4.6798C110.145 4.25477 109.507 3.934 108.801 3.71748C108.104 3.50096 107.362 3.3927 106.576 3.3927C105.157 3.3927 103.886 3.74956 102.763 4.46328C101.648 5.17699 100.766 6.22351 100.116 7.60283C99.4749 8.98215 99.1542 10.6662 99.1542 12.655C99.1542 14.6598 99.4749 16.3519 100.116 17.7312C100.766 19.1105 101.652 20.1531 102.775 20.8588C103.898 21.5645 105.161 21.9173 106.564 21.9173C107.342 21.9173 108.08 21.813 108.777 21.6045C109.483 21.388 110.121 21.0713 110.69 20.6543C111.259 20.2373 111.74 19.728 112.133 19.1266C112.534 18.5171 112.811 17.8194 112.963 17.0335L116.716 17.0456C116.516 18.2565 116.127 19.3712 115.55 20.3896C114.98 21.4001 114.246 22.2742 113.348 23.0119C112.458 23.7417 111.44 24.3071 110.293 24.708C109.146 25.109 107.895 25.3095 106.54 25.3095C104.407 25.3095 102.506 24.8043 100.838 23.7938C99.1702 22.7754 97.855 21.3199 96.8927 19.4273C95.9384 17.5347 95.4613 15.2773 95.4613 12.655C95.4613 10.0247 95.9424 7.76723 96.9047 5.88269C97.8671 3.99014 99.1822 2.53864 100.85 1.52821C102.518 0.509756 104.415 0.000529444 106.54 0.000529444C107.847 0.000529444 109.066 0.188984 110.197 0.565892C111.335 0.934779 112.358 1.48009 113.264 2.20183C114.17 2.91555 114.92 3.78965 115.514 4.82414C116.107 5.85061 116.508 7.02544 116.716 8.34863ZM123.08 24.9727H119.134L128 0.337341H132.294L141.159 24.9727H137.214L130.249 4.81211H130.057L123.08 24.9727ZM123.741 15.3254H136.54V18.453H123.741V15.3254ZM140.591 3.53705V0.337341H159.657V3.53705H151.97V24.9727H148.265V3.53705H140.591ZM166.48 10.2733H173.12C174.949 10.2733 176.504 10.57 177.787 11.1634C179.071 11.7568 180.049 12.5949 180.723 13.6775C181.404 14.7601 181.741 16.0351 181.733 17.5027C181.741 18.9702 181.404 20.2653 180.723 21.388C180.049 22.5107 179.071 23.3888 177.787 24.0224C176.504 24.6559 174.949 24.9727 173.12 24.9727H163.894V0.337341H167.623V21.8451H173.12C174.187 21.8451 175.085 21.6366 175.815 21.2196C176.553 20.8026 177.11 20.2613 177.487 19.5957C177.872 18.9301 178.064 18.2164 178.064 17.4546C178.064 16.3479 177.639 15.3976 176.789 14.6037C175.939 13.8018 174.716 13.4008 173.12 13.4008H166.48V10.2733ZM206.726 8.34863H202.973C202.829 7.5467 202.56 6.841 202.167 6.23153C201.774 5.62207 201.293 5.10482 200.724 4.6798C200.154 4.25477 199.517 3.934 198.811 3.71748C198.113 3.50096 197.372 3.3927 196.586 3.3927C195.166 3.3927 193.895 3.74956 192.773 4.46328C191.658 5.17699 190.776 6.22351 190.126 7.60283C189.485 8.98215 189.164 10.6662 189.164 12.655C189.164 14.6598 189.485 16.3519 190.126 17.7312C190.776 19.1105 191.662 20.1531 192.785 20.8588C193.907 21.5645 195.17 21.9173 196.574 21.9173C197.352 21.9173 198.089 21.813 198.787 21.6045C199.493 21.388 200.13 21.0713 200.7 20.6543C201.269 20.2373 201.75 19.728 202.143 19.1266C202.544 18.5171 202.821 17.8194 202.973 17.0335L206.726 17.0456C206.526 18.2565 206.137 19.3712 205.559 20.3896C204.99 21.4001 204.256 22.2742 203.358 23.0119C202.468 23.7417 201.449 24.3071 200.303 24.708C199.156 25.109 197.905 25.3095 196.55 25.3095C194.417 25.3095 192.516 24.8043 190.848 23.7938C189.18 22.7754 187.865 21.3199 186.902 19.4273C185.948 17.5347 185.471 15.2773 185.471 12.655C185.471 10.0247 185.952 7.76723 186.914 5.88269C187.877 3.99014 189.192 2.53864 190.86 1.52821C192.528 0.509756 194.425 0.000529444 196.55 0.000529444C197.857 0.000529444 199.076 0.188984 200.206 0.565892C201.345 0.934779 202.368 1.48009 203.274 2.20183C204.18 2.91555 204.93 3.78965 205.523 4.82414C206.117 5.85061 206.518 7.02544 206.726 8.34863ZM228.64 24.9727H224.911V3.52502H220.244C219.025 3.52502 218.034 3.70946 217.273 4.07835C216.511 4.43922 215.953 4.96047 215.601 5.64211C215.248 6.32375 215.071 7.12969 215.071 8.05993C215.071 8.98216 215.248 9.77206 215.601 10.4296C215.953 11.0872 216.507 11.5884 217.261 11.9333C218.014 12.2781 218.997 12.4505 220.208 12.4505H226.523V15.6502H219.859C217.958 15.6502 216.374 15.3334 215.107 14.6999C213.848 14.0664 212.902 13.1803 212.268 12.0415C211.643 10.8948 211.33 9.56756 211.33 8.05993C211.33 6.54429 211.643 5.20907 212.268 4.05429C212.894 2.89149 213.836 1.9813 215.095 1.32372C216.362 0.666132 217.946 0.337341 219.847 0.337341H228.64V24.9727ZM216.479 13.8579H220.593L214.614 24.9727H210.392L216.479 13.8579ZM243.03 24.9727V0.337341H246.747V11.0431H259.028V0.337341H262.757V24.9727H259.028V14.2308H246.747V24.9727H243.03ZM270.251 24.9727H266.306L275.171 0.337341H279.465L288.331 24.9727H284.385L277.42 4.81211H277.228L270.251 24.9727ZM270.913 15.3254H283.712V18.453H270.913V15.3254ZM309.093 25.3095C307.441 25.3095 305.965 25.0248 304.666 24.4554C303.375 23.886 302.352 23.0961 301.599 22.0857C300.853 21.0673 300.452 19.8884 300.396 18.5492H304.173C304.221 19.2789 304.465 19.9125 304.907 20.4498C305.356 20.979 305.941 21.388 306.663 21.6767C307.385 21.9654 308.186 22.1098 309.069 22.1098C310.039 22.1098 310.897 21.9414 311.643 21.6045C312.397 21.2677 312.986 20.7986 313.411 20.1972C313.836 19.5877 314.049 18.886 314.049 18.0921C314.049 17.2661 313.836 16.5404 313.411 15.9148C312.994 15.2813 312.381 14.7841 311.571 14.4233C310.769 14.0624 309.798 13.882 308.66 13.882H306.579V10.8507H308.66C309.574 10.8507 310.376 10.6863 311.065 10.3575C311.763 10.0287 312.308 9.57157 312.701 8.98616C313.094 8.39274 313.291 7.69907 313.291 6.90515C313.291 6.14332 313.118 5.48173 312.773 4.92038C312.437 4.35101 311.956 3.90593 311.33 3.58516C310.713 3.26439 309.983 3.104 309.141 3.104C308.339 3.104 307.589 3.25236 306.891 3.54907C306.202 3.83777 305.64 4.25477 305.207 4.80009C304.774 5.33738 304.542 5.98293 304.51 6.73675H300.913C300.953 5.40554 301.346 4.23472 302.092 3.22429C302.846 2.21386 303.84 1.42396 305.075 0.854586C306.31 0.285215 307.681 0.000529444 309.189 0.000529444C310.769 0.000529444 312.132 0.309273 313.279 0.92676C314.433 1.53623 315.324 2.35019 315.949 3.36864C316.583 4.38709 316.895 5.50178 316.887 6.71269C316.895 8.09201 316.51 9.26283 315.733 10.2251C314.963 11.1875 313.936 11.833 312.653 12.1618V12.3543C314.289 12.6029 315.556 13.2524 316.454 14.303C317.361 15.3535 317.81 16.6566 317.802 18.2124C317.81 19.5676 317.433 20.7826 316.671 21.8572C315.917 22.9317 314.887 23.7778 313.579 24.3953C312.272 25.0047 310.777 25.3095 309.093 25.3095ZM324.766 24.9727H320.821L329.686 0.337341H333.981L342.846 24.9727H338.9L331.936 4.81211H331.743L324.766 24.9727ZM325.428 15.3254H338.227V18.453H325.428V15.3254ZM346.403 24.9727V0.337341H350.12V11.0431H362.402V0.337341H366.131V24.9727H362.402V14.2308H350.12V24.9727H346.403ZM389.01 24.9727H385.281V3.52502H380.614C379.395 3.52502 378.404 3.70946 377.643 4.07835C376.881 4.43922 376.323 4.96047 375.971 5.64211C375.618 6.32375 375.441 7.12969 375.441 8.05993C375.441 8.98216 375.618 9.77206 375.971 10.4296C376.323 11.0872 376.877 11.5884 377.631 11.9333C378.384 12.2781 379.367 12.4505 380.578 12.4505H386.893V15.6502H380.229C378.328 15.6502 376.745 15.3334 375.477 14.6999C374.218 14.0664 373.272 13.1803 372.639 12.0415C372.013 10.8948 371.7 9.56756 371.7 8.05993C371.7 6.54429 372.013 5.20907 372.639 4.05429C373.264 2.89149 374.206 1.9813 375.465 1.32372C376.732 0.666132 378.316 0.337341 380.217 0.337341H389.01V24.9727ZM376.849 13.8579H380.963L374.984 24.9727H370.762L376.849 13.8579ZM393.22 3.53705V0.337341H412.286V3.53705H404.6V24.9727H400.895V3.53705H393.22ZM416.499 0.337341H420.18V18.4289H420.409L432.943 0.337341H436.383V24.9727H432.666V6.90515H432.438L419.927 24.9727H416.499V0.337341ZM441.805 24.9727V0.337341H457.25V3.53705H445.522V11.0431H456.444V14.2308H445.522V21.773H457.395V24.9727H441.805Z" fill="white"/>
</svg>
