<svg width="399" height="22" viewBox="0 0 399 22" fill="none" xmlns="http://www.w3.org/2000/svg">
<path d="M8.43633 21.78C7.37197 21.78 6.33774 21.6696 5.33363 21.4487C4.3496 21.2077 3.46599 20.8462 2.68278 20.3643C1.89957 19.8823 1.26699 19.2597 0.785012 18.4966C0.30304 17.7134 0.0419712 16.7695 0.0018068 15.665H3.13463C3.19488 16.2474 3.38566 16.7394 3.70697 17.1411C4.02829 17.5427 4.43997 17.8741 4.94203 18.1351C5.44408 18.3761 5.99634 18.5569 6.59881 18.6773C7.20127 18.7978 7.81378 18.8581 8.43633 18.8581C8.9183 18.8581 9.44044 18.8179 10.0027 18.7376C10.5851 18.6573 11.1273 18.4966 11.6294 18.2556C12.1315 18.0146 12.5431 17.6632 12.8645 17.2013C13.1858 16.7394 13.3464 16.137 13.3464 15.3939C13.3464 14.691 13.2259 14.1287 12.9849 13.707C12.744 13.2652 12.4026 12.9338 11.9608 12.7129C11.5189 12.472 10.9968 12.3113 10.3943 12.231C9.81196 12.1506 9.16933 12.1105 8.46645 12.1105H5.72523V9.33913H7.50251C8.16522 9.33913 8.79781 9.27888 9.40027 9.15839C10.0228 9.0379 10.565 8.85716 11.0269 8.61617C11.4888 8.3551 11.8603 8.0137 12.1415 7.59198C12.4226 7.17025 12.5632 6.6682 12.5632 6.08581C12.5632 5.2022 12.3423 4.53948 11.9005 4.09767C11.4587 3.65587 10.9064 3.34459 10.2437 3.16385C9.58101 2.98311 8.9183 2.89274 8.25559 2.89274C7.47238 2.89274 6.72934 3.0032 6.02647 3.2241C5.34367 3.445 4.78137 3.7864 4.33956 4.24829C3.91784 4.6901 3.70697 5.2524 3.70697 5.9352H0.544026C0.564108 4.97125 0.754889 4.14788 1.11637 3.46509C1.47785 2.78229 1.94978 2.21999 2.53216 1.77818C3.13463 1.31629 3.7873 0.954812 4.49018 0.693743C5.19305 0.432674 5.89593 0.251934 6.59881 0.151523C7.30168 0.0511125 7.94432 0.000907055 8.5267 0.000907055C9.4304 0.000907055 10.304 0.101318 11.1474 0.30214C11.9909 0.48288 12.754 0.794154 13.4368 1.23596C14.1397 1.67777 14.6919 2.26015 15.0936 2.98311C15.4952 3.70607 15.696 4.57965 15.696 5.60384C15.696 6.10589 15.6258 6.63807 15.4852 7.20037C15.3446 7.74259 15.0635 8.27477 14.6417 8.79691C14.2401 9.29896 13.6276 9.7709 12.8042 10.2127C14.0292 10.4939 14.963 11.1164 15.6057 12.0803C16.2684 13.0443 16.5997 14.1589 16.5997 15.424C16.5797 16.5687 16.3387 17.5427 15.8768 18.346C15.4149 19.1493 14.8024 19.802 14.0393 20.304C13.2761 20.8061 12.4126 21.1776 11.4487 21.4186C10.5048 21.6596 9.50069 21.78 8.43633 21.78ZM17.7171 21.5391L25.76 0.241894H29.8869L37.8997 21.5391H34.4657L32.8993 17.2616H22.7176L21.1512 21.5391H17.7171ZM23.7719 14.3998H31.845L27.8084 3.28435L23.7719 14.3998ZM40.5986 21.5391V0.241894H57.6785V21.5391H54.4854V3.13373H43.7917V21.5391H40.5986ZM62.691 21.5391V0.241894H65.884V16.388L76.879 0.241894H79.9516V21.5391H76.7887V5.54359L65.7334 21.5391H62.691ZM93.7257 21.78C91.5368 21.78 89.6992 21.3182 88.2132 20.3944C86.7472 19.4706 85.6426 18.1954 84.8996 16.5687C84.1566 14.9421 83.785 13.0644 83.785 10.9357C83.785 8.80695 84.1566 6.91922 84.8996 5.27248C85.6627 3.62574 86.7773 2.34048 88.2433 1.4167C89.7294 0.472839 91.5669 0.000907055 93.7558 0.000907055C95.3423 0.000907055 96.728 0.261976 97.9129 0.784113C99.0977 1.28617 100.052 2.00913 100.775 2.95299C101.518 3.87677 102.01 4.98129 102.251 6.26655H99.1178C98.8166 5.24236 98.2041 4.42903 97.2803 3.82657C96.3565 3.2241 95.1716 2.92287 93.7257 2.92287C92.1191 2.92287 90.8238 3.29439 89.8398 4.03743C88.8759 4.78047 88.173 5.75446 87.7312 6.95939C87.2894 8.14424 87.0685 9.4295 87.0685 10.8152C87.0685 12.241 87.2994 13.5664 87.7613 14.7914C88.2232 16.0165 88.9562 17.0005 89.9603 17.7435C90.9644 18.4866 92.2497 18.8581 93.8161 18.8581C94.78 18.8581 95.6335 18.7276 96.3766 18.4665C97.1196 18.1853 97.7422 17.7937 98.2442 17.2917C98.7463 16.7695 99.0877 16.1671 99.2684 15.4843H102.612C102.351 16.7896 101.819 17.9142 101.016 18.8581C100.212 19.802 99.1981 20.5249 97.9731 21.027C96.7481 21.529 95.3323 21.78 93.7257 21.78ZM103.704 21.5391L111.747 0.241894H115.874L123.886 21.5391H120.452L118.886 17.2616H108.704L107.138 21.5391H103.704ZM109.759 14.3998H117.832L113.795 3.28435L109.759 14.3998ZM129.576 21.5391V3.16385H122.829V0.241894H139.487V3.16385H132.769V21.5391H129.576ZM142.352 21.5391V0.241894H145.545V8.73666H149.853C150.937 8.73666 151.952 8.82703 152.895 9.00777C153.859 9.16843 154.713 9.46966 155.456 9.91147C156.199 10.3533 156.781 10.9758 157.203 11.7791C157.645 12.5623 157.866 13.5765 157.866 14.8216C157.866 16.1269 157.645 17.2113 157.203 18.0749C156.761 18.9384 156.149 19.6313 155.366 20.1534C154.582 20.6554 153.689 21.0169 152.685 21.2378C151.68 21.4387 150.606 21.5391 149.461 21.5391H142.352ZM145.545 18.6171H149.341C150.044 18.6171 150.706 18.5769 151.329 18.4966C151.972 18.4163 152.534 18.2556 153.016 18.0146C153.518 17.7536 153.91 17.382 154.191 16.9001C154.492 16.4181 154.643 15.7755 154.643 14.9722C154.643 14.2091 154.502 13.6066 154.221 13.1648C153.94 12.7029 153.558 12.3615 153.076 12.1406C152.594 11.9197 152.052 11.7791 151.449 11.7189C150.847 11.6385 150.214 11.5984 149.552 11.5984H145.545V18.6171ZM170.505 21.78C168.316 21.78 166.478 21.3182 164.992 20.3944C163.526 19.4706 162.422 18.1954 161.679 16.5687C160.936 14.9421 160.564 13.0644 160.564 10.9357C160.564 8.80695 160.936 6.91922 161.679 5.27248C162.442 3.62574 163.556 2.34048 165.022 1.4167C166.508 0.472839 168.346 0.000907055 170.535 0.000907055C172.121 0.000907055 173.507 0.261976 174.692 0.784113C175.877 1.28617 176.831 2.00913 177.554 2.95299C178.297 3.87677 178.789 4.98129 179.03 6.26655H175.897C175.596 5.24236 174.983 4.42903 174.059 3.82657C173.136 3.2241 171.951 2.92287 170.505 2.92287C168.898 2.92287 167.603 3.29439 166.619 4.03743C165.655 4.78047 164.952 5.75446 164.51 6.95939C164.068 8.14424 163.848 9.4295 163.848 10.8152C163.848 12.241 164.079 13.5664 164.54 14.7914C165.002 16.0165 165.735 17.0005 166.739 17.7435C167.744 18.4866 169.029 18.8581 170.595 18.8581C171.559 18.8581 172.413 18.7276 173.156 18.4665C173.899 18.1853 174.521 17.7937 175.023 17.2917C175.525 16.7695 175.867 16.1671 176.048 15.4843H179.391C179.13 16.7896 178.598 17.9142 177.795 18.8581C176.991 19.802 175.977 20.5249 174.752 21.027C173.527 21.529 172.111 21.78 170.505 21.78ZM182.37 21.5391L187.19 13.225C185.804 12.8636 184.67 12.1707 183.786 11.1465C182.922 10.1223 182.491 8.7467 182.491 7.01963C182.491 5.77454 182.681 4.73026 183.063 3.88681C183.465 3.02328 184.017 2.3204 184.72 1.77818C185.423 1.23596 186.266 0.844359 187.25 0.603372C188.234 0.362387 189.308 0.241894 190.473 0.241894H198.516V21.5391H195.323V13.7974H190.353L186.015 21.5391H182.37ZM191.015 10.9357H195.323V3.16385H190.353C189.308 3.16385 188.445 3.30443 187.762 3.58558C187.079 3.84665 186.557 4.25833 186.196 4.82063C185.854 5.38294 185.684 6.1059 185.684 6.98951C185.684 8.05387 185.935 8.87724 186.437 9.45962C186.939 10.0219 187.591 10.4135 188.395 10.6344C189.218 10.8353 190.092 10.9357 191.015 10.9357ZM211.778 21.5391V0.241894H214.971V9.61024H225.634V0.241894H228.828V21.5391H225.634V12.5322H214.971V21.5391H211.778ZM231.551 21.5391L239.594 0.241894H243.721L251.734 21.5391H248.3L246.733 17.2616H236.552L234.985 21.5391H231.551ZM237.606 14.3998H245.679L241.643 3.28435L237.606 14.3998ZM269.838 21.78C268.774 21.78 267.74 21.6696 266.736 21.4487C265.752 21.2077 264.868 20.8462 264.085 20.3643C263.302 19.8823 262.669 19.2597 262.187 18.4966C261.705 17.7134 261.444 16.7695 261.404 15.665H264.537C264.597 16.2474 264.788 16.7394 265.109 17.1411C265.43 17.5427 265.842 17.8741 266.344 18.1351C266.846 18.3761 267.398 18.5569 268.001 18.6773C268.603 18.7978 269.216 18.8581 269.838 18.8581C270.32 18.8581 270.842 18.8179 271.405 18.7376C271.987 18.6573 272.529 18.4966 273.031 18.2556C273.533 18.0146 273.945 17.6632 274.266 17.2013C274.588 16.7394 274.748 16.137 274.748 15.3939C274.748 14.691 274.628 14.1287 274.387 13.707C274.146 13.2652 273.805 12.9338 273.363 12.7129C272.921 12.472 272.399 12.3113 271.796 12.231C271.214 12.1506 270.571 12.1105 269.868 12.1105H267.127V9.33913H268.904C269.567 9.33913 270.2 9.27888 270.802 9.15839C271.425 9.0379 271.967 8.85716 272.429 8.61617C272.891 8.3551 273.262 8.0137 273.543 7.59198C273.825 7.17025 273.965 6.6682 273.965 6.08581C273.965 5.2022 273.744 4.53948 273.302 4.09767C272.861 3.65587 272.308 3.34459 271.646 3.16385C270.983 2.98311 270.32 2.89274 269.658 2.89274C268.874 2.89274 268.131 3.0032 267.428 3.2241C266.746 3.445 266.183 3.7864 265.742 4.24829C265.32 4.6901 265.109 5.2524 265.109 5.9352H261.946C261.966 4.97125 262.157 4.14788 262.518 3.46509C262.88 2.78229 263.352 2.21999 263.934 1.77818C264.537 1.31629 265.189 0.954812 265.892 0.693743C266.595 0.432674 267.298 0.251934 268.001 0.151523C268.704 0.0511125 269.346 0.000907055 269.929 0.000907055C270.832 0.000907055 271.706 0.101318 272.549 0.30214C273.393 0.48288 274.156 0.794154 274.839 1.23596C275.542 1.67777 276.094 2.26015 276.496 2.98311C276.897 3.70607 277.098 4.57965 277.098 5.60384C277.098 6.10589 277.028 6.63807 276.887 7.20037C276.747 7.74259 276.465 8.27477 276.044 8.79691C275.642 9.29896 275.03 9.7709 274.206 10.2127C275.431 10.4939 276.365 11.1164 277.008 12.0803C277.67 13.0443 278.002 14.1589 278.002 15.424C277.982 16.5687 277.741 17.5427 277.279 18.346C276.817 19.1493 276.204 19.802 275.441 20.304C274.678 20.8061 273.815 21.1776 272.851 21.4186C271.907 21.6596 270.903 21.78 269.838 21.78ZM279.119 21.5391L287.162 0.241894H291.289L299.302 21.5391H295.868L294.301 17.2616H284.12L282.553 21.5391H279.119ZM285.174 14.3998H293.247L289.21 3.28435L285.174 14.3998ZM302.001 21.5391V0.241894H305.194V9.61024H315.857V0.241894H319.05V21.5391H315.857V12.5322H305.194V21.5391H302.001ZM323.22 21.5391L328.04 13.225C326.654 12.8636 325.519 12.1707 324.636 11.1465C323.772 10.1223 323.341 8.7467 323.341 7.01963C323.341 5.77454 323.531 4.73026 323.913 3.88681C324.315 3.02328 324.867 2.3204 325.57 1.77818C326.273 1.23596 327.116 0.844359 328.1 0.603372C329.084 0.362387 330.158 0.241894 331.323 0.241894H339.366V21.5391H336.173V13.7974H331.203L326.865 21.5391H323.22ZM331.865 10.9357H336.173V3.16385H331.203C330.158 3.16385 329.295 3.30443 328.612 3.58558C327.929 3.84665 327.407 4.25833 327.046 4.82063C326.704 5.38294 326.534 6.1059 326.534 6.98951C326.534 8.05387 326.785 8.87724 327.287 9.45962C327.789 10.0219 328.441 10.4135 329.245 10.6344C330.068 10.8353 330.942 10.9357 331.865 10.9357ZM348.97 21.5391V3.16385H342.223V0.241894H358.881V3.16385H352.163V21.5391H348.97ZM361.776 21.5391V0.241894H364.97V16.388L375.965 0.241894H379.037V21.5391H375.874V5.54359L364.819 21.5391H361.776ZM384.045 21.5391V0.241894H398.715V3.16385H387.238V9.54999H397.39V12.4418H387.238V18.6171H398.715V21.5391H384.045Z" fill="#191919"/>
</svg>
