<svg width="408" height="23" viewBox="0 0 408 23" fill="none" xmlns="http://www.w3.org/2000/svg">
<path d="M7.74254 22.5343C6.27165 22.5343 4.95784 22.2808 3.80112 21.7738C2.65154 21.2669 1.74116 20.5636 1.06997 19.6639C0.405931 18.7571 0.0489177 17.7075 -0.00106412 16.515H3.362C3.40484 17.1648 3.62262 17.7289 4.01533 18.2073C4.41519 18.6785 4.93642 19.0427 5.57905 19.2997C6.22167 19.5568 6.9357 19.6853 7.72112 19.6853C8.5851 19.6853 9.3491 19.5354 10.0131 19.2355C10.6843 18.9356 11.2091 18.5179 11.5876 17.9824C11.966 17.4397 12.1552 16.8149 12.1552 16.108C12.1552 15.3726 11.966 14.7264 11.5876 14.1695C11.2163 13.6054 10.6701 13.1627 9.94888 12.8414C9.23486 12.5201 8.37089 12.3594 7.35697 12.3594H5.50407V9.66038H7.35697C8.17096 9.66038 8.88499 9.51401 9.49905 9.22126C10.1203 8.92851 10.6058 8.52151 10.9557 8.00027C11.3055 7.47189 11.4805 6.85426 11.4805 6.14738C11.4805 5.46905 11.327 4.87998 11.0199 4.38016C10.72 3.8732 10.2916 3.47692 9.73468 3.19131C9.18488 2.9057 8.53511 2.76289 7.78539 2.76289C7.07136 2.76289 6.40375 2.89499 5.78254 3.15918C5.16848 3.41623 4.66866 3.78752 4.28309 4.27306C3.89752 4.75145 3.69045 5.32624 3.66189 5.99743H0.459483C0.495184 4.81215 0.845056 3.76967 1.5091 2.87C2.18028 1.97032 3.06568 1.26701 4.16528 0.760051C5.26488 0.253093 6.48586 -0.000386557 7.82823 -0.000386557C9.23486 -0.000386557 10.4487 0.274513 11.4698 0.824313C12.498 1.36697 13.2905 2.09171 13.8475 2.99852C14.4115 3.90533 14.69 4.89783 14.6829 5.97601C14.69 7.20413 14.3473 8.24661 13.6547 9.10344C12.9692 9.96027 12.0553 10.5351 10.9128 10.8278V10.9992C12.3694 11.2205 13.4976 11.7989 14.2973 12.7343C15.1042 13.6696 15.504 14.8299 15.4969 16.2151C15.504 17.4218 15.1684 18.5036 14.4901 19.4604C13.8189 20.4172 12.9014 21.1705 11.7375 21.7203C10.5737 22.2629 9.242 22.5343 7.74254 22.5343ZM21.6982 22.2344H18.1852L26.0787 0.299504H29.9023L37.7959 22.2344H34.2829L28.0816 4.28377H27.9102L21.6982 22.2344ZM22.2872 13.6446H33.6831V16.4293H22.2872V13.6446ZM58.1108 0.299504V22.2344H54.812V3.12705H44.4872V22.2344H41.1884V0.299504H58.1108ZM63.1715 0.299504H66.4488V16.4079H66.6523L77.8126 0.299504H80.8757V22.2344H77.5662V6.14738H77.3627L66.2239 22.2344H63.1715V0.299504ZM103.922 7.43262H100.58C100.452 6.7186 100.212 6.09025 99.8626 5.54759C99.5127 5.00493 99.0843 4.54439 98.5773 4.16595C98.0704 3.78752 97.5027 3.50191 96.8744 3.30912C96.2532 3.11634 95.5927 3.01994 94.893 3.01994C93.6291 3.01994 92.4974 3.33768 91.4978 3.97317C90.5053 4.60865 89.7198 5.54045 89.1415 6.76858C88.5703 7.9967 88.2846 9.49616 88.2846 11.2669C88.2846 13.052 88.5703 14.5586 89.1415 15.7867C89.7198 17.0148 90.5088 17.9431 91.5085 18.5714C92.5081 19.1998 93.6327 19.5139 94.8822 19.5139C95.5749 19.5139 96.2318 19.4211 96.853 19.2355C97.4813 19.0427 98.049 18.7606 98.5559 18.3893C99.0629 18.0181 99.4913 17.5646 99.8412 17.0291C100.198 16.4865 100.445 15.8653 100.58 15.1655L103.922 15.1762C103.743 16.2544 103.397 17.2469 102.883 18.1537C102.376 19.0534 101.723 19.8317 100.923 20.4886C100.13 21.1383 99.2235 21.6417 98.2025 21.9987C97.1814 22.3558 96.0675 22.5343 94.8608 22.5343C92.9615 22.5343 91.2693 22.0844 89.7841 21.1848C88.2989 20.2779 87.1279 18.982 86.2711 17.2969C85.4214 15.6118 84.9966 13.6018 84.9966 11.2669C84.9966 8.92494 85.425 6.91495 86.2818 5.23699C87.1386 3.55189 88.3096 2.2595 89.7948 1.35983C91.28 0.45302 92.9687 -0.000386557 94.8608 -0.000386557C96.0247 -0.000386557 97.11 0.16741 98.1168 0.503003C99.1307 0.831454 100.041 1.31699 100.848 1.95961C101.655 2.5951 102.322 3.37339 102.851 4.29448C103.379 5.20843 103.736 6.25448 103.922 7.43262ZM109.588 22.2344H106.075L113.968 0.299504H117.792L125.685 22.2344H122.172L115.971 4.28377H115.8L109.588 22.2344ZM110.177 13.6446H121.573V16.4293H110.177V13.6446ZM125.179 3.14847V0.299504H142.155V3.14847H135.311V22.2344H132.012V3.14847H125.179ZM148.231 9.14628H154.143C155.771 9.14628 157.156 9.41047 158.298 9.93885C159.441 10.4672 160.312 11.2134 160.912 12.1773C161.519 13.1413 161.819 14.2766 161.811 15.5832C161.819 16.8899 161.519 18.043 160.912 19.0427C160.312 20.0423 159.441 20.8242 158.298 21.3883C157.156 21.9523 155.771 22.2344 154.143 22.2344H145.928V0.299504H149.248V19.4497H154.143C155.092 19.4497 155.892 19.264 156.542 18.8927C157.199 18.5214 157.695 18.0395 158.031 17.4468C158.373 16.8542 158.545 16.2187 158.545 15.5404C158.545 14.555 158.166 13.7089 157.409 13.002C156.653 12.288 155.564 11.931 154.143 11.931H148.231V9.14628ZM184.065 7.43262H180.723C180.595 6.7186 180.356 6.09025 180.006 5.54759C179.656 5.00493 179.227 4.54439 178.72 4.16595C178.213 3.78752 177.646 3.50191 177.018 3.30912C176.396 3.11634 175.736 3.01994 175.036 3.01994C173.772 3.01994 172.641 3.33768 171.641 3.97317C170.648 4.60865 169.863 5.54045 169.285 6.76858C168.713 7.9967 168.428 9.49616 168.428 11.2669C168.428 13.052 168.713 14.5586 169.285 15.7867C169.863 17.0148 170.652 17.9431 171.652 18.5714C172.651 19.1998 173.776 19.5139 175.025 19.5139C175.718 19.5139 176.375 19.4211 176.996 19.2355C177.624 19.0427 178.192 18.7606 178.699 18.3893C179.206 18.0181 179.634 17.5646 179.984 17.0291C180.341 16.4865 180.588 15.8653 180.723 15.1655L184.065 15.1762C183.886 16.2544 183.54 17.2469 183.026 18.1537C182.519 19.0534 181.866 19.8317 181.066 20.4886C180.273 21.1383 179.367 21.6417 178.346 21.9987C177.325 22.3558 176.211 22.5343 175.004 22.5343C173.105 22.5343 171.412 22.0844 169.927 21.1848C168.442 20.2779 167.271 18.982 166.414 17.2969C165.565 15.6118 165.14 13.6018 165.14 11.2669C165.14 8.92494 165.568 6.91495 166.425 5.23699C167.282 3.55189 168.453 2.2595 169.938 1.35983C171.423 0.45302 173.112 -0.000386557 175.004 -0.000386557C176.168 -0.000386557 177.253 0.16741 178.26 0.503003C179.274 0.831454 180.184 1.31699 180.991 1.95961C181.798 2.5951 182.466 3.37339 182.994 4.29448C183.522 5.20843 183.879 6.25448 184.065 7.43262ZM203.577 22.2344H200.256V3.13776H196.101C195.015 3.13776 194.134 3.30198 193.455 3.63044C192.777 3.95175 192.281 4.41586 191.967 5.02278C191.652 5.62971 191.495 6.3473 191.495 7.17557C191.495 7.9967 191.652 8.70002 191.967 9.28552C192.281 9.87102 192.773 10.3173 193.445 10.6243C194.116 10.9313 194.99 11.0849 196.069 11.0849H201.692V13.9338H195.758C194.066 13.9338 192.656 13.6518 191.527 13.0877C190.406 12.5236 189.564 11.7346 189 10.7207C188.443 9.69965 188.164 8.51794 188.164 7.17557C188.164 5.82606 188.443 4.63721 189 3.60901C189.557 2.57368 190.396 1.76326 191.517 1.17776C192.645 0.592255 194.055 0.299504 195.747 0.299504H203.577V22.2344ZM192.748 12.338H196.411L191.088 22.2344H187.329L192.748 12.338ZM216.389 22.2344V0.299504H219.698V9.83175H230.634V0.299504H233.954V22.2344H230.634V12.67H219.698V22.2344H216.389ZM240.626 22.2344H237.113L245.007 0.299504H248.831L256.724 22.2344H253.211L247.01 4.28377H246.839L240.626 22.2344ZM241.216 13.6446H252.611V16.4293H241.216V13.6446ZM275.21 22.5343C273.739 22.5343 272.426 22.2808 271.269 21.7738C270.119 21.2669 269.209 20.5636 268.538 19.6639C267.874 18.7571 267.517 17.7075 267.467 16.515H270.83C270.873 17.1648 271.09 17.7289 271.483 18.2073C271.883 18.6785 272.404 19.0427 273.047 19.2997C273.689 19.5568 274.403 19.6853 275.189 19.6853C276.053 19.6853 276.817 19.5354 277.481 19.2355C278.152 18.9356 278.677 18.5179 279.055 17.9824C279.434 17.4397 279.623 16.8149 279.623 16.108C279.623 15.3726 279.434 14.7264 279.055 14.1695C278.684 13.6054 278.138 13.1627 277.417 12.8414C276.703 12.5201 275.839 12.3594 274.825 12.3594H272.972V9.66038H274.825C275.639 9.66038 276.353 9.51401 276.967 9.22126C277.588 8.92851 278.074 8.52151 278.423 8.00027C278.773 7.47189 278.948 6.85426 278.948 6.14738C278.948 5.46905 278.795 4.87998 278.488 4.38016C278.188 3.8732 277.759 3.47692 277.202 3.19131C276.653 2.9057 276.003 2.76289 275.253 2.76289C274.539 2.76289 273.872 2.89499 273.25 3.15918C272.636 3.41623 272.136 3.78752 271.751 4.27306C271.365 4.75145 271.158 5.32624 271.13 5.99743H267.927C267.963 4.81215 268.313 3.76967 268.977 2.87C269.648 1.97032 270.533 1.26701 271.633 0.760051C272.733 0.253093 273.954 -0.000386557 275.296 -0.000386557C276.703 -0.000386557 277.916 0.274513 278.938 0.824313C279.966 1.36697 280.758 2.09171 281.315 2.99852C281.879 3.90533 282.158 4.89783 282.151 5.97601C282.158 7.20413 281.815 8.24661 281.122 9.10344C280.437 9.96027 279.523 10.5351 278.381 10.8278V10.9992C279.837 11.2205 280.965 11.7989 281.765 12.7343C282.572 13.6696 282.972 14.8299 282.965 16.2151C282.972 17.4218 282.636 18.5036 281.958 19.4604C281.287 20.4172 280.369 21.1705 279.205 21.7203C278.041 22.2629 276.71 22.5343 275.21 22.5343ZM289.166 22.2344H285.653L293.547 0.299504H297.37L305.264 22.2344H301.751L295.549 4.28377H295.378L289.166 22.2344ZM289.755 13.6446H301.151V16.4293H289.755V13.6446ZM308.431 22.2344V0.299504H311.741V9.83175H322.676V0.299504H325.996V22.2344H322.676V12.67H311.741V22.2344H308.431ZM346.367 22.2344H343.047V3.13776H338.892C337.806 3.13776 336.924 3.30198 336.246 3.63044C335.568 3.95175 335.072 4.41586 334.757 5.02278C334.443 5.62971 334.286 6.3473 334.286 7.17557C334.286 7.9967 334.443 8.70002 334.757 9.28552C335.072 9.87102 335.564 10.3173 336.235 10.6243C336.907 10.9313 337.781 11.0849 338.859 11.0849H344.482V13.9338H338.549C336.857 13.9338 335.446 13.6518 334.318 13.0877C333.197 12.5236 332.355 11.7346 331.791 10.7207C331.234 9.69965 330.955 8.51794 330.955 7.17557C330.955 5.82606 331.234 4.63721 331.791 3.60901C332.348 2.57368 333.187 1.76326 334.308 1.17776C335.436 0.592255 336.846 0.299504 338.538 0.299504H346.367V22.2344ZM335.539 12.338H339.202L333.879 22.2344H330.12L335.539 12.338ZM350.116 3.14847V0.299504H367.092V3.14847H360.248V22.2344H356.949V3.14847H350.116ZM370.843 0.299504H374.121V16.4079H374.324L385.484 0.299504H388.548V22.2344H385.238V6.14738H385.035L373.896 22.2344H370.843V0.299504ZM393.375 22.2344V0.299504H407.127V3.14847H396.685V9.83175H406.41V12.67H396.685V19.3854H407.256V22.2344H393.375Z" fill="#1841EC"/>
</svg>
