<svg width="290" height="27" viewBox="0 0 290 27" fill="none" xmlns="http://www.w3.org/2000/svg">
<path d="M6.95033 21.4094C5.56568 21.4094 4.35077 21.0799 3.30562 20.4208C2.26713 19.7618 1.45497 18.8398 0.869154 17.6548C0.289994 16.4699 0.000414304 15.0852 0.000414304 13.5009C0.000414304 11.9032 0.289994 10.5085 0.869154 9.31692C1.45497 8.12532 2.26713 7.19999 3.30562 6.54095C4.35077 5.8819 5.56568 5.55238 6.95033 5.55238C8.33499 5.55238 9.54657 5.8819 10.5851 6.54095C11.6302 7.19999 12.4424 8.12532 13.0215 9.31692C13.6073 10.5085 13.9003 11.9032 13.9003 13.5009C13.9003 15.0852 13.6073 16.4699 13.0215 17.6548C12.4424 18.8398 11.6302 19.7618 10.5851 20.4208C9.54657 21.0799 8.33499 21.4094 6.95033 21.4094ZM6.95033 19.2925C8.00214 19.2925 8.86755 19.0228 9.54657 18.4836C10.2256 17.9444 10.7282 17.2354 11.0544 16.3567C11.3806 15.478 11.5437 14.526 11.5437 13.5009C11.5437 12.4757 11.3806 11.5204 11.0544 10.635C10.7282 9.74963 10.2256 9.034 9.54657 8.48812C8.86755 7.94225 8.00214 7.66931 6.95033 7.66931C5.89853 7.66931 5.03311 7.94225 4.3541 8.48812C3.67508 9.034 3.17248 9.74963 2.84629 10.635C2.52009 11.5204 2.357 12.4757 2.357 13.5009C2.357 14.526 2.52009 15.478 2.84629 16.3567C3.17248 17.2354 3.67508 17.9444 4.3541 18.4836C5.03311 19.0228 5.89853 19.2925 6.95033 19.2925ZM19.8541 11.8632V21.0898H17.4975V5.75209H19.7742V8.14862H19.9739C20.3334 7.36975 20.8793 6.74399 21.6116 6.27134C22.3438 5.79203 23.2891 5.55238 24.4475 5.55238C25.4859 5.55238 26.3946 5.76541 27.1735 6.19145C27.9524 6.61085 28.5582 7.24992 28.9909 8.10867C29.4236 8.96077 29.6399 10.0392 29.6399 11.344V21.0898H27.2833V11.5037C27.2833 10.2988 26.9705 9.36019 26.3447 8.68783C25.7189 8.00882 24.8602 7.66931 23.7684 7.66931C23.0162 7.66931 22.3438 7.83241 21.7514 8.1586C21.1655 8.48479 20.7029 8.96077 20.3634 9.58653C20.0239 10.2123 19.8541 10.9712 19.8541 11.8632ZM38.4596 21.4493C37.4877 21.4493 36.6056 21.2663 35.8135 20.9001C35.0213 20.5273 34.3922 19.9914 33.9262 19.2925C33.4602 18.5868 33.2272 17.7347 33.2272 16.7362C33.2272 15.8574 33.4003 15.1451 33.7465 14.5993C34.0926 14.0467 34.5553 13.614 35.1345 13.3011C35.7136 12.9883 36.3527 12.7553 37.0517 12.6022C37.7573 12.4424 38.4663 12.3159 39.1786 12.2227C40.1106 12.1029 40.8661 12.013 41.4453 11.9531C42.0311 11.8865 42.4572 11.7767 42.7234 11.6236C42.9964 11.4705 43.1328 11.2042 43.1328 10.8247V10.7448C43.1328 9.75961 42.8632 8.99406 42.324 8.44818C41.7915 7.90231 40.9826 7.62937 39.8975 7.62937C38.7725 7.62937 37.8905 7.87568 37.2514 8.3683C36.6123 8.86092 36.163 9.38682 35.9033 9.94601L33.6666 9.14717C34.066 8.21519 34.5986 7.48957 35.2643 6.97032C35.9366 6.44442 36.6689 6.07829 37.4611 5.87192C38.2599 5.65889 39.0454 5.55238 39.8177 5.55238C40.3103 5.55238 40.8761 5.61229 41.5152 5.73212C42.1609 5.84529 42.7834 6.08161 43.3825 6.44109C43.9883 6.80057 44.4909 7.34312 44.8903 8.06873C45.2897 8.79435 45.4894 9.76627 45.4894 10.9845V21.0898H43.1328V19.0129H43.013C42.8533 19.3457 42.587 19.7019 42.2142 20.0813C41.8414 20.4608 41.3454 20.7836 40.7263 21.0499C40.1072 21.3162 39.3517 21.4493 38.4596 21.4493ZM38.8191 19.3324C39.7511 19.3324 40.5366 19.1493 41.1757 18.7832C41.8214 18.4171 42.3074 17.9444 42.6336 17.3652C42.9664 16.7861 43.1328 16.177 43.1328 15.5379V13.381C43.033 13.5009 42.8133 13.6107 42.4738 13.7105C42.141 13.8037 41.7548 13.887 41.3155 13.9602C40.8828 14.0268 40.4601 14.0867 40.0473 14.1399C39.6412 14.1865 39.3117 14.2265 39.0588 14.2598C38.4463 14.3396 37.8738 14.4694 37.3412 14.6492C36.8153 14.8223 36.3893 15.0852 36.0631 15.438C35.7436 15.7842 35.5838 16.2569 35.5838 16.856C35.5838 17.6748 35.8867 18.2939 36.4925 18.7133C37.1049 19.126 37.8805 19.3324 38.8191 19.3324ZM60.6549 9.18711L58.538 9.78624C58.4049 9.43342 58.2085 9.09058 57.9489 8.75773C57.6959 8.41822 57.3497 8.13863 56.9104 7.91895C56.471 7.69927 55.9085 7.58943 55.2228 7.58943C54.2842 7.58943 53.502 7.80578 52.8762 8.23849C52.2571 8.66453 51.9476 9.20708 51.9476 9.86612C51.9476 10.4519 52.1606 10.9146 52.5866 11.2541C53.0127 11.5936 53.6784 11.8765 54.5837 12.1029L56.8604 12.6621C58.2318 12.9949 59.2536 13.5042 59.926 14.1899C60.5983 14.8689 60.9345 15.7443 60.9345 16.816C60.9345 17.6948 60.6816 18.4803 60.1756 19.1726C59.6764 19.865 58.9774 20.4108 58.0787 20.8102C57.18 21.2097 56.1348 21.4094 54.9432 21.4094C53.3788 21.4094 52.084 21.0699 51.0589 20.3909C50.0337 19.7118 49.3846 18.7199 49.1117 17.4152L51.3484 16.856C51.5615 17.6815 51.9642 18.3006 52.5567 18.7133C53.1558 19.126 53.938 19.3324 54.9033 19.3324C56.0017 19.3324 56.8738 19.0994 57.5195 18.6334C58.1719 18.1608 58.4981 17.5949 58.4981 16.9359C58.4981 16.4033 58.3117 15.9573 57.9389 15.5978C57.5661 15.2317 56.9936 14.9587 56.2214 14.779L53.6651 14.1799C52.2604 13.847 51.2286 13.3311 50.5696 12.6321C49.9172 11.9265 49.591 11.0444 49.591 9.98595C49.591 9.12054 49.834 8.35498 50.3199 7.68928C50.8125 7.02358 51.4816 6.50101 52.327 6.12156C53.1791 5.74211 54.1444 5.55238 55.2228 5.55238C56.7406 5.55238 57.9322 5.88523 58.7976 6.55093C59.6697 7.21663 60.2888 8.09536 60.6549 9.18711ZM70.9126 21.4094C69.4347 21.4094 68.1599 21.0832 67.0881 20.4308C66.023 19.7718 65.2008 18.8531 64.6217 17.6748C64.0492 16.4898 63.7629 15.1118 63.7629 13.5408C63.7629 11.9697 64.0492 10.5851 64.6217 9.38682C65.2008 8.1819 66.0063 7.24326 67.0382 6.5709C68.0767 5.89189 69.2882 5.55238 70.6729 5.55238C71.4717 5.55238 72.2606 5.68552 73.0395 5.9518C73.8183 6.21808 74.5273 6.65079 75.1664 7.24992C75.8055 7.84239 76.3147 8.62792 76.6942 9.6065C77.0736 10.5851 77.2633 11.79 77.2633 13.2213V14.2198H65.4405V12.1828H74.8668C74.8668 11.3174 74.6937 10.5451 74.3476 9.86612C74.0081 9.18711 73.5221 8.65122 72.8897 8.25846C72.2639 7.86569 71.525 7.66931 70.6729 7.66931C69.7343 7.66931 68.9221 7.90231 68.2364 8.3683C67.5574 8.82763 67.0348 9.42676 66.6687 10.1657C66.3026 10.9046 66.1195 11.6968 66.1195 12.5422V13.9003C66.1195 15.0586 66.3192 16.0405 66.7186 16.846C67.1247 17.6448 67.6872 18.254 68.4062 18.6733C69.1251 19.0861 69.9606 19.2925 70.9126 19.2925C71.5317 19.2925 72.0908 19.2059 72.5901 19.0328C73.0961 18.8531 73.5321 18.5868 73.8982 18.234C74.2644 17.8745 74.5473 17.4285 74.747 16.8959L77.0237 17.535C76.784 18.3072 76.3813 18.9862 75.8154 19.572C75.2496 20.1512 74.5506 20.6039 73.7185 20.9301C72.8864 21.2496 71.951 21.4094 70.9126 21.4094ZM83.2047 11.8632V21.0898H80.8481V5.75209H83.1248V8.14862H83.3245C83.684 7.36975 84.2299 6.74399 84.9622 6.27134C85.6944 5.79203 86.6397 5.55238 87.7981 5.55238C88.8366 5.55238 89.7452 5.76541 90.5241 6.19145C91.303 6.61085 91.9088 7.24992 92.3415 8.10867C92.7742 8.96077 92.9905 10.0392 92.9905 11.344V21.0898H90.6339V11.5037C90.6339 10.2988 90.3211 9.36019 89.6953 8.68783C89.0695 8.00882 88.2108 7.66931 87.119 7.66931C86.3668 7.66931 85.6944 7.83241 85.102 8.1586C84.5162 8.48479 84.0535 8.96077 83.714 9.58653C83.3745 10.2123 83.2047 10.9712 83.2047 11.8632ZM99.4936 15.498L99.4537 12.5822H99.933L106.643 5.75209H109.559L102.409 12.9816H102.21L99.4936 15.498ZM97.2968 21.0898V0.639508H99.6534V21.0898H97.2968ZM107.043 21.0898L101.051 13.5009L102.729 11.8632L110.038 21.0898H107.043ZM118.191 21.4094C116.807 21.4094 115.592 21.0799 114.547 20.4208C113.508 19.7618 112.696 18.8398 112.11 17.6548C111.531 16.4699 111.242 15.0852 111.242 13.5009C111.242 11.9032 111.531 10.5085 112.11 9.31692C112.696 8.12532 113.508 7.19999 114.547 6.54095C115.592 5.8819 116.807 5.55238 118.191 5.55238C119.576 5.55238 120.788 5.8819 121.826 6.54095C122.871 7.19999 123.684 8.12532 124.263 9.31692C124.848 10.5085 125.141 11.9032 125.141 13.5009C125.141 15.0852 124.848 16.4699 124.263 17.6548C123.684 18.8398 122.871 19.7618 121.826 20.4208C120.788 21.0799 119.576 21.4094 118.191 21.4094ZM118.191 19.2925C119.243 19.2925 120.109 19.0228 120.788 18.4836C121.467 17.9444 121.969 17.2354 122.296 16.3567C122.622 15.478 122.785 14.526 122.785 13.5009C122.785 12.4757 122.622 11.5204 122.296 10.635C121.969 9.74963 121.467 9.034 120.788 8.48812C120.109 7.94225 119.243 7.66931 118.191 7.66931C117.14 7.66931 116.274 7.94225 115.595 8.48812C114.916 9.034 114.414 9.74963 114.087 10.635C113.761 11.5204 113.598 12.4757 113.598 13.5009C113.598 14.526 113.761 15.478 114.087 16.3567C114.414 17.2354 114.916 17.9444 115.595 18.4836C116.274 19.0228 117.14 19.2925 118.191 19.2925ZM133.252 21.4493C132.28 21.4493 131.398 21.2663 130.606 20.9001C129.814 20.5273 129.185 19.9914 128.719 19.2925C128.253 18.5868 128.02 17.7347 128.02 16.7362C128.02 15.8574 128.193 15.1451 128.539 14.5993C128.885 14.0467 129.348 13.614 129.927 13.3011C130.506 12.9883 131.145 12.7553 131.844 12.6022C132.55 12.4424 133.259 12.3159 133.971 12.2227C134.903 12.1029 135.659 12.013 136.238 11.9531C136.824 11.8865 137.25 11.7767 137.516 11.6236C137.789 11.4705 137.925 11.2042 137.925 10.8247V10.7448C137.925 9.75961 137.656 8.99406 137.117 8.44818C136.584 7.90231 135.775 7.62937 134.69 7.62937C133.565 7.62937 132.683 7.87568 132.044 8.3683C131.405 8.86092 130.955 9.38682 130.696 9.94601L128.459 9.14717C128.858 8.21519 129.391 7.48957 130.057 6.97032C130.729 6.44442 131.461 6.07829 132.254 5.87192C133.052 5.65889 133.838 5.55238 134.61 5.55238C135.103 5.55238 135.669 5.61229 136.308 5.73212C136.953 5.84529 137.576 6.08161 138.175 6.44109C138.781 6.80057 139.283 7.34312 139.683 8.06873C140.082 8.79435 140.282 9.76627 140.282 10.9845V21.0898H137.925V19.0129H137.806C137.646 19.3457 137.379 19.7019 137.007 20.0813C136.634 20.4608 136.138 20.7836 135.519 21.0499C134.9 21.3162 134.144 21.4493 133.252 21.4493ZM133.612 19.3324C134.544 19.3324 135.329 19.1493 135.968 18.7832C136.614 18.4171 137.1 17.9444 137.426 17.3652C137.759 16.7861 137.925 16.177 137.925 15.5379V13.381C137.825 13.5009 137.606 13.6107 137.266 13.7105C136.933 13.8037 136.547 13.887 136.108 13.9602C135.675 14.0268 135.253 14.0867 134.84 14.1399C134.434 14.1865 134.104 14.2265 133.851 14.2598C133.239 14.3396 132.666 14.4694 132.134 14.6492C131.608 14.8223 131.182 15.0852 130.856 15.438C130.536 15.7842 130.376 16.2569 130.376 16.856C130.376 17.6748 130.679 18.2939 131.285 18.7133C131.897 19.126 132.673 19.3324 133.612 19.3324ZM151.054 0.359913C151.893 0.36657 152.731 0.526338 153.57 0.839217C154.409 1.1521 155.174 1.67134 155.867 2.39696C156.559 3.11592 157.115 4.09782 157.534 5.34268C157.954 6.58755 158.163 8.14862 158.163 10.0259C158.163 11.8433 157.99 13.4576 157.644 14.8689C157.305 16.2735 156.812 17.4584 156.166 18.4237C155.527 19.389 154.748 20.1212 153.83 20.6205C152.918 21.1198 151.886 21.3694 150.734 21.3694C149.589 21.3694 148.567 21.1431 147.669 20.6904C146.777 20.2311 146.044 19.5953 145.472 18.7832C144.906 17.9644 144.543 17.0158 144.383 15.9373H146.82C147.04 16.876 147.476 17.6515 148.128 18.2639C148.787 18.8697 149.656 19.1726 150.734 19.1726C152.312 19.1726 153.557 18.4836 154.469 17.1056C155.388 15.7276 155.847 13.7804 155.847 11.2641H155.687C155.314 11.8233 154.872 12.3059 154.359 12.712C153.846 13.1181 153.277 13.431 152.651 13.6506C152.026 13.8703 151.36 13.9802 150.654 13.9802C149.483 13.9802 148.408 13.6906 147.429 13.1114C146.457 12.5256 145.678 11.7234 145.092 10.7049C144.513 9.67973 144.224 8.50809 144.224 7.19001C144.224 5.93849 144.503 4.79348 145.062 3.75499C145.628 2.70984 146.421 1.87771 147.439 1.25861C148.464 0.639508 149.669 0.339943 151.054 0.359913ZM151.054 2.55673C150.215 2.55673 149.459 2.76642 148.787 3.18581C148.121 3.59855 147.592 4.15774 147.199 4.86338C146.813 5.56237 146.62 6.33791 146.62 7.19001C146.62 8.0421 146.807 8.81764 147.179 9.51663C147.559 10.209 148.075 10.7615 148.727 11.1742C149.386 11.5803 150.135 11.7833 150.974 11.7833C151.606 11.7833 152.195 11.6602 152.741 11.4139C153.287 11.1609 153.763 10.8181 154.169 10.3854C154.582 9.94601 154.905 9.45006 155.138 8.89753C155.371 8.33834 155.487 7.75585 155.487 7.15006C155.487 6.35122 155.294 5.60231 154.908 4.90332C154.529 4.20434 154.003 3.63849 153.33 3.20578C152.665 2.77308 151.906 2.55673 151.054 2.55673ZM168.601 0.359913C169.44 0.36657 170.278 0.526338 171.117 0.839217C171.956 1.1521 172.722 1.67134 173.414 2.39696C174.106 3.11592 174.662 4.09782 175.081 5.34268C175.501 6.58755 175.711 8.14862 175.711 10.0259C175.711 11.8433 175.537 13.4576 175.191 14.8689C174.852 16.2735 174.359 17.4584 173.713 18.4237C173.074 19.389 172.295 20.1212 171.377 20.6205C170.465 21.1198 169.433 21.3694 168.281 21.3694C167.136 21.3694 166.114 21.1431 165.216 20.6904C164.324 20.2311 163.591 19.5953 163.019 18.7832C162.453 17.9644 162.09 17.0158 161.931 15.9373H164.367C164.587 16.876 165.023 17.6515 165.675 18.2639C166.334 18.8697 167.203 19.1726 168.281 19.1726C169.859 19.1726 171.104 18.4836 172.016 17.1056C172.935 15.7276 173.394 13.7804 173.394 11.2641H173.234C172.861 11.8233 172.419 12.3059 171.906 12.712C171.393 13.1181 170.824 13.431 170.199 13.6506C169.573 13.8703 168.907 13.9802 168.201 13.9802C167.03 13.9802 165.955 13.6906 164.976 13.1114C164.004 12.5256 163.225 11.7234 162.639 10.7049C162.06 9.67973 161.771 8.50809 161.771 7.19001C161.771 5.93849 162.05 4.79348 162.61 3.75499C163.175 2.70984 163.968 1.87771 164.986 1.25861C166.011 0.639508 167.216 0.339943 168.601 0.359913ZM168.601 2.55673C167.762 2.55673 167.006 2.76642 166.334 3.18581C165.668 3.59855 165.139 4.15774 164.746 4.86338C164.36 5.56237 164.167 6.33791 164.167 7.19001C164.167 8.0421 164.354 8.81764 164.726 9.51663C165.106 10.209 165.622 10.7615 166.274 11.1742C166.933 11.5803 167.682 11.7833 168.521 11.7833C169.153 11.7833 169.743 11.6602 170.288 11.4139C170.834 11.1609 171.31 10.8181 171.716 10.3854C172.129 9.94601 172.452 9.45006 172.685 8.89753C172.918 8.33834 173.034 7.75585 173.034 7.15006C173.034 6.35122 172.841 5.60231 172.455 4.90332C172.076 4.20434 171.55 3.63849 170.878 3.20578C170.212 2.77308 169.453 2.55673 168.601 2.55673ZM191.46 26.482C189.423 26.482 187.622 26.2024 186.058 25.6432C184.494 25.0907 183.179 24.2752 182.114 23.1968C181.049 22.1184 180.243 20.7969 179.697 19.2325C179.151 17.6681 178.878 15.8774 178.878 13.8603C178.878 11.9098 179.155 10.1657 179.707 8.62792C180.266 7.09015 181.075 5.78538 182.134 4.7136C183.199 3.63516 184.49 2.81302 186.008 2.24718C187.533 1.68133 189.257 1.39841 191.181 1.39841C193.051 1.39841 194.689 1.70463 196.093 2.31707C197.505 2.92286 198.683 3.745 199.628 4.7835C200.58 5.81533 201.293 6.97698 201.765 8.26844C202.245 9.5599 202.484 10.8913 202.484 12.2626C202.484 13.2279 202.438 14.2065 202.344 15.1984C202.251 16.1903 202.055 17.1023 201.755 17.9344C201.456 18.7599 200.993 19.4256 200.367 19.9315C199.748 20.4375 198.909 20.6904 197.851 20.6904C197.385 20.6904 196.872 20.6172 196.313 20.4707C195.754 20.3243 195.258 20.0813 194.825 19.7418C194.393 19.4023 194.136 18.9463 194.056 18.3738H193.937C193.777 18.7599 193.531 19.126 193.198 19.4722C192.871 19.8184 192.442 20.0946 191.91 20.301C191.384 20.5074 190.741 20.5972 189.982 20.5706C189.117 20.5373 188.355 20.3443 187.696 19.9914C187.037 19.632 186.484 19.146 186.038 18.5336C185.599 17.9144 185.266 17.1988 185.04 16.3867C184.82 15.5679 184.71 14.6858 184.71 13.7405C184.71 12.8418 184.843 12.0197 185.109 11.2741C185.376 10.5285 185.745 9.87611 186.218 9.31692C186.697 8.75773 187.256 8.31171 187.895 7.97886C188.541 7.63935 189.237 7.42966 189.982 7.34977C190.648 7.2832 191.254 7.31316 191.8 7.43964C192.346 7.55947 192.795 7.74254 193.148 7.98885C193.501 8.2285 193.724 8.49478 193.817 8.78769H193.937V7.66931H196.054V16.6962C196.054 17.2554 196.21 17.748 196.523 18.1741C196.836 18.6001 197.292 18.8131 197.891 18.8131C198.57 18.8131 199.089 18.5802 199.449 18.1142C199.815 17.6482 200.064 16.9292 200.198 15.9573C200.337 14.9854 200.407 13.7405 200.407 12.2227C200.407 11.3307 200.284 10.4519 200.038 9.58653C199.798 8.71446 199.432 7.89898 198.939 7.14008C198.453 6.38118 197.838 5.71215 197.092 5.13299C196.346 4.55383 195.471 4.10115 194.466 3.77496C193.467 3.44211 192.332 3.27568 191.061 3.27568C189.496 3.27568 188.095 3.51866 186.857 4.00463C185.625 4.48393 184.577 5.18625 183.711 6.11157C182.853 7.03024 182.197 8.14862 181.744 9.4667C181.298 10.7781 181.075 12.2693 181.075 13.9402C181.075 15.6378 181.298 17.1456 181.744 18.4637C182.197 19.7817 182.863 20.8935 183.741 21.7988C184.627 22.7042 185.722 23.3898 187.027 23.8558C188.331 24.3285 189.836 24.5648 191.54 24.5648C192.272 24.5648 192.995 24.4949 193.707 24.3551C194.419 24.2153 195.048 24.0622 195.594 23.8958C196.14 23.7293 196.533 23.6062 196.772 23.5263L197.332 25.3636C196.919 25.5367 196.38 25.7098 195.714 25.8829C195.055 26.056 194.349 26.1991 193.597 26.3123C192.852 26.4254 192.139 26.482 191.46 26.482ZM190.302 18.5336C191.194 18.5336 191.916 18.3538 192.469 17.9943C193.021 17.6349 193.424 17.0923 193.677 16.3667C193.93 15.6411 194.056 14.7257 194.056 13.6207C194.056 12.5023 193.917 11.6302 193.637 11.0045C193.357 10.3787 192.945 9.93935 192.399 9.68639C191.853 9.43342 191.181 9.30694 190.382 9.30694C189.623 9.30694 188.974 9.50665 188.435 9.90607C187.902 10.2988 187.493 10.8247 187.206 11.4838C186.927 12.1362 186.787 12.8485 186.787 13.6207C186.787 14.4728 186.9 15.2749 187.126 16.0272C187.353 16.7728 187.722 17.3786 188.235 17.8446C188.747 18.3039 189.436 18.5336 190.302 18.5336ZM206.012 21.0898V5.75209H208.288V8.14862H208.488C208.808 7.3298 209.323 6.69406 210.036 6.24138C210.748 5.78205 211.603 5.55238 212.602 5.55238C213.614 5.55238 214.456 5.78205 215.128 6.24138C215.807 6.69406 216.337 7.3298 216.716 8.14862H216.876C217.269 7.35643 217.858 6.72734 218.643 6.26135C219.429 5.78871 220.371 5.55238 221.469 5.55238C222.84 5.55238 223.962 5.98176 224.834 6.84051C225.706 7.69261 226.142 9.02068 226.142 10.8247V21.0898H223.786V10.8247C223.786 9.69304 223.476 8.88422 222.857 8.39825C222.238 7.91229 221.509 7.66931 220.67 7.66931C219.592 7.66931 218.756 7.9955 218.164 8.64789C217.571 9.29362 217.275 10.1124 217.275 11.1043V21.0898H214.879V10.5851C214.879 9.71301 214.596 9.0107 214.03 8.47814C213.464 7.93892 212.735 7.66931 211.843 7.66931C211.231 7.66931 210.658 7.83241 210.126 8.1586C209.6 8.48479 209.174 8.93747 208.847 9.51663C208.528 10.0891 208.368 10.7515 208.368 11.5037V21.0898H206.012ZM234.965 21.4493C233.993 21.4493 233.111 21.2663 232.318 20.9001C231.526 20.5273 230.897 19.9914 230.431 19.2925C229.965 18.5868 229.732 17.7347 229.732 16.7362C229.732 15.8574 229.905 15.1451 230.251 14.5993C230.598 14.0467 231.06 13.614 231.639 13.3011C232.219 12.9883 232.858 12.7553 233.557 12.6022C234.262 12.4424 234.971 12.3159 235.684 12.2227C236.616 12.1029 237.371 12.013 237.95 11.9531C238.536 11.8865 238.962 11.7767 239.228 11.6236C239.501 11.4705 239.638 11.2042 239.638 10.8247V10.7448C239.638 9.75961 239.368 8.99406 238.829 8.44818C238.296 7.90231 237.488 7.62937 236.403 7.62937C235.277 7.62937 234.395 7.87568 233.756 8.3683C233.117 8.86092 232.668 9.38682 232.408 9.94601L230.172 9.14717C230.571 8.21519 231.104 7.48957 231.769 6.97032C232.442 6.44442 233.174 6.07829 233.966 5.87192C234.765 5.65889 235.55 5.55238 236.323 5.55238C236.815 5.55238 237.381 5.61229 238.02 5.73212C238.666 5.84529 239.288 6.08161 239.887 6.44109C240.493 6.80057 240.996 7.34312 241.395 8.06873C241.795 8.79435 241.994 9.76627 241.994 10.9845V21.0898H239.638V19.0129H239.518C239.358 19.3457 239.092 19.7019 238.719 20.0813C238.346 20.4608 237.85 20.7836 237.231 21.0499C236.612 21.3162 235.857 21.4493 234.965 21.4493ZM235.324 19.3324C236.256 19.3324 237.042 19.1493 237.681 18.7832C238.326 18.4171 238.812 17.9444 239.139 17.3652C239.471 16.7861 239.638 16.177 239.638 15.5379V13.381C239.538 13.5009 239.318 13.6107 238.979 13.7105C238.646 13.8037 238.26 13.887 237.82 13.9602C237.388 14.0268 236.965 14.0867 236.552 14.1399C236.146 14.1865 235.817 14.2265 235.564 14.2598C234.951 14.3396 234.379 14.4694 233.846 14.6492C233.32 14.8223 232.894 15.0852 232.568 15.438C232.249 15.7842 232.089 16.2569 232.089 16.856C232.089 17.6748 232.392 18.2939 232.997 18.7133C233.61 19.126 234.385 19.3324 235.324 19.3324ZM246.296 21.0898V5.75209H248.652V21.0898H246.296ZM247.494 3.1958C247.035 3.1958 246.638 3.03936 246.306 2.72648C245.979 2.4136 245.816 2.03748 245.816 1.59812C245.816 1.15876 245.979 0.782634 246.306 0.469754C246.638 0.156875 247.035 0.000435352 247.494 0.000435352C247.953 0.000435352 248.346 0.156875 248.672 0.469754C249.005 0.782634 249.171 1.15876 249.171 1.59812C249.171 2.03748 249.005 2.4136 248.672 2.72648C248.346 3.03936 247.953 3.1958 247.494 3.1958ZM255.325 0.639508V21.0898H252.968V0.639508H255.325ZM261.359 21.2496C260.866 21.2496 260.443 21.0732 260.091 20.7204C259.738 20.3676 259.561 19.9448 259.561 19.4522C259.561 18.9596 259.738 18.5369 260.091 18.1841C260.443 17.8312 260.866 17.6548 261.359 17.6548C261.851 17.6548 262.274 17.8312 262.627 18.1841C262.98 18.5369 263.156 18.9596 263.156 19.4522C263.156 19.7784 263.073 20.078 262.907 20.3509C262.747 20.6239 262.53 20.8435 262.257 21.01C261.991 21.1697 261.692 21.2496 261.359 21.2496ZM267.385 21.0898V5.75209H269.662V8.06873H269.822C270.101 7.30983 270.607 6.69406 271.339 6.22141C272.072 5.74876 272.897 5.51244 273.816 5.51244C273.989 5.51244 274.205 5.51577 274.465 5.52242C274.724 5.52908 274.921 5.53907 275.054 5.55238V7.94891C274.974 7.92893 274.791 7.89898 274.505 7.85904C274.225 7.81244 273.929 7.78914 273.616 7.78914C272.87 7.78914 272.205 7.94558 271.619 8.25846C271.04 8.56468 270.58 8.99073 270.241 9.5366C269.908 10.0758 269.742 10.6916 269.742 11.3839V21.0898H267.385ZM287.513 14.8189V5.75209H289.87V21.0898H287.513V18.4936H287.354C286.994 19.2725 286.435 19.9349 285.676 20.4807C284.917 21.0199 283.959 21.2896 282.8 21.2896C281.842 21.2896 280.99 21.0799 280.244 20.6605C279.498 20.2344 278.913 19.5953 278.486 18.7432C278.06 17.8845 277.847 16.8027 277.847 15.498V5.75209H280.204V15.3382C280.204 16.4566 280.517 17.3486 281.143 18.0143C281.775 18.68 282.581 19.0129 283.559 19.0129C284.145 19.0129 284.741 18.8631 285.347 18.5635C285.959 18.2639 286.472 17.8046 286.884 17.1855C287.304 16.5664 287.513 15.7775 287.513 14.8189Z" fill="black" fill-opacity="0.87"/>
<a href="mailto:onasenkoa99@mail.ru">
<rect fill="black" fill-opacity="0" y="-5.51532" width="293.464" height="34.0306"/>
</a>
</svg>
