<svg width="55" height="23" viewBox="0 0 55 23" fill="none" xmlns="http://www.w3.org/2000/svg">
<path d="M-0.000620589 22.1445V0.248253H15.0821V3.25241H3.28227V9.8182H13.7194V12.7914H3.28227V19.1404H15.0821V22.1445H-0.000620589ZM19.4864 22.1445V0.248253H33.9187V3.25241H22.7693V22.1445H19.4864ZM44.7235 22.3923C43.0924 22.3923 41.6471 22.1342 40.3876 21.618C39.1281 21.1019 38.0958 20.3689 37.2905 19.4191C36.4853 18.4487 35.9278 17.3028 35.6181 15.9814H39.0559C39.2623 16.6627 39.6236 17.2615 40.1398 17.7777C40.6767 18.2938 41.3374 18.6965 42.1219 18.9855C42.9065 19.2539 43.7944 19.3881 44.7854 19.3881C46.2307 19.3881 47.4386 19.0991 48.409 18.521C49.3794 17.9222 50.1227 17.117 50.6389 16.1052C51.1551 15.0935 51.4338 13.9476 51.4751 12.6675H41.8742V9.72528H51.4751C51.4132 8.5071 51.1241 7.39216 50.6079 6.38045C50.1124 5.36874 49.3897 4.55318 48.44 3.93377C47.4902 3.2937 46.2927 2.97367 44.8474 2.97367C43.8357 2.97367 42.9375 3.1182 42.1529 3.40726C41.389 3.69632 40.7489 4.09894 40.2327 4.61512C39.7166 5.11065 39.3552 5.70942 39.1488 6.41142H35.8968C36.2065 4.92483 36.8053 3.70665 37.6931 2.75688C38.581 1.80711 39.6649 1.11543 40.9451 0.681843C42.2252 0.227606 43.5776 0.000487028 45.0022 0.000487028C46.7159 0.000487028 48.1922 0.289547 49.431 0.867666C50.6699 1.42514 51.6919 2.22005 52.4971 3.25241C53.323 4.28477 53.9321 5.49262 54.3244 6.87598C54.7167 8.23869 54.9128 9.71496 54.9128 11.3048C54.9128 13.4934 54.5309 15.4239 53.7669 17.0963C53.0236 18.7481 51.888 20.0488 50.3602 20.9986C48.8529 21.9277 46.974 22.3923 44.7235 22.3923Z" fill="#F5F5F5"/>
</svg>
