<svg width="61" height="23" viewBox="0 0 61 23" fill="none" xmlns="http://www.w3.org/2000/svg">
<path d="M10.4694 22.3923C8.21882 22.3923 6.30896 21.9174 4.73978 20.9676C3.19125 19.9972 2.01436 18.6655 1.20912 16.9724C0.403883 15.2794 0.00126408 13.3592 0.00126408 11.2119C0.00126408 9.04393 0.403883 7.11342 1.20912 5.42036C2.01436 3.72729 3.20157 2.40588 4.77075 1.45611C6.33993 0.485694 8.24979 0.000487028 10.5003 0.000487028C12.7715 0.000487028 14.6814 0.475371 16.2299 1.42514C17.7784 2.37491 18.9553 3.69632 19.7606 5.38939C20.5658 7.08245 20.9684 9.01296 20.9684 11.1809C20.9684 13.3282 20.5658 15.2484 19.7606 16.9415C18.9553 18.6345 17.7681 19.9663 16.1989 20.9367C14.6504 21.9071 12.7405 22.3923 10.4694 22.3923ZM10.5003 19.3881C12.1521 19.3881 13.5045 19.0062 14.5575 18.2422C15.6105 17.4783 16.3848 16.4769 16.8803 15.2381C17.3758 13.9992 17.6236 12.6572 17.6236 11.2119C17.6236 10.1176 17.4791 9.0749 17.19 8.08384C16.9216 7.09278 16.4983 6.21527 15.9202 5.45133C15.3421 4.68738 14.5988 4.08862 13.6903 3.65503C12.7818 3.22144 11.7185 3.00464 10.5003 3.00464C8.86921 3.00464 7.51682 3.38662 6.44317 4.15056C5.39016 4.9145 4.60557 5.91589 4.0894 7.15472C3.57322 8.39354 3.31513 9.74593 3.31513 11.2119C3.31513 12.6572 3.56289 13.9992 4.05842 15.2381C4.5746 16.4769 5.35919 17.4783 6.4122 18.2422C7.48585 19.0062 8.84856 19.3881 10.5003 19.3881ZM25.3538 22.1445V0.248253H39.7861V3.25241H28.6367V22.1445H25.3538ZM50.5909 22.3923C48.9598 22.3923 47.5145 22.1342 46.255 21.618C44.9956 21.1019 43.9632 20.3689 43.158 19.4191C42.3527 18.4487 41.7953 17.3028 41.4855 15.9814H44.9233C45.1298 16.6627 45.4911 17.2615 46.0073 17.7777C46.5441 18.2938 47.2048 18.6965 47.9894 18.9855C48.774 19.2539 49.6618 19.3881 50.6529 19.3881C52.0982 19.3881 53.306 19.0991 54.2764 18.521C55.2469 17.9222 55.9902 17.117 56.5063 16.1052C57.0225 15.0935 57.3012 13.9476 57.3425 12.6675H47.7416V9.72528H57.3425C57.2806 8.5071 56.9915 7.39216 56.4754 6.38045C55.9798 5.36874 55.2572 4.55318 54.3074 3.93377C53.3576 3.2937 52.1601 2.97367 50.7148 2.97367C49.7031 2.97367 48.805 3.1182 48.0204 3.40726C47.2564 3.69632 46.6164 4.09894 46.1002 4.61512C45.584 5.11065 45.2227 5.70942 45.0162 6.41142H41.7643C42.074 4.92483 42.6728 3.70665 43.5606 2.75688C44.4484 1.80711 45.5324 1.11543 46.8125 0.681843C48.0926 0.227606 49.445 0.000487028 50.8697 0.000487028C52.5834 0.000487028 54.0596 0.289547 55.2985 0.867666C56.5373 1.42514 57.5593 2.22005 58.3646 3.25241C59.1905 4.28477 59.7995 5.49262 60.1918 6.87598C60.5841 8.23869 60.7803 9.71496 60.7803 11.3048C60.7803 13.4934 60.3983 15.4239 59.6344 17.0963C58.8911 18.7481 57.7555 20.0488 56.2276 20.9986C54.7204 21.9277 52.8415 22.3923 50.5909 22.3923Z" fill="#191919"/>
</svg>
