<svg width="191" height="58" viewBox="0 0 191 58" fill="none" xmlns="http://www.w3.org/2000/svg">
<rect x="0.5" y="0.5" width="189.775" height="56.6475" rx="28.3238" stroke="#191919"/>
<path d="M39.1089 19.2994V21.3921H29.7105V38.7812H27.3513V19.2994H39.1089ZM46.001 39.0857C44.5932 39.0857 43.3787 38.7749 42.3577 38.1534C41.343 37.5256 40.5598 36.6504 40.0081 35.5279C39.4627 34.3991 39.19 33.0864 39.19 31.5897C39.19 30.093 39.4627 28.774 40.0081 27.6324C40.5598 26.4846 41.3272 25.5904 42.3101 24.9499C43.2994 24.303 44.4536 23.9796 45.7727 23.9796C46.5337 23.9796 47.2852 24.1064 48.0272 24.3601C48.7692 24.6138 49.4446 25.026 50.0534 25.5967C50.6622 26.1612 51.1474 26.9095 51.5088 27.8417C51.8703 28.774 52.0511 29.9218 52.0511 31.2853V32.2366H40.7881V30.296H49.768C49.768 29.4715 49.6031 28.7359 49.2734 28.089C48.9499 27.4422 48.487 26.9317 47.8845 26.5575C47.2884 26.1833 46.5845 25.9963 45.7727 25.9963C44.8785 25.9963 44.1048 26.2182 43.4516 26.6622C42.8048 27.0997 42.307 27.6705 41.9582 28.3744C41.6094 29.0784 41.435 29.833 41.435 30.6384V31.9322C41.435 33.0356 41.6252 33.971 42.0057 34.7384C42.3926 35.4994 42.9284 36.0797 43.6134 36.4792C44.2983 36.8724 45.0942 37.069 46.001 37.069C46.5908 37.069 47.1235 36.9865 47.5992 36.8216C48.0811 36.6504 48.4965 36.3967 48.8453 36.0606C49.1941 35.7182 49.4636 35.2933 49.6539 34.7859L51.8228 35.3948C51.5945 36.1304 51.2108 36.7773 50.6717 37.3353C50.1327 37.8871 49.4668 38.3183 48.6741 38.629C47.8814 38.9335 46.9903 39.0857 46.001 39.0857ZM60.9408 39.0857C59.6217 39.0857 58.4644 38.7717 57.4687 38.1439C56.4794 37.5161 55.7057 36.6377 55.1476 35.5089C54.5959 34.3801 54.32 33.061 54.32 31.5516C54.32 30.0296 54.5959 28.701 55.1476 27.5659C55.7057 26.4307 56.4794 25.5492 57.4687 24.9213C58.4644 24.2935 59.6217 23.9796 60.9408 23.9796C62.2599 23.9796 63.4141 24.2935 64.4034 24.9213C65.3991 25.5492 66.1728 26.4307 66.7245 27.5659C67.2826 28.701 67.5616 30.0296 67.5616 31.5516C67.5616 33.061 67.2826 34.3801 66.7245 35.5089C66.1728 36.6377 65.3991 37.5161 64.4034 38.1439C63.4141 38.7717 62.2599 39.0857 60.9408 39.0857ZM60.9408 37.069C61.9428 37.069 62.7672 36.8121 63.4141 36.2985C64.061 35.7848 64.5398 35.1094 64.8505 34.2723C65.1612 33.4351 65.3166 32.5283 65.3166 31.5516C65.3166 30.575 65.1612 29.665 64.8505 28.8215C64.5398 27.9781 64.061 27.2963 63.4141 26.7763C62.7672 26.2563 61.9428 25.9963 60.9408 25.9963C59.9388 25.9963 59.1144 26.2563 58.4675 26.7763C57.8207 27.2963 57.3419 27.9781 57.0311 28.8215C56.7204 29.665 56.565 30.575 56.565 31.5516C56.565 32.5283 56.7204 33.4351 57.0311 34.2723C57.3419 35.1094 57.8207 35.7848 58.4675 36.2985C59.1144 36.8121 59.9388 37.069 60.9408 37.069ZM79.5453 24.1698V26.2626H72.7723V38.7812H70.5273V24.1698H79.5453ZM82.3613 44.2605V24.1698H84.5301V26.4909H84.7965C84.9614 26.2373 85.1897 25.9138 85.4814 25.5206C85.7795 25.1211 86.2044 24.766 86.7561 24.4552C87.3142 24.1381 88.0688 23.9796 89.0201 23.9796C90.2504 23.9796 91.3348 24.2872 92.2734 24.9023C93.212 25.5175 93.9445 26.3895 94.4708 27.5183C94.9972 28.6471 95.2604 29.9789 95.2604 31.5136C95.2604 33.061 94.9972 34.4023 94.4708 35.5374C93.9445 36.6663 93.2152 37.5414 92.2829 38.1629C91.3507 38.7781 90.2758 39.0857 89.0581 39.0857C88.1196 39.0857 87.3681 38.9303 86.8037 38.6195C86.2392 38.3024 85.8048 37.9441 85.5004 37.5446C85.196 37.1387 84.9614 36.8026 84.7965 36.5363H84.6062V44.2605H82.3613ZM84.5682 31.4755C84.5682 32.579 84.7299 33.5525 85.0533 34.3959C85.3768 35.233 85.8492 35.8894 86.4707 36.365C87.0922 36.8343 87.8532 37.069 88.7537 37.069C89.6923 37.069 90.4755 36.8216 91.1034 36.327C91.7375 35.826 92.2132 35.1538 92.5303 34.3103C92.8537 33.4605 93.0154 32.5156 93.0154 31.4755C93.0154 30.4482 92.8569 29.5223 92.5398 28.6979C92.229 27.8671 91.7566 27.2107 91.1224 26.7287C90.4946 26.2404 89.705 25.9963 88.7537 25.9963C87.8405 25.9963 87.0732 26.2277 86.4517 26.6907C85.8302 27.1473 85.3609 27.7878 85.0438 28.6122C84.7267 29.4303 84.5682 30.3848 84.5682 31.4755ZM102.523 39.1237C101.598 39.1237 100.757 38.9493 100.003 38.6005C99.248 38.2454 98.6487 37.7349 98.2047 37.069C97.7608 36.3967 97.5388 35.585 97.5388 34.6337C97.5388 33.7966 97.7037 33.1181 98.0335 32.598C98.3633 32.0717 98.804 31.6595 99.3558 31.3614C99.9075 31.0633 100.516 30.8414 101.182 30.6955C101.854 30.5433 102.53 30.4228 103.208 30.334C104.096 30.2199 104.816 30.1343 105.368 30.0772C105.926 30.0138 106.332 29.9091 106.585 29.7633C106.845 29.6174 106.975 29.3637 106.975 29.0023V28.9262C106.975 27.9876 106.719 27.2583 106.205 26.7383C105.698 26.2182 104.927 25.9582 103.893 25.9582C102.822 25.9582 101.981 26.1929 101.372 26.6622C100.764 27.1314 100.336 27.6324 100.088 28.1651L97.9574 27.4041C98.3379 26.5163 98.8453 25.825 99.4794 25.3304C100.12 24.8294 100.818 24.4806 101.572 24.284C102.333 24.0811 103.082 23.9796 103.817 23.9796C104.286 23.9796 104.826 24.0367 105.434 24.1508C106.049 24.2586 106.642 24.4838 107.213 24.8262C107.79 25.1687 108.269 25.6855 108.65 26.3768C109.03 27.068 109.22 27.9939 109.22 29.1545V38.7812H106.975V36.8026H106.861C106.709 37.1197 106.455 37.459 106.1 37.8205C105.745 38.182 105.273 38.4895 104.683 38.7432C104.093 38.9969 103.373 39.1237 102.523 39.1237ZM102.866 37.107C103.754 37.107 104.502 36.9326 105.111 36.5838C105.726 36.235 106.189 35.7848 106.5 35.233C106.817 34.6813 106.975 34.101 106.975 33.4922V31.4375C106.88 31.5516 106.671 31.6563 106.348 31.7514C106.03 31.8402 105.663 31.9195 105.244 31.9892C104.832 32.0526 104.429 32.1097 104.036 32.1605C103.649 32.2048 103.335 32.2429 103.094 32.2746C102.511 32.3507 101.965 32.4744 101.458 32.6456C100.957 32.8105 100.551 33.061 100.24 33.3971C99.936 33.7269 99.7838 34.1771 99.7838 34.7479C99.7838 35.5279 100.072 36.1177 100.649 36.5172C101.233 36.9104 101.972 37.107 102.866 37.107ZM118.793 43.7659V19.2994H121.038V43.7659H118.793ZM118.793 39.0857C117.803 39.0857 116.903 38.9081 116.091 38.5529C115.279 38.1915 114.582 37.681 113.998 37.0214C113.415 36.3555 112.965 35.5596 112.647 34.6337C112.33 33.7078 112.172 32.6805 112.172 31.5516C112.172 30.4101 112.33 29.3764 112.647 28.4505C112.965 27.5183 113.415 26.7192 113.998 26.0533C114.582 25.3875 115.279 24.8769 116.091 24.5218C116.903 24.1603 117.803 23.9796 118.793 23.9796H119.478V39.0857H118.793ZM118.793 37.069H119.173V25.9963H118.793C118.044 25.9963 117.394 26.1485 116.843 26.4529C116.291 26.7509 115.834 27.16 115.473 27.68C115.118 28.1937 114.851 28.7835 114.674 29.4494C114.502 30.1152 114.417 30.816 114.417 31.5516C114.417 32.5283 114.572 33.4351 114.883 34.2723C115.194 35.1094 115.672 35.7848 116.319 36.2985C116.966 36.8121 117.791 37.069 118.793 37.069ZM121.038 39.0857H120.353V23.9796H121.038C122.027 23.9796 122.927 24.1603 123.739 24.5218C124.551 24.8769 125.249 25.3875 125.832 26.0533C126.415 26.7192 126.866 27.5183 127.183 28.4505C127.5 29.3764 127.658 30.4101 127.658 31.5516C127.658 32.6805 127.5 33.7078 127.183 34.6337C126.866 35.5596 126.415 36.3555 125.832 37.0214C125.249 37.681 124.551 38.1915 123.739 38.5529C122.927 38.9081 122.027 39.0857 121.038 39.0857ZM121.038 37.069C121.792 37.069 122.442 36.9231 122.988 36.6314C123.539 36.3333 123.993 35.9275 124.348 35.4138C124.709 34.8938 124.976 34.304 125.147 33.6444C125.325 32.9785 125.413 32.2809 125.413 31.5516C125.413 30.575 125.258 29.665 124.947 28.8215C124.637 27.9781 124.158 27.2963 123.511 26.7763C122.864 26.2563 122.04 25.9963 121.038 25.9963H120.657V37.069H121.038ZM132.874 35.4709L139.913 24.1698H142.501V38.7812H140.256V27.4802L133.254 38.7812H130.629V24.1698H132.874V35.4709ZM154.941 38.7812V26.2246H151.06C150.185 26.2246 149.497 26.4275 148.996 26.8334C148.495 27.2393 148.244 27.7973 148.244 28.5076C148.244 29.2052 148.469 29.7538 148.92 30.1533C149.376 30.5528 150.001 30.7526 150.794 30.7526H155.512V32.8454H150.794C149.804 32.8454 148.951 32.671 148.235 32.3222C147.518 31.9734 146.966 31.4755 146.579 30.8287C146.193 30.1755 145.999 29.4018 145.999 28.5076C145.999 27.6071 146.202 26.8334 146.608 26.1865C147.014 25.5397 147.594 25.0418 148.349 24.693C149.11 24.3442 150.013 24.1698 151.06 24.1698H157.072V38.7812H154.941ZM145.2 38.7812L149.348 31.5136H151.783L147.635 38.7812H145.2Z" fill="#191919"/>
</svg>
