<svg width="273" height="58" viewBox="0 0 273 58" fill="none" xmlns="http://www.w3.org/2000/svg">
<rect x="0.5" y="0.5" width="271.66" height="56.6475" rx="28.3238" stroke="#191919"/>
<path d="M21.5443 20.5306H24.6264C26.0723 20.5306 27.3565 20.854 28.479 21.5009C29.6015 22.1478 30.483 23.0483 31.1235 24.2025C31.7641 25.3567 32.0843 26.6948 32.0843 28.2168C32.0843 29.7388 31.7641 31.0801 31.1235 32.2407C30.483 33.4012 29.6015 34.3081 28.479 34.9613C27.3565 35.6145 26.0723 35.9411 24.6264 35.9411H21.5443C20.0984 35.9411 18.8142 35.6177 17.6917 34.9708C16.5692 34.3239 15.6877 33.4234 15.0472 32.2692C14.4067 31.115 14.0864 29.7769 14.0864 28.2549C14.0864 26.7328 14.4067 25.3916 15.0472 24.231C15.6877 23.0705 16.5692 22.1636 17.6917 21.5104C18.8142 20.8572 20.0984 20.5306 21.5443 20.5306ZM21.5443 22.6234C20.4408 22.6234 19.5086 22.8549 18.7476 23.3178C17.9929 23.7808 17.419 24.434 17.0258 25.2774C16.639 26.1209 16.4455 27.1134 16.4455 28.2549C16.4455 29.3837 16.639 30.3667 17.0258 31.2038C17.419 32.0409 17.9929 32.6909 18.7476 33.1539C19.5086 33.6168 20.4408 33.8483 21.5443 33.8483H24.6264C25.7299 33.8483 26.6589 33.6168 27.4136 33.1539C28.1746 32.6909 28.7485 32.0377 29.1354 31.1943C29.5286 30.3508 29.7252 29.3583 29.7252 28.2168C29.7252 27.088 29.5286 26.105 29.1354 25.2679C28.7485 24.4308 28.1746 23.7808 27.4136 23.3178C26.6589 22.8549 25.7299 22.6234 24.6264 22.6234H21.5443ZM24.284 17.8671V38.4905H21.9248V17.8671H24.284ZM35.2712 43.1707V23.08H37.4401V25.4011H37.7065C37.8713 25.1474 38.0997 24.824 38.3914 24.4308C38.6894 24.0313 39.1143 23.6761 39.6661 23.3654C40.2241 23.0483 40.9788 22.8897 41.9301 22.8897C43.1604 22.8897 44.2448 23.1973 45.1834 23.8125C46.122 24.4276 46.8544 25.2996 47.3808 26.4284C47.9072 27.5573 48.1704 28.889 48.1704 30.4238C48.1704 31.9711 47.9072 33.3124 47.3808 34.4476C46.8544 35.5764 46.1251 36.4516 45.1929 37.0731C44.2607 37.6882 43.1857 37.9958 41.9681 37.9958C41.0295 37.9958 40.278 37.8404 39.7136 37.5297C39.1492 37.2126 38.7148 36.8543 38.4104 36.4548C38.106 36.0489 37.8713 35.7128 37.7065 35.4464H37.5162V43.1707H35.2712ZM37.4782 30.3857C37.4782 31.4892 37.6399 32.4626 37.9633 33.3061C38.2867 34.1432 38.7592 34.7996 39.3807 35.2752C40.0022 35.7445 40.7632 35.9791 41.6637 35.9791C42.6023 35.9791 43.3855 35.7318 44.0133 35.2371C44.6475 34.7361 45.1231 34.0639 45.4402 33.2205C45.7637 32.3707 45.9254 31.4257 45.9254 30.3857C45.9254 29.3583 45.7668 28.4324 45.4498 27.608C45.139 26.7772 44.6665 26.1209 44.0324 25.6389C43.4045 25.1506 42.615 24.9064 41.6637 24.9064C40.7505 24.9064 39.9832 25.1379 39.3617 25.6008C38.7402 26.0575 38.2709 26.698 37.9538 27.5224C37.6367 28.3405 37.4782 29.2949 37.4782 30.3857ZM55.4334 38.0339C54.5075 38.0339 53.6673 37.8595 52.9126 37.5107C52.1579 37.1555 51.5586 36.645 51.1147 35.9791C50.6708 35.3069 50.4488 34.4952 50.4488 33.5439C50.4488 32.7068 50.6137 32.0282 50.9435 31.5082C51.2733 30.9818 51.714 30.5696 52.2657 30.2715C52.8175 29.9735 53.4263 29.7515 54.0922 29.6057C54.7644 29.4535 55.4398 29.333 56.1184 29.2442C57.0062 29.13 57.726 29.0444 58.2777 28.9873C58.8358 28.9239 59.2417 28.8193 59.4953 28.6734C59.7554 28.5276 59.8854 28.2739 59.8854 27.9124V27.8363C59.8854 26.8977 59.6285 26.1684 59.1148 25.6484C58.6075 25.1284 57.837 24.8684 56.8033 24.8684C55.7315 24.8684 54.8912 25.103 54.2824 25.5723C53.6736 26.0416 53.2455 26.5426 52.9982 27.0753L50.8674 26.3143C51.2479 25.4264 51.7552 24.7352 52.3894 24.2405C53.0299 23.7395 53.7275 23.3907 54.4822 23.1941C55.2432 22.9912 55.9915 22.8897 56.7272 22.8897C57.1965 22.8897 57.7355 22.9468 58.3443 23.061C58.9595 23.1688 59.5524 23.3939 60.1232 23.7364C60.7003 24.0788 61.1791 24.5957 61.5596 25.2869C61.9401 25.9782 62.1303 26.9041 62.1303 28.0646V37.6914H59.8854V35.7128H59.7712C59.619 36.0299 59.3653 36.3691 59.0102 36.7306C58.6551 37.0921 58.1826 37.3997 57.5928 37.6534C57.003 37.907 56.2832 38.0339 55.4334 38.0339ZM55.7759 36.0172C56.6637 36.0172 57.4121 35.8428 58.0209 35.494C58.636 35.1452 59.099 34.6949 59.4097 34.1432C59.7268 33.5915 59.8854 33.0112 59.8854 32.4024V30.3477C59.7902 30.4618 59.581 30.5664 59.2575 30.6616C58.9404 30.7504 58.5726 30.8296 58.1541 30.8994C57.7418 30.9628 57.3391 31.0199 56.946 31.0706C56.5591 31.115 56.2452 31.1531 56.0042 31.1848C55.4208 31.2609 54.8754 31.3845 54.368 31.5558C53.867 31.7206 53.4612 31.9711 53.1504 32.3073C52.846 32.637 52.6938 33.0873 52.6938 33.658C52.6938 34.4381 52.9824 35.0279 53.5595 35.4274C54.1429 35.8206 54.8817 36.0172 55.7759 36.0172ZM75.5457 29.3583V31.4511H67.479V29.3583H75.5457ZM68.0117 23.08V37.6914H65.7667V23.08H68.0117ZM77.258 23.08V37.6914H75.013V23.08H77.258ZM92.388 23.08V35.5986H94.4428V42.4097H92.1978V37.6914H80.8968V23.08H83.1417V35.5986H90.143V23.08H92.388ZM98.8853 43.1707C98.5048 43.1707 98.1656 43.139 97.8675 43.0756C97.5694 43.0185 97.3633 42.9614 97.2492 42.9043L97.8199 40.9257C98.3653 41.0652 98.8473 41.116 99.2658 41.0779C99.6844 41.0399 100.055 40.8528 100.379 40.5167C100.709 40.1869 101.01 39.651 101.283 38.909L101.701 37.7675L96.2979 23.08H98.7331L102.766 34.7235H102.919L106.952 23.08H109.387L103.185 39.8222C102.906 40.5769 102.56 41.2016 102.148 41.6962C101.736 42.1972 101.257 42.5682 100.712 42.8092C100.173 43.0502 99.5639 43.1707 98.8853 43.1707ZM110.976 33.9625H113.373C113.424 34.622 113.722 35.123 114.267 35.4654C114.819 35.8079 115.536 35.9791 116.417 35.9791C117.318 35.9791 118.088 35.7952 118.729 35.4274C119.369 35.0532 119.69 34.4508 119.69 33.62C119.69 33.1317 119.569 32.7068 119.328 32.3453C119.087 31.9775 118.748 31.6921 118.31 31.4892C117.873 31.2862 117.356 31.1848 116.76 31.1848H114.248V29.1681H116.76C117.654 29.1681 118.313 28.9651 118.738 28.5593C119.17 28.1534 119.385 27.6461 119.385 27.0373C119.385 26.3841 119.154 25.8609 118.691 25.4677C118.228 25.0681 117.572 24.8684 116.722 24.8684C115.866 24.8684 115.152 25.0618 114.581 25.4486C114.011 25.8291 113.709 26.3206 113.678 26.9231H111.319C111.344 26.1367 111.585 25.4423 112.041 24.8398C112.498 24.231 113.12 23.7554 113.906 23.4129C114.692 23.0641 115.593 22.8897 116.608 22.8897C117.635 22.8897 118.526 23.0705 119.281 23.432C120.042 23.7871 120.628 24.2722 121.04 24.8874C121.459 25.4962 121.668 26.1875 121.668 26.9612C121.668 27.7856 121.437 28.4515 120.974 28.9588C120.511 29.4661 119.931 29.8276 119.233 30.0432V30.1954C119.785 30.2335 120.264 30.4111 120.669 30.7282C121.082 31.0389 121.402 31.4479 121.63 31.9553C121.859 32.4563 121.973 33.0112 121.973 33.62C121.973 34.5078 121.735 35.2815 121.259 35.9411C120.784 36.5943 120.13 37.1016 119.3 37.4631C118.469 37.8182 117.521 37.9958 116.455 37.9958C115.422 37.9958 114.496 37.8278 113.678 37.4916C112.86 37.1492 112.21 36.6767 111.728 36.0743C111.252 35.4654 111.001 34.7615 110.976 33.9625ZM130.601 37.9958C129.231 37.9958 128.051 37.6724 127.062 37.0255C126.073 36.3787 125.312 35.4876 124.779 34.3525C124.246 33.2173 123.98 31.9204 123.98 30.4618C123.98 28.9778 124.253 27.6683 124.798 26.5331C125.35 25.3916 126.117 24.5006 127.1 23.86C128.09 23.2132 129.244 22.8897 130.563 22.8897C131.59 22.8897 132.516 23.08 133.34 23.4605C134.165 23.841 134.84 24.3737 135.367 25.0586C135.893 25.7435 136.22 26.5426 136.346 27.4558H134.101C133.93 26.7899 133.55 26.2001 132.96 25.6865C132.377 25.1664 131.59 24.9064 130.601 24.9064C129.726 24.9064 128.958 25.1347 128.299 25.5913C127.646 26.0416 127.135 26.6789 126.767 27.5034C126.406 28.3215 126.225 29.2822 126.225 30.3857C126.225 31.5145 126.403 32.4975 126.758 33.3346C127.119 34.1717 127.627 34.8218 128.28 35.2847C128.939 35.7477 129.713 35.9791 130.601 35.9791C131.184 35.9791 131.714 35.8777 132.189 35.6747C132.665 35.4718 133.068 35.1801 133.398 34.7996C133.727 34.4191 133.962 33.9625 134.101 33.4297H136.346C136.22 34.2922 135.906 35.0691 135.405 35.7603C134.91 36.4453 134.254 36.9906 133.436 37.3965C132.624 37.796 131.679 37.9958 130.601 37.9958ZM139.167 37.6914V23.08H141.412V29.4344H142.896L148.147 23.08H151.039L145.141 30.1193L151.115 37.6914H148.223L143.429 31.5272H141.412V37.6914H139.167ZM155.339 34.381L162.378 23.08H164.966V37.6914H162.721V26.3904L155.719 37.6914H153.094V23.08H155.339V34.381ZM170.861 34.381L177.901 23.08H180.488V37.6914H178.243V26.3904L171.242 37.6914H168.616V23.08H170.861V34.381ZM176.417 18.2095H178.509C178.509 19.2369 178.154 20.0772 177.444 20.7304C176.734 21.3836 175.77 21.7102 174.552 21.7102C173.354 21.7102 172.399 21.3836 171.689 20.7304C170.985 20.0772 170.633 19.2369 170.633 18.2095H172.726C172.726 18.7042 172.862 19.1386 173.135 19.5128C173.414 19.8869 173.886 20.074 174.552 20.074C175.218 20.074 175.694 19.8869 175.979 19.5128C176.271 19.1386 176.417 18.7042 176.417 18.2095ZM200.001 37.6914V25.1347H196.12C195.245 25.1347 194.557 25.3377 194.056 25.7435C193.555 26.1494 193.304 26.7075 193.304 27.4178C193.304 28.1154 193.529 28.6639 193.98 29.0634C194.436 29.463 195.061 29.6627 195.854 29.6627H200.572V31.7555H195.854C194.864 31.7555 194.011 31.5811 193.295 31.2323C192.578 30.8835 192.026 30.3857 191.64 29.7388C191.253 29.0856 191.059 28.3119 191.059 27.4178C191.059 26.5172 191.262 25.7435 191.668 25.0967C192.074 24.4498 192.654 23.952 193.409 23.6032C194.17 23.2544 195.074 23.08 196.12 23.08H202.132V37.6914H200.001ZM190.26 37.6914L194.408 30.4238H196.843L192.695 37.6914H190.26ZM204.879 33.9625H207.276C207.327 34.622 207.625 35.123 208.17 35.4654C208.722 35.8079 209.439 35.9791 210.32 35.9791C211.221 35.9791 211.991 35.7952 212.632 35.4274C213.272 35.0532 213.593 34.4508 213.593 33.62C213.593 33.1317 213.472 32.7068 213.231 32.3453C212.99 31.9775 212.651 31.6921 212.213 31.4892C211.776 31.2862 211.259 31.1848 210.663 31.1848H208.151V29.1681H210.663C211.557 29.1681 212.216 28.9651 212.641 28.5593C213.073 28.1534 213.288 27.6461 213.288 27.0373C213.288 26.3841 213.057 25.8609 212.594 25.4677C212.131 25.0681 211.474 24.8684 210.625 24.8684C209.768 24.8684 209.055 25.0618 208.484 25.4486C207.914 25.8291 207.612 26.3206 207.581 26.9231H205.221C205.247 26.1367 205.488 25.4423 205.944 24.8398C206.401 24.231 207.022 23.7554 207.809 23.4129C208.595 23.0641 209.496 22.8897 210.51 22.8897C211.538 22.8897 212.429 23.0705 213.184 23.432C213.945 23.7871 214.531 24.2722 214.943 24.8874C215.362 25.4962 215.571 26.1875 215.571 26.9612C215.571 27.7856 215.34 28.4515 214.877 28.9588C214.414 29.4661 213.834 29.8276 213.136 30.0432V30.1954C213.688 30.2335 214.166 30.4111 214.572 30.7282C214.985 31.0389 215.305 31.4479 215.533 31.9553C215.761 32.4563 215.876 33.0112 215.876 33.62C215.876 34.5078 215.638 35.2815 215.162 35.9411C214.687 36.5943 214.033 37.1016 213.203 37.4631C212.372 37.8182 211.424 37.9958 210.358 37.9958C209.325 37.9958 208.399 37.8278 207.581 37.4916C206.762 37.1492 206.112 36.6767 205.63 36.0743C205.155 35.4654 204.904 34.7615 204.879 33.9625ZM220.508 28.369H224.694C226.406 28.369 227.716 28.8034 228.623 29.6723C229.53 30.5411 229.983 31.6414 229.983 32.9731C229.983 33.8483 229.78 34.6442 229.374 35.3608C228.968 36.0711 228.372 36.6387 227.586 37.0636C226.799 37.4821 225.835 37.6914 224.694 37.6914H218.568V23.08H220.813V35.5986H224.694C225.582 35.5986 226.311 35.364 226.882 34.8947C227.453 34.4254 227.738 33.8229 227.738 33.0873C227.738 32.3136 227.453 31.6826 226.882 31.1943C226.311 30.706 225.582 30.4618 224.694 30.4618H220.508V28.369ZM232.304 37.6914V23.08H234.549V37.6914H232.304ZM238.197 37.6914V23.08H240.442V29.4344H241.926L247.177 23.08H250.069L244.171 30.1193L250.145 37.6914H247.253L242.459 31.5272H240.442V37.6914H238.197Z" fill="#191919"/>
</svg>
