<svg width="276" height="58" viewBox="0 0 276 58" fill="none" xmlns="http://www.w3.org/2000/svg">
<rect x="0.5" y="0.5" width="274.824" height="56.6475" rx="28.3238" stroke="#191919"/>
<path d="M29.6013 18.8169H32.4171L39.0379 34.9884H39.2662L45.887 18.8169H48.7027V38.2988H46.4958V23.4972H46.3055L40.2174 38.2988H38.0866L31.9985 23.4972H31.8083V38.2988H29.6013V18.8169ZM56.967 38.6413C56.0411 38.6413 55.2008 38.4669 54.4461 38.1181C53.6915 37.7629 53.0922 37.2524 52.6482 36.5866C52.2043 35.9143 51.9824 35.1026 51.9824 34.1513C51.9824 33.3142 52.1472 32.6356 52.477 32.1156C52.8068 31.5892 53.2475 31.177 53.7993 30.879C54.351 30.5809 54.9598 30.3589 55.6257 30.2131C56.2979 30.0609 56.9733 29.9404 57.6519 29.8516C58.5397 29.7375 59.2595 29.6518 59.8113 29.5948C60.3693 29.5313 60.7752 29.4267 61.0289 29.2808C61.2889 29.135 61.4189 28.8813 61.4189 28.5198V28.4437C61.4189 27.5052 61.1621 26.7759 60.6484 26.2558C60.141 25.7358 59.3705 25.4758 58.3368 25.4758C57.265 25.4758 56.4248 25.7104 55.816 26.1797C55.2071 26.649 54.7791 27.15 54.5317 27.6827L52.4009 26.9217C52.7814 26.0339 53.2888 25.3426 53.9229 24.848C54.5635 24.347 55.261 23.9982 56.0157 23.8016C56.7767 23.5986 57.5251 23.4972 58.2607 23.4972C58.73 23.4972 59.269 23.5542 59.8778 23.6684C60.493 23.7762 61.086 24.0013 61.6567 24.3438C62.2338 24.6862 62.7126 25.2031 63.0931 25.8944C63.4736 26.5856 63.6639 27.5115 63.6639 28.672V38.2988H61.4189V36.3202H61.3047C61.1525 36.6373 60.8989 36.9766 60.5437 37.3381C60.1886 37.6995 59.7161 38.0071 59.1264 38.2608C58.5366 38.5144 57.8168 38.6413 56.967 38.6413ZM57.3094 36.6246C58.1973 36.6246 58.9456 36.4502 59.5544 36.1014C60.1696 35.7526 60.6325 35.3023 60.9433 34.7506C61.2604 34.1989 61.4189 33.6186 61.4189 33.0098V30.9551C61.3238 31.0692 61.1145 31.1739 60.7911 31.269C60.474 31.3578 60.1062 31.437 59.6876 31.5068C59.2754 31.5702 58.8727 31.6273 58.4795 31.678C58.0926 31.7224 57.7787 31.7605 57.5377 31.7922C56.9543 31.8683 56.4089 31.9919 55.9016 32.1632C55.4006 32.3281 54.9947 32.5786 54.6839 32.9147C54.3795 33.2444 54.2273 33.6947 54.2273 34.2655C54.2273 35.0455 54.5159 35.6353 55.093 36.0348C55.6764 36.428 56.4152 36.6246 57.3094 36.6246ZM65.3121 25.7802V23.6874H77.1839V25.7802H72.3895V38.2988H70.1445V25.7802H65.3121ZM85.3649 38.6032C83.9571 38.6032 82.7426 38.2925 81.7216 37.671C80.7069 37.0432 79.9237 36.168 79.372 35.0455C78.8266 33.9167 78.5539 32.6039 78.5539 31.1073C78.5539 29.6106 78.8266 28.2915 79.372 27.15C79.9237 26.0022 80.6911 25.108 81.674 24.4675C82.6634 23.8206 83.8176 23.4972 85.1366 23.4972C85.8977 23.4972 86.6492 23.624 87.3911 23.8777C88.1331 24.1313 88.8085 24.5436 89.4173 25.1143C90.0261 25.6787 90.5113 26.4271 90.8728 27.3593C91.2342 28.2915 91.415 29.4394 91.415 30.8029V31.7541H80.152V29.8136H89.132C89.132 28.9891 88.9671 28.2535 88.6373 27.6066C88.3139 26.9598 87.8509 26.4493 87.2484 26.0751C86.6523 25.7009 85.9484 25.5138 85.1366 25.5138C84.2425 25.5138 83.4688 25.7358 82.8156 26.1797C82.1687 26.6173 81.6709 27.1881 81.3221 27.892C80.9733 28.5959 80.7989 29.3506 80.7989 30.156V31.4497C80.7989 32.5532 80.9891 33.4886 81.3696 34.256C81.7565 35.017 82.2924 35.5972 82.9773 35.9968C83.6622 36.39 84.4581 36.5866 85.3649 36.5866C85.9547 36.5866 86.4874 36.5041 86.9631 36.3392C87.445 36.168 87.8604 35.9143 88.2092 35.5782C88.558 35.2358 88.8275 34.8109 89.0178 34.3035L91.1867 34.9123C90.9584 35.648 90.5747 36.2948 90.0357 36.8529C89.4966 37.4046 88.8307 37.8359 88.038 38.1466C87.2453 38.451 86.3543 38.6032 85.3649 38.6032ZM102.359 35.2548L107.458 23.6874H109.589L103.273 38.2988H101.446L95.244 23.6874H97.3368L102.359 35.2548ZM96.6138 23.6874V38.2988H94.3688V23.6874H96.6138ZM108.105 38.2988V23.6874H110.35V38.2988H108.105ZM118.298 38.6413C117.372 38.6413 116.532 38.4669 115.777 38.1181C115.023 37.7629 114.423 37.2524 113.979 36.5866C113.535 35.9143 113.313 35.1026 113.313 34.1513C113.313 33.3142 113.478 32.6356 113.808 32.1156C114.138 31.5892 114.579 31.177 115.13 30.879C115.682 30.5809 116.291 30.3589 116.957 30.2131C117.629 30.0609 118.304 29.9404 118.983 29.8516C119.871 29.7375 120.591 29.6518 121.142 29.5948C121.7 29.5313 122.106 29.4267 122.36 29.2808C122.62 29.135 122.75 28.8813 122.75 28.5198V28.4437C122.75 27.5052 122.493 26.7759 121.979 26.2558C121.472 25.7358 120.702 25.4758 119.668 25.4758C118.596 25.4758 117.756 25.7104 117.147 26.1797C116.538 26.649 116.11 27.15 115.863 27.6827L113.732 26.9217C114.113 26.0339 114.62 25.3426 115.254 24.848C115.895 24.347 116.592 23.9982 117.347 23.8016C118.108 23.5986 118.856 23.4972 119.592 23.4972C120.061 23.4972 120.6 23.5542 121.209 23.6684C121.824 23.7762 122.417 24.0013 122.988 24.3438C123.565 24.6862 124.044 25.2031 124.424 25.8944C124.805 26.5856 124.995 27.5115 124.995 28.672V38.2988H122.75V36.3202H122.636C122.484 36.6373 122.23 36.9766 121.875 37.3381C121.52 37.6995 121.047 38.0071 120.457 38.2608C119.868 38.5144 119.148 38.6413 118.298 38.6413ZM118.641 36.6246C119.528 36.6246 120.277 36.4502 120.885 36.1014C121.501 35.7526 121.964 35.3023 122.274 34.7506C122.591 34.1989 122.75 33.6186 122.75 33.0098V30.9551C122.655 31.0692 122.446 31.1739 122.122 31.269C121.805 31.3578 121.437 31.437 121.019 31.5068C120.606 31.5702 120.204 31.6273 119.811 31.678C119.424 31.7224 119.11 31.7605 118.869 31.7922C118.285 31.8683 117.74 31.9919 117.233 32.1632C116.732 32.3281 116.326 32.5786 116.015 32.9147C115.711 33.2444 115.558 33.6947 115.558 34.2655C115.558 35.0455 115.847 35.6353 116.424 36.0348C117.008 36.428 117.746 36.6246 118.641 36.6246ZM126.643 25.7802V23.6874H138.515V25.7802H133.721V38.2988H131.476V25.7802H126.643ZM143.574 34.9884L150.613 23.6874H153.2V38.2988H150.955V26.9978L143.954 38.2988H141.329V23.6874H143.574V34.9884ZM156.851 38.2988V23.6874H159.096V30.0419H160.58L165.831 23.6874H168.723L162.825 30.7268L168.799 38.2988H165.907L161.113 32.1346H159.096V38.2988H156.851ZM175.077 38.6413C174.151 38.6413 173.311 38.4669 172.556 38.1181C171.802 37.7629 171.203 37.2524 170.759 36.5866C170.315 35.9143 170.093 35.1026 170.093 34.1513C170.093 33.3142 170.258 32.6356 170.587 32.1156C170.917 31.5892 171.358 31.177 171.91 30.879C172.461 30.5809 173.07 30.3589 173.736 30.2131C174.408 30.0609 175.084 29.9404 175.762 29.8516C176.65 29.7375 177.37 29.6518 177.922 29.5948C178.48 29.5313 178.886 29.4267 179.139 29.2808C179.399 29.135 179.529 28.8813 179.529 28.5198V28.4437C179.529 27.5052 179.272 26.7759 178.759 26.2558C178.251 25.7358 177.481 25.4758 176.447 25.4758C175.375 25.4758 174.535 25.7104 173.926 26.1797C173.318 26.649 172.889 27.15 172.642 27.6827L170.511 26.9217C170.892 26.0339 171.399 25.3426 172.033 24.848C172.674 24.347 173.371 23.9982 174.126 23.8016C174.887 23.5986 175.635 23.4972 176.371 23.4972C176.84 23.4972 177.379 23.5542 177.988 23.6684C178.603 23.7762 179.196 24.0013 179.767 24.3438C180.344 24.6862 180.823 25.2031 181.203 25.8944C181.584 26.5856 181.774 27.5115 181.774 28.672V38.2988H179.529V36.3202H179.415C179.263 36.6373 179.009 36.9766 178.654 37.3381C178.299 37.6995 177.826 38.0071 177.237 38.2608C176.647 38.5144 175.927 38.6413 175.077 38.6413ZM175.42 36.6246C176.308 36.6246 177.056 36.4502 177.665 36.1014C178.28 35.7526 178.743 35.3023 179.054 34.7506C179.371 34.1989 179.529 33.6186 179.529 33.0098V30.9551C179.434 31.0692 179.225 31.1739 178.901 31.269C178.584 31.3578 178.217 31.437 177.798 31.5068C177.386 31.5702 176.983 31.6273 176.59 31.678C176.203 31.7224 175.889 31.7605 175.648 31.7922C175.065 31.8683 174.519 31.9919 174.012 32.1632C173.511 32.3281 173.105 32.5786 172.794 32.9147C172.49 33.2444 172.338 33.6947 172.338 34.2655C172.338 35.0455 172.626 35.6353 173.203 36.0348C173.787 36.428 174.526 36.6246 175.42 36.6246ZM203.328 18.2081L204.469 19.578C204.025 20.0092 203.512 20.3104 202.928 20.4817C202.345 20.6529 201.685 20.7575 200.95 20.7956C200.214 20.8336 199.396 20.8717 198.495 20.9097C197.481 20.9478 196.64 21.1951 195.975 21.6517C195.309 22.1083 194.795 22.7679 194.434 23.6303C194.072 24.4928 193.841 25.5519 193.739 26.8076H193.929C194.424 25.8943 195.109 25.2221 195.984 24.7909C196.859 24.3596 197.798 24.144 198.8 24.144C199.941 24.144 200.969 24.4104 201.882 24.9431C202.795 25.4758 203.518 26.2653 204.051 27.3117C204.584 28.3581 204.85 29.6487 204.85 31.1834C204.85 32.7117 204.577 34.0308 204.032 35.1406C203.493 36.2504 202.735 37.1066 201.758 37.709C200.788 38.3052 199.65 38.6032 198.343 38.6032C197.037 38.6032 195.892 38.2957 194.909 37.6805C193.926 37.059 193.162 36.1395 192.617 34.9218C192.071 33.6979 191.799 32.1854 191.799 30.3843V28.8242C191.799 25.5709 192.35 23.104 193.454 21.4234C194.564 19.7428 196.231 18.874 198.457 18.8169C199.244 18.7916 199.945 18.7852 200.56 18.7979C201.175 18.8106 201.711 18.7821 202.167 18.7123C202.624 18.6425 203.011 18.4745 203.328 18.2081ZM198.343 36.5866C199.225 36.5866 199.983 36.3646 200.617 35.9207C201.257 35.4767 201.749 34.8521 202.091 34.0467C202.434 33.2349 202.605 32.2805 202.605 31.1834C202.605 30.118 202.431 29.2111 202.082 28.4628C201.739 27.7144 201.248 27.1437 200.607 26.7505C199.967 26.3573 199.199 26.1607 198.305 26.1607C197.652 26.1607 197.065 26.2717 196.545 26.4936C196.025 26.7156 195.581 27.0422 195.214 27.4734C194.846 27.9047 194.56 28.4311 194.357 29.0525C194.161 29.674 194.056 30.3843 194.044 31.1834C194.044 32.8195 194.427 34.1291 195.195 35.1121C195.962 36.0951 197.011 36.5866 198.343 36.5866ZM212.122 38.6413C211.197 38.6413 210.356 38.4669 209.602 38.1181C208.847 37.7629 208.248 37.2524 207.804 36.5866C207.36 35.9143 207.138 35.1026 207.138 34.1513C207.138 33.3142 207.303 32.6356 207.633 32.1156C207.962 31.5892 208.403 31.177 208.955 30.879C209.507 30.5809 210.115 30.3589 210.781 30.2131C211.453 30.0609 212.129 29.9404 212.807 29.8516C213.695 29.7375 214.415 29.6518 214.967 29.5948C215.525 29.5313 215.931 29.4267 216.184 29.2808C216.444 29.135 216.574 28.8813 216.574 28.5198V28.4437C216.574 27.5052 216.318 26.7759 215.804 26.2558C215.297 25.7358 214.526 25.4758 213.492 25.4758C212.421 25.4758 211.58 25.7104 210.971 26.1797C210.363 26.649 209.935 27.15 209.687 27.6827L207.556 26.9217C207.937 26.0339 208.444 25.3426 209.078 24.848C209.719 24.347 210.417 23.9982 211.171 23.8016C211.932 23.5986 212.681 23.4972 213.416 23.4972C213.885 23.4972 214.425 23.5542 215.033 23.6684C215.648 23.7762 216.241 24.0013 216.812 24.3438C217.389 24.6862 217.868 25.2031 218.249 25.8944C218.629 26.5856 218.819 27.5115 218.819 28.672V38.2988H216.574V36.3202H216.46C216.308 36.6373 216.054 36.9766 215.699 37.3381C215.344 37.6995 214.872 38.0071 214.282 38.2608C213.692 38.5144 212.972 38.6413 212.122 38.6413ZM212.465 36.6246C213.353 36.6246 214.101 36.4502 214.71 36.1014C215.325 35.7526 215.788 35.3023 216.099 34.7506C216.416 34.1989 216.574 33.6186 216.574 33.0098V30.9551C216.479 31.0692 216.27 31.1739 215.947 31.269C215.629 31.3578 215.262 31.437 214.843 31.5068C214.431 31.5702 214.028 31.6273 213.635 31.678C213.248 31.7224 212.934 31.7605 212.693 31.7922C212.11 31.8683 211.564 31.9919 211.057 32.1632C210.556 32.3281 210.15 32.5786 209.839 32.9147C209.535 33.2444 209.383 33.6947 209.383 34.2655C209.383 35.0455 209.671 35.6353 210.248 36.0348C210.832 36.428 211.571 36.6246 212.465 36.6246ZM221.543 34.5699H223.94C223.99 35.2294 224.289 35.7304 224.834 36.0729C225.386 36.4153 226.102 36.5866 226.984 36.5866C227.884 36.5866 228.655 36.4026 229.295 36.0348C229.936 35.6607 230.256 35.0582 230.256 34.2274C230.256 33.7391 230.136 33.3142 229.895 32.9527C229.654 32.5849 229.314 32.2995 228.877 32.0966C228.439 31.8937 227.922 31.7922 227.326 31.7922H224.815V29.7755H227.326C228.22 29.7755 228.88 29.5726 229.305 29.1667C229.736 28.7608 229.952 28.2535 229.952 27.6447C229.952 26.9915 229.72 26.4683 229.257 26.0751C228.794 25.6756 228.138 25.4758 227.288 25.4758C226.432 25.4758 225.719 25.6692 225.148 26.0561C224.577 26.4366 224.276 26.9281 224.244 27.5305H221.885C221.91 26.7441 222.151 26.0497 222.608 25.4473C223.065 24.8384 223.686 24.3628 224.472 24.0204C225.259 23.6716 226.159 23.4972 227.174 23.4972C228.201 23.4972 229.092 23.6779 229.847 24.0394C230.608 24.3945 231.195 24.8797 231.607 25.4948C232.025 26.1036 232.235 26.7949 232.235 27.5686C232.235 28.393 232.003 29.0589 231.54 29.5662C231.077 30.0736 230.497 30.435 229.8 30.6507V30.8029C230.351 30.8409 230.83 31.0185 231.236 31.3356C231.648 31.6463 231.968 32.0554 232.197 32.5627C232.425 33.0637 232.539 33.6186 232.539 34.2274C232.539 35.1153 232.301 35.889 231.826 36.5485C231.35 37.2017 230.697 37.709 229.866 38.0705C229.035 38.4257 228.087 38.6032 227.022 38.6032C225.988 38.6032 225.062 38.4352 224.244 38.0991C223.426 37.7566 222.776 37.2841 222.294 36.6817C221.818 36.0729 221.568 35.3689 221.543 34.5699ZM239.531 38.6413C238.605 38.6413 237.765 38.4669 237.01 38.1181C236.256 37.7629 235.656 37.2524 235.212 36.5866C234.768 35.9143 234.547 35.1026 234.547 34.1513C234.547 33.3142 234.711 32.6356 235.041 32.1156C235.371 31.5892 235.812 31.177 236.363 30.879C236.915 30.5809 237.524 30.3589 238.19 30.2131C238.862 30.0609 239.537 29.9404 240.216 29.8516C241.104 29.7375 241.824 29.6518 242.375 29.5948C242.933 29.5313 243.339 29.4267 243.593 29.2808C243.853 29.135 243.983 28.8813 243.983 28.5198V28.4437C243.983 27.5052 243.726 26.7759 243.213 26.2558C242.705 25.7358 241.935 25.4758 240.901 25.4758C239.829 25.4758 238.989 25.7104 238.38 26.1797C237.771 26.649 237.343 27.15 237.096 27.6827L234.965 26.9217C235.346 26.0339 235.853 25.3426 236.487 24.848C237.128 24.347 237.825 23.9982 238.58 23.8016C239.341 23.5986 240.089 23.4972 240.825 23.4972C241.294 23.4972 241.833 23.5542 242.442 23.6684C243.057 23.7762 243.65 24.0013 244.221 24.3438C244.798 24.6862 245.277 25.2031 245.657 25.8944C246.038 26.5856 246.228 27.5115 246.228 28.672V38.2988H243.983V36.3202H243.869C243.717 36.6373 243.463 36.9766 243.108 37.3381C242.753 37.6995 242.28 38.0071 241.69 38.2608C241.101 38.5144 240.381 38.6413 239.531 38.6413ZM239.874 36.6246C240.761 36.6246 241.51 36.4502 242.119 36.1014C242.734 35.7526 243.197 35.3023 243.507 34.7506C243.824 34.1989 243.983 33.6186 243.983 33.0098V30.9551C243.888 31.0692 243.679 31.1739 243.355 31.269C243.038 31.3578 242.67 31.437 242.252 31.5068C241.84 31.5702 241.437 31.6273 241.044 31.678C240.657 31.7224 240.343 31.7605 240.102 31.7922C239.518 31.8683 238.973 31.9919 238.466 32.1632C237.965 32.3281 237.559 32.5786 237.248 32.9147C236.944 33.2444 236.791 33.6947 236.791 34.2655C236.791 35.0455 237.08 35.6353 237.657 36.0348C238.241 36.428 238.979 36.6246 239.874 36.6246Z" fill="#191919"/>
</svg>
