<svg width="286" height="58" viewBox="0 0 286 58" fill="none" xmlns="http://www.w3.org/2000/svg">
<rect x="0.50518" y="0.50518" width="284.921" height="56.5802" rx="28.2901" stroke="#181818" stroke-width="1.01036"/>
<path d="M51.1329 29.0481C51.1329 31.1029 50.7619 32.8785 50.0199 34.3752C49.2779 35.8719 48.2601 37.0261 46.9664 37.8378C45.6727 38.6495 44.195 39.0554 42.5335 39.0554C40.8719 39.0554 39.3943 38.6495 38.1006 37.8378C36.8069 37.0261 35.789 35.8719 35.047 34.3752C34.3051 32.8785 33.9341 31.1029 33.9341 29.0481C33.9341 26.9934 34.3051 25.2177 35.047 23.721C35.789 22.2244 36.8069 21.0702 38.1006 20.2584C39.3943 19.4467 40.8719 19.0408 42.5335 19.0408C44.195 19.0408 45.6727 19.4467 46.9664 20.2584C48.2601 21.0702 49.2779 22.2244 50.0199 23.721C50.7619 25.2177 51.1329 26.9934 51.1329 29.0481ZM48.8499 29.0481C48.8499 27.3612 48.5677 25.9375 48.0033 24.7769C47.4452 23.6164 46.6873 22.7381 45.7297 22.1419C44.7785 21.5458 43.7131 21.2478 42.5335 21.2478C41.3539 21.2478 40.2853 21.5458 39.3277 22.1419C38.3765 22.7381 37.6186 23.6164 37.0542 24.7769C36.4961 25.9375 36.2171 27.3612 36.2171 29.0481C36.2171 30.735 36.4961 32.1588 37.0542 33.3193C37.6186 34.4798 38.3765 35.3582 39.3277 35.9543C40.2853 36.5504 41.3539 36.8485 42.5335 36.8485C43.7131 36.8485 44.7785 36.5504 45.7297 35.9543C46.6873 35.3582 47.4452 34.4798 48.0033 33.3193C48.5677 32.1588 48.8499 30.735 48.8499 29.0481ZM65.1785 18.6984L66.32 20.0682C65.8761 20.4994 65.3624 20.8007 64.779 20.9719C64.1955 21.1431 63.536 21.2478 62.8003 21.2858C62.0647 21.3239 61.2466 21.3619 60.3461 21.4C59.3314 21.438 58.4911 21.6853 57.8252 22.1419C57.1593 22.5986 56.6457 23.2581 56.2842 24.1206C55.9227 24.9831 55.6912 26.0421 55.5898 27.2978H55.78C56.2747 26.3846 56.9596 25.7124 57.8347 25.2811C58.7099 24.8499 59.6485 24.6343 60.6505 24.6343C61.792 24.6343 62.8194 24.9006 63.7326 25.4333C64.6458 25.966 65.3688 26.7556 65.9015 27.802C66.4342 28.8484 66.7005 30.1389 66.7005 31.6736C66.7005 33.202 66.4278 34.5211 65.8824 35.6309C65.3434 36.7407 64.5855 37.5968 63.6089 38.1993C62.6386 38.7954 61.5003 39.0935 60.1939 39.0935C58.8875 39.0935 57.7428 38.7859 56.7598 38.1707C55.7768 37.5492 55.0127 36.6297 54.4673 35.4121C53.9219 34.1881 53.6492 32.6756 53.6492 30.8745V29.3145C53.6492 26.0612 54.2009 23.5942 55.3044 21.9136C56.4142 20.2331 58.0821 19.3643 60.308 19.3072C61.0944 19.2818 61.7952 19.2755 62.4103 19.2882C63.0255 19.3008 63.5614 19.2723 64.018 19.2025C64.4746 19.1328 64.8614 18.9647 65.1785 18.6984ZM60.1939 37.0768C61.0754 37.0768 61.8332 36.8548 62.4674 36.4109C63.1079 35.967 63.5994 35.3423 63.9419 34.5369C64.2843 33.7252 64.4555 32.7707 64.4555 31.6736C64.4555 30.6082 64.2811 29.7013 63.9323 28.953C63.5899 28.2047 63.0984 27.6339 62.4579 27.2407C61.8174 26.8475 61.05 26.6509 60.1558 26.6509C59.5026 26.6509 58.916 26.7619 58.396 26.9839C57.876 27.2058 57.432 27.5324 57.0642 27.9637C56.6964 28.3949 56.411 28.9213 56.2081 29.5428C56.0115 30.1643 55.9068 30.8745 55.8942 31.6736C55.8942 33.3098 56.2778 34.6194 57.0452 35.6023C57.8125 36.5853 58.8621 37.0768 60.1939 37.0768ZM89.6119 36.6963L89.3455 42.9746H87.0244V38.7891H85.1219V36.6963H89.6119ZM69.6734 24.1777H71.9184V36.6963H77.4357V24.1777H79.6807V36.6963H85.198V24.1777H87.443V38.7891H69.6734V24.1777ZM98.3851 39.0935C96.9772 39.0935 95.7628 38.7827 94.7418 38.1612C93.7271 37.5334 92.9439 36.6582 92.3921 35.5357C91.8467 34.4069 91.5741 33.0942 91.5741 31.5975C91.5741 30.1009 91.8467 28.7818 92.3921 27.6403C92.9439 26.4924 93.7112 25.5982 94.6942 24.9577C95.6835 24.3108 96.8377 23.9874 98.1568 23.9874C98.9178 23.9874 99.6693 24.1142 100.411 24.3679C101.153 24.6216 101.829 25.0338 102.437 25.6045C103.046 26.169 103.531 26.9173 103.893 27.8495C104.254 28.7818 104.435 29.9296 104.435 31.2931V32.2444H93.1722V30.3038H102.152C102.152 29.4794 101.987 28.7437 101.657 28.0969C101.334 27.45 100.871 26.9395 100.269 26.5653C99.6725 26.1912 98.9685 26.0041 98.1568 26.0041C97.2626 26.0041 96.4889 26.226 95.8357 26.67C95.1889 27.1075 94.691 27.6783 94.3422 28.3822C93.9934 29.0862 93.819 29.8408 93.819 30.6462V31.94C93.819 33.0434 94.0093 33.9788 94.3898 34.7462C94.7766 35.5072 95.3125 36.0875 95.9974 36.487C96.6823 36.8802 97.4782 37.0768 98.3851 37.0768C98.9749 37.0768 99.5076 36.9943 99.9832 36.8295C100.465 36.6582 100.881 36.4046 101.229 36.0684C101.578 35.726 101.848 35.3011 102.038 34.7938L104.207 35.4026C103.979 36.1382 103.595 36.7851 103.056 37.3431C102.517 37.8949 101.851 38.3261 101.058 38.6369C100.265 38.9413 99.3744 39.0935 98.3851 39.0935ZM113.325 39.0935C111.955 39.0935 110.775 38.77 109.786 38.1232C108.797 37.4763 108.036 36.5853 107.503 35.4501C106.97 34.315 106.704 33.0181 106.704 31.5595C106.704 30.0755 106.977 28.7659 107.522 27.6307C108.074 26.4892 108.841 25.5982 109.824 24.9577C110.814 24.3108 111.968 23.9874 113.287 23.9874C114.314 23.9874 115.24 24.1777 116.065 24.5582C116.889 24.9387 117.564 25.4714 118.091 26.1563C118.617 26.8412 118.944 27.6403 119.071 28.5535H116.826C116.654 27.8876 116.274 27.2978 115.684 26.7841C115.101 26.2641 114.314 26.0041 113.325 26.0041C112.45 26.0041 111.682 26.2324 111.023 26.689C110.37 27.1393 109.859 27.7766 109.491 28.601C109.13 29.4191 108.949 30.3799 108.949 31.4834C108.949 32.6122 109.127 33.5952 109.482 34.4323C109.843 35.2694 110.351 35.9194 111.004 36.3824C111.663 36.8453 112.437 37.0768 113.325 37.0768C113.908 37.0768 114.438 36.9753 114.913 36.7724C115.389 36.5694 115.792 36.2777 116.122 35.8972C116.451 35.5167 116.686 35.0601 116.826 34.5274H119.071C118.944 35.3899 118.63 36.1667 118.129 36.858C117.634 37.5429 116.978 38.0883 116.16 38.4942C115.348 38.8937 114.403 39.0935 113.325 39.0935ZM120.74 26.2704V24.1777H132.612V26.2704H127.818V38.7891H125.573V26.2704H120.74ZM135.425 38.7891V24.1777H141.399C142.972 24.1777 144.221 24.5328 145.147 25.2431C146.073 25.9533 146.536 26.8919 146.536 28.0588C146.536 28.9467 146.273 29.6347 145.747 30.1231C145.22 30.605 144.545 30.9316 143.72 31.1029C144.26 31.179 144.783 31.3692 145.29 31.6736C145.804 31.978 146.229 32.3966 146.565 32.9293C146.901 33.4556 147.069 34.1025 147.069 34.8699C147.069 35.6182 146.879 36.2872 146.498 36.877C146.118 37.4668 145.572 37.9329 144.862 38.2754C144.152 38.6178 143.302 38.7891 142.313 38.7891H135.425ZM137.556 36.7343H142.313C143.086 36.7343 143.692 36.5504 144.13 36.1826C144.567 35.8148 144.786 35.3138 144.786 34.6796C144.786 33.9249 144.567 33.332 144.13 32.9007C143.692 32.4632 143.086 32.2444 142.313 32.2444H137.556V36.7343ZM137.556 30.3038H141.399C142.002 30.3038 142.519 30.2213 142.95 30.0565C143.381 29.8852 143.711 29.6442 143.939 29.3335C144.174 29.0164 144.291 28.6422 144.291 28.211C144.291 27.5959 144.034 27.1139 143.521 26.7651C143.007 26.41 142.3 26.2324 141.399 26.2324H137.556V30.3038ZM155.942 39.0935C154.623 39.0935 153.466 38.7795 152.47 38.1517C151.481 37.5239 150.707 36.6455 150.149 35.5167C149.597 34.3879 149.321 33.0688 149.321 31.5595C149.321 30.0374 149.597 28.7088 150.149 27.5737C150.707 26.4385 151.481 25.557 152.47 24.9292C153.466 24.3013 154.623 23.9874 155.942 23.9874C157.261 23.9874 158.415 24.3013 159.405 24.9292C160.4 25.557 161.174 26.4385 161.726 27.5737C162.284 28.7088 162.563 30.0374 162.563 31.5595C162.563 33.0688 162.284 34.3879 161.726 35.5167C161.174 36.6455 160.4 37.5239 159.405 38.1517C158.415 38.7795 157.261 39.0935 155.942 39.0935ZM155.942 37.0768C156.944 37.0768 157.768 36.8199 158.415 36.3063C159.062 35.7926 159.541 35.1172 159.852 34.2801C160.162 33.443 160.318 32.5361 160.318 31.5595C160.318 30.5828 160.162 29.6728 159.852 28.8293C159.541 27.9859 159.062 27.3041 158.415 26.7841C157.768 26.2641 156.944 26.0041 155.942 26.0041C154.94 26.0041 154.116 26.2641 153.469 26.7841C152.822 27.3041 152.343 27.9859 152.032 28.8293C151.722 29.6728 151.566 30.5828 151.566 31.5595C151.566 32.5361 151.722 33.443 152.032 34.2801C152.343 35.1172 152.822 35.7926 153.469 36.3063C154.116 36.8199 154.94 37.0768 155.942 37.0768ZM164.615 35.0601H167.013C167.063 35.7197 167.361 36.2207 167.907 36.5631C168.458 36.9056 169.175 37.0768 170.057 37.0768C170.957 37.0768 171.728 36.8929 172.368 36.5251C173.009 36.1509 173.329 35.5484 173.329 34.7177C173.329 34.2293 173.208 33.8044 172.967 33.443C172.726 33.0751 172.387 32.7898 171.95 32.5868C171.512 32.3839 170.995 32.2824 170.399 32.2824H167.888V30.2657H170.399C171.293 30.2657 171.953 30.0628 172.378 29.6569C172.809 29.2511 173.025 28.7437 173.025 28.1349C173.025 27.4817 172.793 26.9585 172.33 26.5653C171.867 26.1658 171.211 25.966 170.361 25.966C169.505 25.966 168.791 26.1595 168.221 26.5463C167.65 26.9268 167.349 27.4183 167.317 28.0208H164.958C164.983 27.2344 165.224 26.54 165.681 25.9375C166.137 25.3287 166.759 24.8531 167.545 24.5106C168.332 24.1618 169.232 23.9874 170.247 23.9874C171.274 23.9874 172.165 24.1681 172.92 24.5296C173.681 24.8848 174.268 25.3699 174.68 25.9851C175.098 26.5939 175.308 27.2851 175.308 28.0588C175.308 28.8832 175.076 29.5491 174.613 30.0565C174.15 30.5638 173.57 30.9253 172.872 31.1409V31.2931C173.424 31.3312 173.903 31.5087 174.309 31.8258C174.721 32.1366 175.041 32.5456 175.27 33.0529C175.498 33.5539 175.612 34.1088 175.612 34.7177C175.612 35.6055 175.374 36.3792 174.899 37.0387C174.423 37.6919 173.77 38.1993 172.939 38.5608C172.108 38.9159 171.16 39.0935 170.095 39.0935C169.061 39.0935 168.135 38.9254 167.317 38.5893C166.499 38.2468 165.849 37.7744 165.367 37.1719C164.891 36.5631 164.641 35.8592 164.615 35.0601ZM188.083 30.456V32.5488H180.017V30.456H188.083ZM180.549 24.1777V38.7891H178.304V24.1777H180.549ZM189.795 24.1777V38.7891H187.551V24.1777H189.795ZM197.734 39.1315C196.808 39.1315 195.968 38.9571 195.213 38.6083C194.458 38.2532 193.859 37.7427 193.415 37.0768C192.971 36.4046 192.749 35.5928 192.749 34.6416C192.749 33.8044 192.914 33.1259 193.244 32.6058C193.574 32.0795 194.015 31.6673 194.566 31.3692C195.118 31.0711 195.727 30.8492 196.393 30.7033C197.065 30.5511 197.74 30.4306 198.419 30.3418C199.307 30.2277 200.027 30.1421 200.578 30.085C201.136 30.0216 201.542 29.9169 201.796 29.7711C202.056 29.6252 202.186 29.3716 202.186 29.0101V28.934C202.186 27.9954 201.929 27.2661 201.415 26.7461C200.908 26.226 200.137 25.966 199.104 25.966C198.032 25.966 197.192 26.2007 196.583 26.67C195.974 27.1393 195.546 27.6403 195.299 28.173L193.168 27.4119C193.548 26.5241 194.056 25.8329 194.69 25.3382C195.33 24.8372 196.028 24.4884 196.783 24.2918C197.544 24.0889 198.292 23.9874 199.028 23.9874C199.497 23.9874 200.036 24.0445 200.645 24.1586C201.26 24.2664 201.853 24.4916 202.424 24.834C203.001 25.1765 203.48 25.6933 203.86 26.3846C204.241 27.0758 204.431 28.0017 204.431 29.1623V38.7891H202.186V36.8104H202.072C201.92 37.1275 201.666 37.4668 201.311 37.8283C200.956 38.1898 200.483 38.4973 199.893 38.751C199.304 39.0047 198.584 39.1315 197.734 39.1315ZM198.076 37.1148C198.964 37.1148 199.713 36.9404 200.321 36.5916C200.937 36.2428 201.4 35.7926 201.71 35.2408C202.027 34.6891 202.186 34.1088 202.186 33.5V31.4453C202.091 31.5595 201.881 31.6641 201.558 31.7592C201.241 31.848 200.873 31.9273 200.455 31.997C200.042 32.0605 199.64 32.1175 199.246 32.1683C198.86 32.2127 198.546 32.2507 198.305 32.2824C197.721 32.3585 197.176 32.4822 196.669 32.6534C196.168 32.8183 195.762 33.0688 195.451 33.4049C195.147 33.7347 194.994 34.1849 194.994 34.7557C194.994 35.5357 195.283 36.1255 195.86 36.5251C196.443 36.9182 197.182 37.1148 198.076 37.1148ZM217.846 30.456V32.5488H209.78V30.456H217.846ZM210.312 24.1777V38.7891H208.067V24.1777H210.312ZM219.559 24.1777V38.7891H217.314V24.1777H219.559ZM225.442 35.4787L232.482 24.1777H235.069V38.7891H232.824V27.4881L225.823 38.7891H223.197V24.1777H225.442V35.4787ZM244.846 39.0935C243.438 39.0935 242.224 38.7827 241.203 38.1612C240.188 37.5334 239.405 36.6582 238.853 35.5357C238.308 34.4069 238.035 33.0942 238.035 31.5975C238.035 30.1009 238.308 28.7818 238.853 27.6403C239.405 26.4924 240.172 25.5982 241.155 24.9577C242.144 24.3108 243.298 23.9874 244.618 23.9874C245.379 23.9874 246.13 24.1142 246.872 24.3679C247.614 24.6216 248.289 25.0338 248.898 25.6045C249.507 26.169 249.992 26.9173 250.354 27.8495C250.715 28.7818 250.896 29.9296 250.896 31.2931V32.2444H239.633V30.3038H248.613C248.613 29.4794 248.448 28.7437 248.118 28.0969C247.795 27.45 247.332 26.9395 246.729 26.5653C246.133 26.1912 245.429 26.0041 244.618 26.0041C243.723 26.0041 242.95 26.226 242.296 26.67C241.65 27.1075 241.152 27.6783 240.803 28.3822C240.454 29.0862 240.28 29.8408 240.28 30.6462V31.94C240.28 33.0434 240.47 33.9788 240.851 34.7462C241.237 35.5072 241.773 36.0875 242.458 36.487C243.143 36.8802 243.939 37.0768 244.846 37.0768C245.436 37.0768 245.968 36.9943 246.444 36.8295C246.926 36.6582 247.341 36.4046 247.69 36.0684C248.039 35.726 248.308 35.3011 248.499 34.7938L250.668 35.4026C250.439 36.1382 250.056 36.7851 249.517 37.3431C248.978 37.8949 248.312 38.3261 247.519 38.6369C246.726 38.9413 245.835 39.0935 244.846 39.0935Z" fill="#1D1D1D"/>
</svg>
