<svg width="217" height="146" viewBox="0 0 217 146" fill="none" xmlns="http://www.w3.org/2000/svg">
<rect x="0.5" y="0.5" width="215.434" height="56.6475" rx="28.3238" stroke="#191919"/>
<path d="M33.0638 38.5371V36.3682H33.6346C34.4463 36.3682 35.0773 36.1082 35.5276 35.5882C35.9779 35.0682 36.3013 34.2279 36.4979 33.0673C36.7008 31.9068 36.8372 30.3689 36.9069 28.4537L37.2494 19.0552H49.1211V38.5371H46.762V21.148H39.4944L39.19 28.9103C39.1139 30.9524 38.9268 32.69 38.6287 34.1232C38.3306 35.5565 37.8075 36.6504 37.0591 37.4051C36.3108 38.1598 35.22 38.5371 33.7868 38.5371H33.0638ZM55.3141 35.2267L62.3534 23.9257H64.9408V38.5371H62.6959V27.2361L55.6946 38.5371H53.0691V23.9257H55.3141V35.2267ZM66.6034 26.0185V23.9257H78.4751V26.0185H73.6808V38.5371H71.4358V26.0185H66.6034ZM86.6562 38.8415C85.2483 38.8415 84.0339 38.5308 83.0128 37.9093C81.9982 37.2814 81.215 36.4063 80.6632 35.2838C80.1178 34.155 79.8451 32.8422 79.8451 31.3456C79.8451 29.8489 80.1178 28.5298 80.6632 27.3883C81.215 26.2404 81.9823 25.3463 82.9653 24.7057C83.9546 24.0589 85.1088 23.7354 86.4279 23.7354C87.1889 23.7354 87.9404 23.8623 88.6824 24.116C89.4244 24.3696 90.0998 24.7818 90.7086 25.3526C91.3174 25.917 91.8025 26.6653 92.164 27.5976C92.5255 28.5298 92.7062 29.6777 92.7062 31.0412V31.9924H81.4433V30.0518H90.4232C90.4232 29.2274 90.2583 28.4918 89.9285 27.8449C89.6051 27.198 89.1422 26.6875 88.5397 26.3134C87.9436 25.9392 87.2396 25.7521 86.4279 25.7521C85.5337 25.7521 84.76 25.9741 84.1068 26.418C83.4599 26.8556 82.9621 27.4263 82.6133 28.1303C82.2645 28.8342 82.0901 29.5889 82.0901 30.3943V31.688C82.0901 32.7915 82.2804 33.7269 82.6609 34.4942C83.0477 35.2552 83.5836 35.8355 84.2685 36.2351C84.9534 36.6282 85.7493 36.8248 86.6562 36.8248C87.246 36.8248 87.7787 36.7424 88.2543 36.5775C88.7363 36.4063 89.1517 36.1526 89.5005 35.8165C89.8493 35.474 90.1188 35.0491 90.309 34.5418L92.4779 35.1506C92.2496 35.8863 91.8659 36.5331 91.3269 37.0912C90.7878 37.6429 90.122 38.0742 89.3292 38.3849C88.5365 38.6893 87.6455 38.8415 86.6562 38.8415ZM95.6601 44.0164V23.9257H97.829V26.2468H98.0953C98.2602 25.9931 98.4885 25.6697 98.7802 25.2765C99.0783 24.877 99.5032 24.5218 100.055 24.2111C100.613 23.894 101.368 23.7354 102.319 23.7354C103.549 23.7354 104.634 24.043 105.572 24.6582C106.511 25.2733 107.243 26.1453 107.77 27.2741C108.296 28.403 108.559 29.7347 108.559 31.2695C108.559 32.8168 108.296 34.1581 107.77 35.2933C107.243 36.4221 106.514 37.2973 105.582 37.9188C104.65 38.5339 103.575 38.8415 102.357 38.8415C101.418 38.8415 100.667 38.6861 100.102 38.3754C99.5381 38.0583 99.1037 37.7 98.7992 37.3005C98.4948 36.8946 98.2602 36.5585 98.0953 36.2921H97.9051V44.0164H95.6601ZM97.867 31.2314C97.867 32.3349 98.0287 33.3083 98.3522 34.1518C98.6756 34.9889 99.148 35.6453 99.7695 36.1209C100.391 36.5902 101.152 36.8248 102.053 36.8248C102.991 36.8248 103.774 36.5775 104.402 36.0828C105.036 35.5819 105.512 34.9096 105.829 34.0662C106.153 33.2164 106.314 32.2715 106.314 31.2314C106.314 30.204 106.156 29.2781 105.839 28.4537C105.528 27.6229 105.055 26.9666 104.421 26.4846C103.793 25.9963 103.004 25.7521 102.053 25.7521C101.139 25.7521 100.372 25.9836 99.7505 26.4465C99.129 26.9032 98.6597 27.5437 98.3426 28.3681C98.0256 29.1862 97.867 30.1406 97.867 31.2314ZM115.822 38.8796C114.896 38.8796 114.056 38.7052 113.301 38.3564C112.547 38.0012 111.947 37.4907 111.504 36.8248C111.06 36.1526 110.838 35.3409 110.838 34.3896C110.838 33.5525 111.003 32.8739 111.332 32.3539C111.662 31.8275 112.103 31.4153 112.655 31.1173C113.206 30.8192 113.815 30.5972 114.481 30.4514C115.153 30.2992 115.829 30.1787 116.507 30.0899C117.395 29.9757 118.115 29.8901 118.667 29.833C119.225 29.7696 119.631 29.665 119.884 29.5191C120.144 29.3733 120.274 29.1196 120.274 28.7581V28.682C120.274 27.7434 120.017 27.0141 119.504 26.4941C118.996 25.9741 118.226 25.7141 117.192 25.7141C116.12 25.7141 115.28 25.9487 114.671 26.418C114.062 26.8873 113.634 27.3883 113.387 27.921L111.256 27.16C111.637 26.2721 112.144 25.5809 112.778 25.0862C113.419 24.5852 114.116 24.2364 114.871 24.0399C115.632 23.8369 116.38 23.7354 117.116 23.7354C117.585 23.7354 118.124 23.7925 118.733 23.9067C119.348 24.0145 119.941 24.2396 120.512 24.5821C121.089 24.9245 121.568 25.4414 121.948 26.1326C122.329 26.8239 122.519 27.7498 122.519 28.9103V38.5371H120.274V36.5585H120.16C120.008 36.8756 119.754 37.2149 119.399 37.5763C119.044 37.9378 118.571 38.2454 117.982 38.4991C117.392 38.7527 116.672 38.8796 115.822 38.8796ZM116.165 36.8629C117.053 36.8629 117.801 36.6885 118.41 36.3397C119.025 35.9909 119.488 35.5406 119.799 34.9889C120.116 34.4372 120.274 33.8569 120.274 33.2481V31.1934C120.179 31.3075 119.97 31.4121 119.646 31.5073C119.329 31.5961 118.961 31.6753 118.543 31.7451C118.131 31.8085 117.728 31.8656 117.335 31.9163C116.948 31.9607 116.634 31.9988 116.393 32.0305C115.81 32.1066 115.264 32.2302 114.757 32.4015C114.256 32.5663 113.85 32.8168 113.539 33.153C113.235 33.4827 113.083 33.933 113.083 34.5038C113.083 35.2838 113.371 35.8736 113.948 36.2731C114.532 36.6663 115.271 36.8629 116.165 36.8629ZM124.167 26.0185V23.9257H136.039V26.0185H131.245V38.5371H129V26.0185H124.167ZM140.299 44.0164C139.918 44.0164 139.579 43.9847 139.281 43.9213C138.983 43.8642 138.777 43.8071 138.662 43.75L139.233 41.7714C139.779 41.9109 140.261 41.9617 140.679 41.9236C141.098 41.8856 141.469 41.6985 141.792 41.3624C142.122 41.0326 142.423 40.4967 142.696 39.7547L143.114 38.6132L137.711 23.9257H140.146L144.18 35.5692H144.332L148.365 23.9257H150.801L144.598 40.6679C144.319 41.4226 143.974 42.0473 143.562 42.5419C143.149 43.0429 142.67 43.4139 142.125 43.6549C141.586 43.8959 140.977 44.0164 140.299 44.0164ZM153.303 44.0164V23.9257H155.472V26.2468H155.738C155.903 25.9931 156.131 25.6697 156.423 25.2765C156.721 24.877 157.146 24.5218 157.697 24.2111C158.256 23.894 159.01 23.7354 159.961 23.7354C161.192 23.7354 162.276 24.043 163.215 24.6582C164.153 25.2733 164.886 26.1453 165.412 27.2741C165.939 28.403 166.202 29.7347 166.202 31.2695C166.202 32.8168 165.939 34.1581 165.412 35.2933C164.886 36.4221 164.157 37.2973 163.224 37.9188C162.292 38.5339 161.217 38.8415 160 38.8415C159.061 38.8415 158.309 38.6861 157.745 38.3754C157.181 38.0583 156.746 37.7 156.442 37.3005C156.137 36.8946 155.903 36.5585 155.738 36.2921H155.548V44.0164H153.303ZM155.51 31.2314C155.51 32.3349 155.671 33.3083 155.995 34.1518C156.318 34.9889 156.791 35.6453 157.412 36.1209C158.034 36.5902 158.795 36.8248 159.695 36.8248C160.634 36.8248 161.417 36.5775 162.045 36.0828C162.679 35.5819 163.155 34.9096 163.472 34.0662C163.795 33.2164 163.957 32.2715 163.957 31.2314C163.957 30.204 163.798 29.2781 163.481 28.4537C163.17 27.6229 162.698 26.9666 162.064 26.4846C161.436 25.9963 160.646 25.7521 159.695 25.7521C158.782 25.7521 158.015 25.9836 157.393 26.4465C156.772 26.9032 156.302 27.5437 155.985 28.3681C155.668 29.1862 155.51 30.1406 155.51 31.2314ZM173.465 38.8796C172.539 38.8796 171.699 38.7052 170.944 38.3564C170.189 38.0012 169.59 37.4907 169.146 36.8248C168.702 36.1526 168.48 35.3409 168.48 34.3896C168.48 33.5525 168.645 32.8739 168.975 32.3539C169.305 31.8275 169.745 31.4153 170.297 31.1173C170.849 30.8192 171.458 30.5972 172.124 30.4514C172.796 30.2992 173.471 30.1787 174.15 30.0899C175.038 29.9757 175.757 29.8901 176.309 29.833C176.867 29.7696 177.273 29.665 177.527 29.5191C177.787 29.3733 177.917 29.1196 177.917 28.7581V28.682C177.917 27.7434 177.66 27.0141 177.146 26.4941C176.639 25.9741 175.868 25.7141 174.835 25.7141C173.763 25.7141 172.923 25.9487 172.314 26.418C171.705 26.8873 171.277 27.3883 171.03 27.921L168.899 27.16C169.279 26.2721 169.787 25.5809 170.421 25.0862C171.061 24.5852 171.759 24.2364 172.514 24.0399C173.275 23.8369 174.023 23.7354 174.759 23.7354C175.228 23.7354 175.767 23.7925 176.376 23.9067C176.991 24.0145 177.584 24.2396 178.155 24.5821C178.732 24.9245 179.21 25.4414 179.591 26.1326C179.971 26.8239 180.162 27.7498 180.162 28.9103V38.5371H177.917V36.5585H177.803C177.65 36.8756 177.397 37.2149 177.042 37.5763C176.686 37.9378 176.214 38.2454 175.624 38.4991C175.034 38.7527 174.315 38.8796 173.465 38.8796ZM173.807 36.8629C174.695 36.8629 175.443 36.6885 176.052 36.3397C176.667 35.9909 177.13 35.5406 177.441 34.9889C177.758 34.4372 177.917 33.8569 177.917 33.2481V31.1934C177.822 31.3075 177.612 31.4121 177.289 31.5073C176.972 31.5961 176.604 31.6753 176.185 31.7451C175.773 31.8085 175.371 31.8656 174.977 31.9163C174.591 31.9607 174.277 31.9988 174.036 32.0305C173.452 32.1066 172.907 32.2302 172.399 32.4015C171.898 32.5663 171.493 32.8168 171.182 33.153C170.877 33.4827 170.725 33.933 170.725 34.5038C170.725 35.2838 171.014 35.8736 171.591 36.2731C172.174 36.6663 172.913 36.8629 173.807 36.8629Z" fill="#191919"/>
<rect x="0.5" y="88.0586" width="189.775" height="56.6475" rx="28.3238" stroke="#191919"/>
<path d="M36.9451 126.102V106.62H48.7027V108.712H39.3042V114.801H44.2508C45.646 114.801 46.8224 115.029 47.78 115.485C48.7439 115.942 49.4732 116.586 49.9679 117.417C50.4689 118.247 50.7194 119.227 50.7194 120.356C50.7194 121.485 50.4689 122.48 49.9679 123.343C49.4732 124.205 48.7439 124.881 47.78 125.369C46.8224 125.857 45.646 126.102 44.2508 126.102H36.9451ZM39.3042 124.047H44.2508C45.1386 124.047 45.8901 123.869 46.5053 123.514C47.1268 123.153 47.5961 122.69 47.9131 122.125C48.2366 121.555 48.3983 120.952 48.3983 120.318C48.3983 119.386 48.04 118.583 47.3234 117.911C46.6067 117.233 45.5825 116.893 44.2508 116.893H39.3042V124.047ZM56.0823 122.791L63.1217 111.49H65.7091V126.102H63.4641V114.801L56.4628 126.102H53.8373V111.49H56.0823V122.791ZM75.2956 126.406C73.9765 126.406 72.8192 126.092 71.8235 125.464C70.8342 124.836 70.0605 123.958 69.5024 122.829C68.9507 121.7 68.6748 120.381 68.6748 118.872C68.6748 117.35 68.9507 116.021 69.5024 114.886C70.0605 113.751 70.8342 112.869 71.8235 112.242C72.8192 111.614 73.9765 111.3 75.2956 111.3C76.6147 111.3 77.7689 111.614 78.7582 112.242C79.7539 112.869 80.5276 113.751 81.0793 114.886C81.6374 116.021 81.9164 117.35 81.9164 118.872C81.9164 120.381 81.6374 121.7 81.0793 122.829C80.5276 123.958 79.7539 124.836 78.7582 125.464C77.7689 126.092 76.6147 126.406 75.2956 126.406ZM75.2956 124.389C76.2976 124.389 77.1221 124.132 77.7689 123.619C78.4158 123.105 78.8946 122.43 79.2053 121.593C79.5161 120.755 79.6714 119.849 79.6714 118.872C79.6714 117.895 79.5161 116.985 79.2053 116.142C78.8946 115.298 78.4158 114.617 77.7689 114.097C77.1221 113.577 76.2976 113.317 75.2956 113.317C74.2936 113.317 73.4692 113.577 72.8223 114.097C72.1755 114.617 71.6967 115.298 71.3859 116.142C71.0752 116.985 70.9198 117.895 70.9198 118.872C70.9198 119.849 71.0752 120.755 71.3859 121.593C71.6967 122.43 72.1755 123.105 72.8223 123.619C73.4692 124.132 74.2936 124.389 75.2956 124.389ZM83.5885 126.102V124.009H84.1212C84.5587 124.009 84.9234 123.923 85.2151 123.752C85.5068 123.574 85.7415 123.267 85.919 122.829C86.103 122.385 86.2425 121.77 86.3376 120.984C86.4391 120.191 86.512 119.183 86.5564 117.959L86.8227 111.49H96.5637V126.102H94.3187V113.583H88.9536L88.7253 118.796C88.6745 119.994 88.5667 121.05 88.4018 121.964C88.2433 122.87 87.9991 123.631 87.6694 124.247C87.3459 124.862 86.9147 125.325 86.3757 125.635C85.8366 125.946 85.1612 126.102 84.3495 126.102H83.5885ZM106.157 126.406C104.838 126.406 103.681 126.092 102.685 125.464C101.696 124.836 100.922 123.958 100.364 122.829C99.8124 121.7 99.5366 120.381 99.5366 118.872C99.5366 117.35 99.8124 116.021 100.364 114.886C100.922 113.751 101.696 112.869 102.685 112.242C103.681 111.614 104.838 111.3 106.157 111.3C107.476 111.3 108.631 111.614 109.62 112.242C110.616 112.869 111.389 113.751 111.941 114.886C112.499 116.021 112.778 117.35 112.778 118.872C112.778 120.381 112.499 121.7 111.941 122.829C111.389 123.958 110.616 124.836 109.62 125.464C108.631 126.092 107.476 126.406 106.157 126.406ZM106.157 124.389C107.159 124.389 107.984 124.132 108.631 123.619C109.278 123.105 109.756 122.43 110.067 121.593C110.378 120.755 110.533 119.849 110.533 118.872C110.533 117.895 110.378 116.985 110.067 116.142C109.756 115.298 109.278 114.617 108.631 114.097C107.984 113.577 107.159 113.317 106.157 113.317C105.155 113.317 104.331 113.577 103.684 114.097C103.037 114.617 102.558 115.298 102.248 116.142C101.937 116.985 101.782 117.895 101.782 118.872C101.782 119.849 101.937 120.755 102.248 121.593C102.558 122.43 103.037 123.105 103.684 123.619C104.331 124.132 105.155 124.389 106.157 124.389ZM124.762 111.49V113.583H117.989V126.102H115.744V111.49H124.762ZM129.823 122.791L136.862 111.49H139.45V126.102H137.205V114.801L130.203 126.102H127.578V111.49H129.823V122.791ZM151.89 126.102V113.545H148.009C147.134 113.545 146.446 113.748 145.945 114.154C145.444 114.56 145.193 115.118 145.193 115.828C145.193 116.526 145.418 117.074 145.868 117.474C146.325 117.873 146.95 118.073 147.742 118.073H152.461V120.166H147.742C146.753 120.166 145.9 119.991 145.184 119.642C144.467 119.294 143.915 118.796 143.528 118.149C143.141 117.496 142.948 116.722 142.948 115.828C142.948 114.927 143.151 114.154 143.557 113.507C143.963 112.86 144.543 112.362 145.298 112.013C146.059 111.665 146.962 111.49 148.009 111.49H154.021V126.102H151.89ZM142.149 126.102L146.296 118.834H148.732L144.584 126.102H142.149Z" fill="#191919"/>
</svg>
