<svg width="238" height="58" viewBox="0 0 238 58" fill="none" xmlns="http://www.w3.org/2000/svg">
<rect x="0.5" y="0.5" width="236.931" height="56.6475" rx="28.3238" stroke="#191919"/>
<path d="M33.2263 19.3052H35.5474V34.6396H35.7377L46.3918 19.3052H48.6748V38.7871H46.3157V23.4908H46.1255L35.5094 38.7871H33.2263V19.3052ZM62.4089 30.454V32.5468H54.3422V30.454H62.4089ZM54.8749 24.1757V38.7871H52.6299V24.1757H54.8749ZM64.1212 24.1757V38.7871H61.8762V24.1757H64.1212ZM73.6958 43.7717V19.3052H75.9408V43.7717H73.6958ZM73.6958 39.0915C72.7065 39.0915 71.806 38.9139 70.9942 38.5588C70.1825 38.1973 69.4849 37.6868 68.9015 37.0273C68.318 36.3614 67.8677 35.5655 67.5507 34.6396C67.2336 33.7137 67.075 32.6863 67.075 31.5575C67.075 30.416 67.2336 29.3823 67.5507 28.4564C67.8677 27.5241 68.318 26.7251 68.9015 26.0592C69.4849 25.3933 70.1825 24.8828 70.9942 24.5277C71.806 24.1662 72.7065 23.9854 73.6958 23.9854H74.3807V39.0915H73.6958ZM73.6958 37.0748H74.0763V26.0021H73.6958C72.9475 26.0021 72.2975 26.1543 71.7457 26.4587C71.194 26.7568 70.7374 27.1658 70.3759 27.6859C70.0208 28.1995 69.7544 28.7893 69.5768 29.4552C69.4056 30.1211 69.32 30.8219 69.32 31.5575C69.32 32.5341 69.4754 33.441 69.7861 34.2781C70.0969 35.1152 70.5757 35.7906 71.2225 36.3043C71.8694 36.818 72.6938 37.0748 73.6958 37.0748ZM75.9408 39.0915H75.2559V23.9854H75.9408C76.9301 23.9854 77.8306 24.1662 78.6424 24.5277C79.4541 24.8828 80.1517 25.3933 80.7352 26.0592C81.3186 26.7251 81.7689 27.5241 82.086 28.4564C82.4031 29.3823 82.5616 30.416 82.5616 31.5575C82.5616 32.6863 82.4031 33.7137 82.086 34.6396C81.7689 35.5655 81.3186 36.3614 80.7352 37.0273C80.1517 37.6868 79.4541 38.1973 78.6424 38.5588C77.8306 38.9139 76.9301 39.0915 75.9408 39.0915ZM75.9408 37.0748C76.6955 37.0748 77.3455 36.929 77.8909 36.6373C78.4426 36.3392 78.8961 35.9333 79.2512 35.4196C79.6127 34.8996 79.879 34.3098 80.0503 33.6503C80.2278 32.9844 80.3166 32.2868 80.3166 31.5575C80.3166 30.5809 80.1612 29.6708 79.8505 28.8274C79.5397 27.9839 79.0609 27.3022 78.4141 26.7822C77.7672 26.2621 76.9428 26.0021 75.9408 26.0021H75.5603V37.0748H75.9408ZM91.468 39.0915C90.1489 39.0915 88.9915 38.7776 87.9959 38.1498C87.0066 37.5219 86.2329 36.6436 85.6748 35.5148C85.1231 34.3859 84.8472 33.0668 84.8472 31.5575C84.8472 30.0355 85.1231 28.7069 85.6748 27.5717C86.2329 26.4365 87.0066 25.555 87.9959 24.9272C88.9915 24.2994 90.1489 23.9854 91.468 23.9854C92.7871 23.9854 93.9413 24.2994 94.9306 24.9272C95.9262 25.555 96.6999 26.4365 97.2517 27.5717C97.8097 28.7069 98.0888 30.0355 98.0888 31.5575C98.0888 33.0668 97.8097 34.3859 97.2517 35.5148C96.6999 36.6436 95.9262 37.5219 94.9306 38.1498C93.9413 38.7776 92.7871 39.0915 91.468 39.0915ZM91.468 37.0748C92.47 37.0748 93.2944 36.818 93.9413 36.3043C94.5881 35.7906 95.0669 35.1152 95.3777 34.2781C95.6884 33.441 95.8438 32.5341 95.8438 31.5575C95.8438 30.5809 95.6884 29.6708 95.3777 28.8274C95.0669 27.9839 94.5881 27.3022 93.9413 26.7822C93.2944 26.2621 92.47 26.0021 91.468 26.0021C90.466 26.0021 89.6416 26.2621 88.9947 26.7822C88.3478 27.3022 87.869 27.9839 87.5583 28.8274C87.2475 29.6708 87.0922 30.5809 87.0922 31.5575C87.0922 32.5341 87.2475 33.441 87.5583 34.2781C87.869 35.1152 88.3478 35.7906 88.9947 36.3043C89.6416 36.818 90.466 37.0748 91.468 37.0748ZM101.055 44.2664V24.1757H103.223V26.4968H103.49C103.655 26.2431 103.883 25.9197 104.175 25.5265C104.473 25.127 104.898 24.7718 105.449 24.4611C106.007 24.144 106.762 23.9854 107.713 23.9854C108.944 23.9854 110.028 24.293 110.967 24.9082C111.905 25.5233 112.638 26.3953 113.164 27.5241C113.69 28.653 113.954 29.9847 113.954 31.5195C113.954 33.0668 113.69 34.4081 113.164 35.5433C112.638 36.6721 111.908 37.5473 110.976 38.1688C110.044 38.7839 108.969 39.0915 107.751 39.0915C106.813 39.0915 106.061 38.9361 105.497 38.6254C104.933 38.3083 104.498 37.95 104.194 37.5505C103.889 37.1446 103.655 36.8085 103.49 36.5421H103.3V44.2664H101.055ZM103.261 31.4814C103.261 32.5849 103.423 33.5583 103.747 34.4018C104.07 35.2389 104.542 35.8953 105.164 36.3709C105.785 36.8402 106.546 37.0748 107.447 37.0748C108.386 37.0748 109.169 36.8275 109.797 36.3328C110.431 35.8319 110.906 35.1596 111.224 34.3162C111.547 33.4664 111.709 32.5215 111.709 31.4814C111.709 30.454 111.55 29.5281 111.233 28.7037C110.922 27.8729 110.45 27.2166 109.816 26.7346C109.188 26.2463 108.398 26.0021 107.447 26.0021C106.534 26.0021 105.766 26.2336 105.145 26.6965C104.523 27.1532 104.054 27.7937 103.737 28.6181C103.42 29.4362 103.261 30.3906 103.261 31.4814ZM124.908 35.7431L130.006 24.1757H132.137L125.821 38.7871H123.994L117.792 24.1757H119.885L124.908 35.7431ZM119.162 24.1757V38.7871H116.917V24.1757H119.162ZM130.653 38.7871V24.1757H132.898V38.7871H130.653ZM140.846 39.1296C139.92 39.1296 139.08 38.9552 138.325 38.6064C137.571 38.2512 136.971 37.7407 136.528 37.0748C136.084 36.4026 135.862 35.5909 135.862 34.6396C135.862 33.8025 136.027 33.1239 136.356 32.6039C136.686 32.0775 137.127 31.6653 137.679 31.3673C138.23 31.0692 138.839 30.8472 139.505 30.7014C140.177 30.5492 140.853 30.4287 141.531 30.3399C142.419 30.2257 143.139 30.1401 143.691 30.083C144.249 30.0196 144.654 29.915 144.908 29.7691C145.168 29.6233 145.298 29.3696 145.298 29.0081V28.932C145.298 27.9934 145.041 27.2641 144.528 26.7441C144.02 26.2241 143.25 25.9641 142.216 25.9641C141.144 25.9641 140.304 26.1987 139.695 26.668C139.086 27.1373 138.658 27.6383 138.411 28.171L136.28 27.41C136.661 26.5221 137.168 25.8309 137.802 25.3362C138.443 24.8352 139.14 24.4864 139.895 24.2899C140.656 24.0869 141.404 23.9854 142.14 23.9854C142.609 23.9854 143.148 24.0425 143.757 24.1567C144.372 24.2645 144.965 24.4896 145.536 24.8321C146.113 25.1745 146.592 25.6914 146.972 26.3826C147.353 27.0739 147.543 27.9998 147.543 29.1603V38.7871H145.298V36.8085H145.184C145.032 37.1256 144.778 37.4649 144.423 37.8263C144.068 38.1878 143.595 38.4954 143.006 38.7491C142.416 39.0027 141.696 39.1296 140.846 39.1296ZM141.189 37.1129C142.077 37.1129 142.825 36.9385 143.434 36.5897C144.049 36.2409 144.512 35.7906 144.823 35.2389C145.14 34.6872 145.298 34.1069 145.298 33.4981V31.4434C145.203 31.5575 144.994 31.6621 144.67 31.7573C144.353 31.8461 143.985 31.9253 143.567 31.9951C143.155 32.0585 142.752 32.1156 142.359 32.1663C141.972 32.2107 141.658 32.2488 141.417 32.2805C140.834 32.3566 140.288 32.4802 139.781 32.6515C139.28 32.8163 138.874 33.0668 138.563 33.403C138.259 33.7327 138.107 34.183 138.107 34.7538C138.107 35.5338 138.395 36.1236 138.972 36.5231C139.556 36.9163 140.295 37.1129 141.189 37.1129ZM149.191 26.2685V24.1757H161.063V26.2685H156.269V38.7871H154.024V26.2685H149.191ZM166.122 35.4767L173.161 24.1757H175.748V38.7871H173.503V27.4861L166.502 38.7871H163.877V24.1757H166.122V35.4767ZM179.399 38.7871V24.1757H181.644V30.5301H183.128L188.379 24.1757H191.271L185.373 31.2151L191.347 38.7871H188.455L183.661 32.6229H181.644V38.7871H179.399ZM197.626 39.1296C196.7 39.1296 195.859 38.9552 195.105 38.6064C194.35 38.2512 193.751 37.7407 193.307 37.0748C192.863 36.4026 192.641 35.5909 192.641 34.6396C192.641 33.8025 192.806 33.1239 193.136 32.6039C193.465 32.0775 193.906 31.6653 194.458 31.3673C195.01 31.0692 195.618 30.8472 196.284 30.7014C196.956 30.5492 197.632 30.4287 198.31 30.3399C199.198 30.2257 199.918 30.1401 200.47 30.083C201.028 30.0196 201.434 29.915 201.687 29.7691C201.947 29.6233 202.077 29.3696 202.077 29.0081V28.932C202.077 27.9934 201.821 27.2641 201.307 26.7441C200.8 26.2241 200.029 25.9641 198.995 25.9641C197.924 25.9641 197.083 26.1987 196.475 26.668C195.866 27.1373 195.438 27.6383 195.19 28.171L193.059 27.41C193.44 26.5221 193.947 25.8309 194.581 25.3362C195.222 24.8352 195.92 24.4864 196.674 24.2899C197.435 24.0869 198.184 23.9854 198.919 23.9854C199.389 23.9854 199.928 24.0425 200.536 24.1567C201.152 24.2645 201.745 24.4896 202.315 24.8321C202.892 25.1745 203.371 25.6914 203.752 26.3826C204.132 27.0739 204.322 27.9998 204.322 29.1603V38.7871H202.077V36.8085H201.963C201.811 37.1256 201.557 37.4649 201.202 37.8263C200.847 38.1878 200.375 38.4954 199.785 38.7491C199.195 39.0027 198.475 39.1296 197.626 39.1296ZM197.968 37.1129C198.856 37.1129 199.604 36.9385 200.213 36.5897C200.828 36.2409 201.291 35.7906 201.602 35.2389C201.919 34.6872 202.077 34.1069 202.077 33.4981V31.4434C201.982 31.5575 201.773 31.6621 201.45 31.7573C201.133 31.8461 200.765 31.9253 200.346 31.9951C199.934 32.0585 199.531 32.1156 199.138 32.1663C198.751 32.2107 198.437 32.2488 198.196 32.2805C197.613 32.3566 197.067 32.4802 196.56 32.6515C196.059 32.8163 195.653 33.0668 195.342 33.403C195.038 33.7327 194.886 34.183 194.886 34.7538C194.886 35.5338 195.174 36.1236 195.752 36.5231C196.335 36.9163 197.074 37.1129 197.968 37.1129Z" fill="#191919"/>
</svg>
