<svg width="321" height="58" viewBox="0 0 321 58" fill="none" xmlns="http://www.w3.org/2000/svg">
<rect x="0.5" y="0.5" width="319.059" height="56.6475" rx="28.3238" stroke="#191919"/>
<path d="M25.1287 18.9439H27.9444L34.5652 35.1154H34.7935L41.4143 18.9439H44.23V38.4258H42.0231V23.6241H41.8329L35.7448 38.4258H33.6139L27.5258 23.6241H27.3356V38.4258H25.1287V18.9439ZM52.4943 38.7682C51.5684 38.7682 50.7281 38.5938 49.9735 38.245C49.2188 37.8899 48.6195 37.3794 48.1756 36.7135C47.7317 36.0413 47.5097 35.2295 47.5097 34.2783C47.5097 33.4412 47.6746 32.7626 48.0044 32.2426C48.3341 31.7162 48.7749 31.304 49.3266 31.0059C49.8784 30.7079 50.4872 30.4859 51.153 30.34C51.8253 30.1878 52.5007 30.0673 53.1792 29.9786C54.0671 29.8644 54.7869 29.7788 55.3386 29.7217C55.8967 29.6583 56.3026 29.5537 56.5562 29.4078C56.8162 29.2619 56.9462 29.0083 56.9462 28.6468V28.5707C56.9462 27.6321 56.6894 26.9028 56.1757 26.3828C55.6684 25.8628 54.8979 25.6027 53.8641 25.6027C52.7924 25.6027 51.9521 25.8374 51.3433 26.3067C50.7345 26.776 50.3064 27.277 50.0591 27.8097L47.9283 27.0487C48.3088 26.1608 48.8161 25.4696 49.4503 24.9749C50.0908 24.4739 50.7884 24.1251 51.5431 23.9285C52.3041 23.7256 53.0524 23.6241 53.788 23.6241C54.2573 23.6241 54.7964 23.6812 55.4052 23.7953C56.0203 23.9032 56.6133 24.1283 57.1841 24.4707C57.7612 24.8132 58.24 25.3301 58.6205 26.0213C59.001 26.7126 59.1912 27.6385 59.1912 28.799V38.4258H56.9462V36.4472H56.8321C56.6799 36.7642 56.4262 37.1035 56.0711 37.465C55.7159 37.8265 55.2435 38.1341 54.6537 38.3877C54.0639 38.6414 53.3441 38.7682 52.4943 38.7682ZM52.8368 36.7516C53.7246 36.7516 54.473 36.5772 55.0818 36.2284C55.6969 35.8796 56.1599 35.4293 56.4706 34.8776C56.7877 34.3258 56.9462 33.7456 56.9462 33.1368V31.082C56.8511 31.1962 56.6418 31.3008 56.3184 31.3959C56.0013 31.4847 55.6335 31.564 55.2149 31.6338C54.8027 31.6972 54.4 31.7543 54.0068 31.805C53.62 31.8494 53.3061 31.8874 53.0651 31.9191C52.4816 31.9952 51.9363 32.1189 51.4289 32.2901C50.9279 32.455 50.522 32.7055 50.2113 33.0416C49.9069 33.3714 49.7547 33.8217 49.7547 34.3924C49.7547 35.1725 50.0432 35.7622 50.6203 36.1618C51.2038 36.555 51.9426 36.7516 52.8368 36.7516ZM60.8395 25.9072V23.8144H72.7112V25.9072H67.9169V38.4258H65.6719V25.9072H60.8395ZM80.8923 38.7302C79.4844 38.7302 78.27 38.4194 77.2489 37.7979C76.2343 37.1701 75.4511 36.295 74.8993 35.1725C74.3539 34.0436 74.0812 32.7309 74.0812 31.2342C74.0812 29.7376 74.3539 28.4185 74.8993 27.277C75.4511 26.1291 76.2184 25.2349 77.2014 24.5944C78.1907 23.9475 79.3449 23.6241 80.664 23.6241C81.425 23.6241 82.1765 23.751 82.9185 24.0046C83.6605 24.2583 84.3359 24.6705 84.9447 25.2413C85.5535 25.8057 86.0386 26.554 86.4001 27.4862C86.7616 28.4185 86.9423 29.5663 86.9423 30.9298V31.8811H75.6794V29.9405H84.6593C84.6593 29.1161 84.4944 28.3804 84.1646 27.7336C83.8412 27.0867 83.3783 26.5762 82.7758 26.202C82.1797 25.8279 81.4757 25.6408 80.664 25.6408C79.7698 25.6408 78.9961 25.8628 78.3429 26.3067C77.696 26.7443 77.1982 27.315 76.8494 28.019C76.5006 28.7229 76.3262 29.4776 76.3262 30.283V31.5767C76.3262 32.6801 76.5165 33.6156 76.897 34.3829C77.2838 35.1439 77.8197 35.7242 78.5046 36.1237C79.1895 36.5169 79.9854 36.7135 80.8923 36.7135C81.4821 36.7135 82.0148 36.6311 82.4904 36.4662C82.9724 36.295 83.3878 36.0413 83.7366 35.7052C84.0854 35.3627 84.3549 34.9378 84.5451 34.4305L86.714 35.0393C86.4857 35.7749 86.102 36.4218 85.563 36.9799C85.0239 37.5316 84.3581 37.9628 83.5653 38.2736C82.7726 38.578 81.8816 38.7302 80.8923 38.7302ZM97.8868 35.3817L102.986 23.8144H105.116L98.8 38.4258H96.9736L90.7713 23.8144H92.8641L97.8868 35.3817ZM92.1412 23.8144V38.4258H89.8962V23.8144H92.1412ZM103.632 38.4258V23.8144H105.877V38.4258H103.632ZM113.825 38.7682C112.9 38.7682 112.059 38.5938 111.305 38.245C110.55 37.8899 109.951 37.3794 109.507 36.7135C109.063 36.0413 108.841 35.2295 108.841 34.2783C108.841 33.4412 109.006 32.7626 109.335 32.2426C109.665 31.7162 110.106 31.304 110.658 31.0059C111.209 30.7079 111.818 30.4859 112.484 30.34C113.156 30.1878 113.832 30.0673 114.51 29.9786C115.398 29.8644 116.118 29.7788 116.67 29.7217C117.228 29.6583 117.634 29.5537 117.887 29.4078C118.147 29.2619 118.277 29.0083 118.277 28.6468V28.5707C118.277 27.6321 118.02 26.9028 117.507 26.3828C116.999 25.8628 116.229 25.6027 115.195 25.6027C114.123 25.6027 113.283 25.8374 112.674 26.3067C112.066 26.776 111.637 27.277 111.39 27.8097L109.259 27.0487C109.64 26.1608 110.147 25.4696 110.781 24.9749C111.422 24.4739 112.119 24.1251 112.874 23.9285C113.635 23.7256 114.383 23.6241 115.119 23.6241C115.588 23.6241 116.127 23.6812 116.736 23.7953C117.351 23.9032 117.944 24.1283 118.515 24.4707C119.092 24.8132 119.571 25.3301 119.952 26.0213C120.332 26.7126 120.522 27.6385 120.522 28.799V38.4258H118.277V36.4472H118.163C118.011 36.7642 117.757 37.1035 117.402 37.465C117.047 37.8265 116.575 38.1341 115.985 38.3877C115.395 38.6414 114.675 38.7682 113.825 38.7682ZM114.168 36.7516C115.056 36.7516 115.804 36.5772 116.413 36.2284C117.028 35.8796 117.491 35.4293 117.802 34.8776C118.119 34.3258 118.277 33.7456 118.277 33.1368V31.082C118.182 31.1962 117.973 31.3008 117.649 31.3959C117.332 31.4847 116.965 31.564 116.546 31.6338C116.134 31.6972 115.731 31.7543 115.338 31.805C114.951 31.8494 114.637 31.8874 114.396 31.9191C113.813 31.9952 113.267 32.1189 112.76 32.2901C112.259 32.455 111.853 32.7055 111.542 33.0416C111.238 33.3714 111.086 33.8217 111.086 34.3924C111.086 35.1725 111.374 35.7622 111.951 36.1618C112.535 36.555 113.274 36.7516 114.168 36.7516ZM122.171 25.9072V23.8144H134.042V25.9072H129.248V38.4258H127.003V25.9072H122.171ZM139.101 35.1154L146.14 23.8144H148.728V38.4258H146.483V27.1248L139.481 38.4258H136.856V23.8144H139.101V35.1154ZM152.378 38.4258V23.8144H154.623V30.1688H156.107L161.358 23.8144H164.25L158.352 30.8537L164.326 38.4258H161.434L156.64 32.2616H154.623V38.4258H152.378ZM170.605 38.7682C169.679 38.7682 168.839 38.5938 168.084 38.245C167.329 37.8899 166.73 37.3794 166.286 36.7135C165.842 36.0413 165.62 35.2295 165.62 34.2783C165.62 33.4412 165.785 32.7626 166.115 32.2426C166.444 31.7162 166.885 31.304 167.437 31.0059C167.989 30.7079 168.598 30.4859 169.263 30.34C169.936 30.1878 170.611 30.0673 171.29 29.9786C172.177 29.8644 172.897 29.7788 173.449 29.7217C174.007 29.6583 174.413 29.5537 174.667 29.4078C174.927 29.2619 175.057 29.0083 175.057 28.6468V28.5707C175.057 27.6321 174.8 26.9028 174.286 26.3828C173.779 25.8628 173.008 25.6027 171.975 25.6027C170.903 25.6027 170.062 25.8374 169.454 26.3067C168.845 26.776 168.417 27.277 168.169 27.8097L166.039 27.0487C166.419 26.1608 166.926 25.4696 167.561 24.9749C168.201 24.4739 168.899 24.1251 169.653 23.9285C170.414 23.7256 171.163 23.6241 171.898 23.6241C172.368 23.6241 172.907 23.6812 173.516 23.7953C174.131 23.9032 174.724 24.1283 175.294 24.4707C175.872 24.8132 176.35 25.3301 176.731 26.0213C177.111 26.7126 177.302 27.6385 177.302 28.799V38.4258H175.057V36.4472H174.942C174.79 36.7642 174.537 37.1035 174.181 37.465C173.826 37.8265 173.354 38.1341 172.764 38.3877C172.174 38.6414 171.454 38.7682 170.605 38.7682ZM170.947 36.7516C171.835 36.7516 172.583 36.5772 173.192 36.2284C173.807 35.8796 174.27 35.4293 174.581 34.8776C174.898 34.3258 175.057 33.7456 175.057 33.1368V31.082C174.961 31.1962 174.752 31.3008 174.429 31.3959C174.112 31.4847 173.744 31.564 173.325 31.6338C172.913 31.6972 172.51 31.7543 172.117 31.805C171.73 31.8494 171.416 31.8874 171.175 31.9191C170.592 31.9952 170.047 32.1189 169.539 32.2901C169.038 32.455 168.632 32.7055 168.322 33.0416C168.017 33.3714 167.865 33.8217 167.865 34.3924C167.865 35.1725 168.154 35.7622 168.731 36.1618C169.314 36.555 170.053 36.7516 170.947 36.7516ZM188.011 38.4258V23.8144H199.502V38.4258H197.257V25.9072H190.256V38.4258H188.011ZM203.141 43.9051V23.8144H205.31V26.1355H205.576C205.741 25.8818 205.969 25.5584 206.261 25.1652C206.559 24.7656 206.984 24.4105 207.536 24.0998C208.094 23.7827 208.848 23.6241 209.8 23.6241C211.03 23.6241 212.114 23.9317 213.053 24.5468C213.992 25.162 214.724 26.034 215.25 27.1628C215.777 28.2917 216.04 29.6234 216.04 31.1581C216.04 32.7055 215.777 34.0468 215.25 35.182C214.724 36.3108 213.995 37.186 213.063 37.8075C212.13 38.4226 211.055 38.7302 209.838 38.7302C208.899 38.7302 208.148 38.5748 207.583 38.2641C207.019 37.947 206.584 37.5887 206.28 37.1891C205.976 36.7833 205.741 36.4472 205.576 36.1808H205.386V43.9051H203.141ZM205.348 31.1201C205.348 32.2235 205.509 33.197 205.833 34.0405C206.156 34.8776 206.629 35.5339 207.25 36.0096C207.872 36.4789 208.633 36.7135 209.533 36.7135C210.472 36.7135 211.255 36.4662 211.883 35.9715C212.517 35.4705 212.993 34.7983 213.31 33.9548C213.633 33.105 213.795 32.1601 213.795 31.1201C213.795 30.0927 213.636 29.1668 213.319 28.3424C213.009 27.5116 212.536 26.8552 211.902 26.3733C211.274 25.885 210.485 25.6408 209.533 25.6408C208.62 25.6408 207.853 25.8723 207.231 26.3352C206.61 26.7918 206.14 27.4323 205.823 28.2568C205.506 29.0749 205.348 30.0293 205.348 31.1201ZM224.939 38.7302C223.62 38.7302 222.463 38.4163 221.467 37.7884C220.478 37.1606 219.704 36.2823 219.146 35.1534C218.594 34.0246 218.318 32.7055 218.318 31.1962C218.318 29.6742 218.594 28.3456 219.146 27.2104C219.704 26.0752 220.478 25.1937 221.467 24.5659C222.463 23.938 223.62 23.6241 224.939 23.6241C226.258 23.6241 227.412 23.938 228.402 24.5659C229.397 25.1937 230.171 26.0752 230.723 27.2104C231.281 28.3456 231.56 29.6742 231.56 31.1962C231.56 32.7055 231.281 34.0246 230.723 35.1534C230.171 36.2823 229.397 37.1606 228.402 37.7884C227.412 38.4163 226.258 38.7302 224.939 38.7302ZM224.939 36.7135C225.941 36.7135 226.766 36.4567 227.412 35.943C228.059 35.4293 228.538 34.7539 228.849 33.9168C229.16 33.0797 229.315 32.1728 229.315 31.1962C229.315 30.2195 229.16 29.3095 228.849 28.4661C228.538 27.6226 228.059 26.9409 227.412 26.4208C226.766 25.9008 225.941 25.6408 224.939 25.6408C223.937 25.6408 223.113 25.9008 222.466 26.4208C221.819 26.9409 221.34 27.6226 221.03 28.4661C220.719 29.3095 220.563 30.2195 220.563 31.1962C220.563 32.1728 220.719 33.0797 221.03 33.9168C221.34 34.7539 221.819 35.4293 222.466 35.943C223.113 36.4567 223.937 36.7135 224.939 36.7135ZM240.462 43.4104V18.9439H242.707V43.4104H240.462ZM240.462 38.7302C239.472 38.7302 238.572 38.5526 237.76 38.1975C236.948 37.836 236.251 37.3255 235.667 36.6659C235.084 36.0001 234.634 35.2042 234.316 34.2783C233.999 33.3524 233.841 32.325 233.841 31.1962C233.841 30.0547 233.999 29.021 234.316 28.0951C234.634 27.1628 235.084 26.3638 235.667 25.6979C236.251 25.032 236.948 24.5215 237.76 24.1663C238.572 23.8049 239.472 23.6241 240.462 23.6241H241.147V38.7302H240.462ZM240.462 36.7135H240.842V25.6408H240.462C239.713 25.6408 239.063 25.793 238.512 26.0974C237.96 26.3955 237.503 26.8045 237.142 27.3245C236.787 27.8382 236.52 28.428 236.343 29.0939C236.171 29.7598 236.086 30.4605 236.086 31.1962C236.086 32.1728 236.241 33.0797 236.552 33.9168C236.863 34.7539 237.341 35.4293 237.988 35.943C238.635 36.4567 239.46 36.7135 240.462 36.7135ZM242.707 38.7302H242.022V23.6241H242.707C243.696 23.6241 244.596 23.8049 245.408 24.1663C246.22 24.5215 246.918 25.032 247.501 25.6979C248.084 26.3638 248.535 27.1628 248.852 28.0951C249.169 29.021 249.327 30.0547 249.327 31.1962C249.327 32.325 249.169 33.3524 248.852 34.2783C248.535 35.2042 248.084 36.0001 247.501 36.6659C246.918 37.3255 246.22 37.836 245.408 38.1975C244.596 38.5526 243.696 38.7302 242.707 38.7302ZM242.707 36.7135C243.461 36.7135 244.111 36.5676 244.657 36.2759C245.208 35.9779 245.662 35.572 246.017 35.0583C246.378 34.5383 246.645 33.9485 246.816 33.289C246.994 32.6231 247.082 31.9255 247.082 31.1962C247.082 30.2195 246.927 29.3095 246.616 28.4661C246.306 27.6226 245.827 26.9409 245.18 26.4208C244.533 25.9008 243.709 25.6408 242.707 25.6408H242.326V36.7135H242.707ZM254.543 35.1154L261.582 23.8144H264.17V38.4258H261.925V27.1248L254.923 38.4258H252.298V23.8144H254.543V35.1154ZM266.527 38.4258V36.333H267.059C267.497 36.333 267.862 36.2474 268.153 36.0762C268.445 35.8986 268.68 35.591 268.857 35.1534C269.041 34.7095 269.181 34.0944 269.276 33.308C269.377 32.5153 269.45 31.5069 269.495 30.283L269.761 23.8144H279.502V38.4258H277.257V25.9072H271.892L271.663 31.1201C271.613 32.3187 271.505 33.3746 271.34 34.2878C271.181 35.1947 270.937 35.9557 270.608 36.5708C270.284 37.186 269.853 37.6489 269.314 37.9597C268.775 38.2704 268.099 38.4258 267.288 38.4258H266.527ZM285.1 29.1034H289.286C290.998 29.1034 292.308 29.5378 293.215 30.4066C294.121 31.2754 294.575 32.3757 294.575 33.7075C294.575 34.5827 294.372 35.3786 293.966 36.0952C293.56 36.8055 292.964 37.373 292.178 37.7979C291.391 38.2165 290.427 38.4258 289.286 38.4258H283.16V23.8144H285.405V36.333H289.286C290.174 36.333 290.903 36.0984 291.474 35.6291C292.044 35.1598 292.33 34.5573 292.33 33.8217C292.33 33.048 292.044 32.417 291.474 31.9287C290.903 31.4403 290.174 31.1962 289.286 31.1962H285.1V29.1034Z" fill="#191919"/>
</svg>
