<svg width="160" height="58" viewBox="0 0 160 58" fill="none" xmlns="http://www.w3.org/2000/svg">
<rect x="0.5" y="0.5" width="158.978" height="56.6475" rx="28.3238" stroke="#191919"/>
<path d="M40.9772 18.8111L45.9999 26.9159H46.1521L51.1748 18.8111H53.9524L47.8263 28.552L53.9524 38.293H51.1748L46.1521 30.3404H45.9999L40.9772 38.293H38.1995L44.4779 28.552L38.1995 18.8111H40.9772ZM58.5021 34.9826L65.5414 23.6816H68.1288V38.293H65.8839V26.992L58.8826 38.293H56.2571V23.6816H58.5021V34.9826ZM79.7701 35.2489L84.8689 23.6816H86.9997L80.6833 38.293H78.8569L72.6547 23.6816H74.7474L79.7701 35.2489ZM74.0245 23.6816V38.293H71.7795V23.6816H74.0245ZM85.5157 38.293V23.6816H87.7607V38.293H85.5157ZM93.654 34.9826L100.693 23.6816H103.281V38.293H101.036V26.992L94.0345 38.293H91.409V23.6816H93.654V34.9826ZM115.721 38.293V25.7363H111.84C110.965 25.7363 110.277 25.9392 109.776 26.3451C109.275 26.751 109.024 27.309 109.024 28.0193C109.024 28.7169 109.249 29.2655 109.7 29.665C110.156 30.0645 110.781 30.2643 111.574 30.2643H116.292V32.3571H111.574C110.584 32.3571 109.731 32.1827 109.015 31.8339C108.298 31.4851 107.746 30.9873 107.359 30.3404C106.973 29.6872 106.779 28.9135 106.779 28.0193C106.779 27.1188 106.982 26.3451 107.388 25.6982C107.794 25.0514 108.374 24.5536 109.129 24.2048C109.89 23.856 110.794 23.6816 111.84 23.6816H117.852V38.293H115.721ZM105.98 38.293L110.128 31.0253H112.563L108.415 38.293H105.98Z" fill="#191919"/>
</svg>
