<svg width="23" height="23" viewBox="0 0 23 23" fill="none" xmlns="http://www.w3.org/2000/svg">
<g clip-path="url(#clip0_74_4346)">
<path fill-rule="evenodd" clip-rule="evenodd" d="M11.4226 0C17.7311 0 22.8452 5.11406 22.8452 11.4226C22.8452 17.7311 17.7311 22.8452 11.4226 22.8452C5.11406 22.8452 0 17.7311 0 11.4226C0 5.11406 5.11406 0 11.4226 0ZM18.6732 15.8507V7.36123L14.4283 11.6059L18.6732 15.8507ZM5.07877 16.0236H17.7667L13.8889 12.1458L12.4109 13.6235C12.3393 13.695 12.2422 13.7351 12.141 13.7351H10.7043C10.6541 13.7351 10.6045 13.7253 10.5582 13.7062C10.5118 13.687 10.4697 13.6589 10.4343 13.6235L8.95638 12.1458L5.07859 16.0236H5.07877ZM4.17192 7.36096V15.8509L8.41688 11.6059L4.17192 7.36096ZM18.1336 6.82156H4.71182L10.8623 12.9721H11.983L18.1336 6.82156Z" fill="#1841EC"/>
</g>
<defs>
<clipPath id="clip0_74_4346">
<rect width="22.8452" height="22.8452" fill="white"/>
</clipPath>
</defs>
</svg>
