<svg width="23" height="23" viewBox="0 0 23 23" fill="none" xmlns="http://www.w3.org/2000/svg">
<path d="M19.4984 3.34438C15.0369 -1.11574 7.8045 -1.11467 3.34438 3.34683C-1.11574 7.80833 -1.11467 15.0407 3.34683 19.5008C7.80833 23.9609 15.0407 23.9599 19.5008 19.4984C21.6428 17.3557 22.8458 14.4499 22.8452 11.4201C22.8446 8.39093 21.6407 5.48602 19.4984 3.34438ZM17.2991 15.9115C17.2986 15.912 17.2981 15.9126 17.2976 15.9131V15.9093L16.7188 16.4842C15.9703 17.2421 14.8802 17.554 13.8441 17.3066C12.8003 17.0272 11.8079 16.5824 10.9047 15.9892C10.0656 15.4529 9.288 14.826 8.58596 14.1197C7.94 13.4785 7.35968 12.7744 6.85352 12.018C6.29988 11.204 5.86168 10.3173 5.55135 9.38313C5.1956 8.28567 5.4904 7.08144 6.31287 6.2724L6.99059 5.59467C7.17902 5.4054 7.4852 5.40473 7.67443 5.59315C7.67492 5.59365 7.67546 5.59414 7.67595 5.59467L9.81576 7.73449C10.005 7.92292 10.0057 8.22909 9.81728 8.41833C9.81679 8.41882 9.8163 8.41931 9.81576 8.41984L8.55928 9.67633C8.19875 10.0329 8.15342 10.5996 8.45268 11.009C8.90713 11.6327 9.41004 12.2195 9.95667 12.7643C10.5661 13.3763 11.2287 13.9332 11.9366 14.4282C12.3456 14.7135 12.9001 14.6654 13.254 14.3139L14.4685 13.0803C14.657 12.891 14.9632 12.8904 15.1524 13.0788C15.1529 13.0793 15.1534 13.0798 15.1539 13.0803L17.2976 15.2277C17.4869 15.4161 17.4875 15.7223 17.2991 15.9115Z" fill="#1841EC"/>
</svg>
