<svg width="34" height="20" viewBox="0 0 34 20" fill="none" xmlns="http://www.w3.org/2000/svg">
<path d="M32.3676 1.35526C31.995 2.52697 31.4926 3.54687 30.8633 4.47292L30.8895 4.43152C30.2712 5.462 29.5329 6.65257 28.6745 8.00323C27.9384 9.0696 27.5488 9.62164 27.5055 9.65936C27.3151 9.89812 27.1826 10.1907 27.137 10.5123L27.1356 10.5219C27.1729 10.8145 27.3082 11.0698 27.5055 11.2603L28.0576 11.8758C31.011 14.9111 32.6722 17.0034 33.0411 18.1525C33.0894 18.2795 33.117 18.4258 33.117 18.579C33.117 18.8467 33.0315 19.0938 32.8865 19.2966L32.8893 19.2925C32.6464 19.5423 32.3069 19.6969 31.9315 19.6969C31.8901 19.6969 31.8473 19.6955 31.8073 19.6913H31.8128H28.1818C28.1804 19.6913 28.1776 19.6913 28.1749 19.6913C27.7098 19.6913 27.2819 19.5285 26.9466 19.258L26.9507 19.2608C26.4622 18.8591 26.0274 18.4244 25.6382 17.9524L25.6258 17.9359C24.99 17.2173 24.426 16.6123 23.9338 16.121C22.2942 14.5624 21.0843 13.7831 20.3041 13.7831C20.2751 13.7804 20.242 13.779 20.2075 13.779C19.9798 13.779 19.7673 13.8494 19.592 13.9694L19.5961 13.9667C19.4526 14.1461 19.3656 14.3779 19.3656 14.6277C19.3656 14.6774 19.3684 14.7243 19.3753 14.7727V14.7671C19.338 15.2005 19.316 15.7042 19.316 16.2135C19.316 16.3777 19.3187 16.5406 19.3229 16.7034V16.68V18.2795C19.3367 18.3444 19.3449 18.4189 19.3449 18.4948C19.3449 18.8288 19.1931 19.1269 18.9558 19.3242L18.9544 19.3256C18.4203 19.5699 17.7965 19.7134 17.1382 19.7134C16.9974 19.7134 16.8594 19.7065 16.7227 19.6941L16.7407 19.6955C14.5684 19.6541 12.5534 19.0179 10.8407 17.9455L10.889 17.9731C8.8037 16.7062 7.0758 15.057 5.75918 13.1082L5.72192 13.0503C4.47154 11.3914 3.30535 9.51721 2.31168 7.5409L2.21507 7.32836C1.63405 6.22152 1.03232 4.86073 0.513399 3.46131L0.430593 3.20599C0.219437 2.57666 0.0662451 1.8452 0.00276021 1.08752L0 1.05302C0 0.355607 0.410351 0.00690069 1.23105 0.00690069H4.86073C4.89386 0.00414048 4.9325 0.00276001 4.97252 0.00276001C5.31479 0.00276001 5.63083 0.120069 5.88063 0.317424L5.87787 0.314664C6.15389 0.616908 6.35815 0.988155 6.4589 1.40219L6.46304 1.41875C7.13101 3.30535 7.839 4.88971 8.65326 6.40783L8.5608 6.21876C9.22601 7.55746 9.96161 8.70985 10.8007 9.77391L10.769 9.73113C11.505 10.6346 12.0791 11.0864 12.4913 11.0864C12.5038 11.0878 12.5189 11.0878 12.5355 11.0878C12.7398 11.0878 12.9178 10.9774 13.0144 10.8117L13.0158 10.809C13.1179 10.5468 13.1773 10.2418 13.1773 9.92434C13.1773 9.85672 13.1745 9.78909 13.169 9.72285V9.73113V4.3777C13.14 3.74699 12.9854 3.15768 12.7273 2.6291L12.7384 2.65532C12.5672 2.29098 12.3616 1.97631 12.1173 1.69615L12.1215 1.70167C11.8951 1.47533 11.7406 1.17861 11.6923 0.847385L11.6909 0.839104C11.6909 0.604486 11.7985 0.39333 11.9669 0.25532L11.9683 0.25394C12.1353 0.100748 12.3589 0.00828069 12.6031 0.00828069H12.6142H18.3361C18.3665 0.00414038 18.401 0.00276001 18.4368 0.00276001C18.706 0.00276001 18.9475 0.12421 19.1076 0.314664L19.1089 0.316044C19.2511 0.575504 19.3353 0.886028 19.3353 1.21449C19.3353 1.26694 19.3325 1.318 19.3284 1.36907V1.36216V8.50145C19.3256 8.53457 19.3242 8.57322 19.3242 8.61186C19.3242 8.8658 19.3946 9.10456 19.5161 9.30743L19.5133 9.30191C19.6141 9.45096 19.7824 9.54757 19.9729 9.54757C20.2158 9.53101 20.438 9.45096 20.6243 9.32399L20.6202 9.32676C20.9956 9.06868 21.3185 8.77471 21.5987 8.44211L21.6042 8.43521C22.4419 7.48845 23.2148 6.44233 23.8883 5.32997L23.9421 5.23336C24.4168 4.4467 24.9302 3.47787 25.3953 2.48281L25.4809 2.27993L26.0964 1.04888C26.3103 0.433353 26.8845 0 27.5593 0C27.5856 0 27.6118 -1.00095e-07 27.638 0.00138001H27.6339H31.2649C32.2457 0.00138001 32.6137 0.452675 32.369 1.35526H32.3676Z" fill="#1841EC"/>
</svg>
